<?xml version="1.0" standalone="no"?>
<!DOCTYPE svg PUBLIC "-//W3C//DTD SVG 1.1//EN" "http://www.w3.org/Graphics/SVG/1.1/DTD/svg11.dtd" >
<svg>
<metadata>
Created by FontForge 20090622 at Fri May 17 09:06:28 2019
 By deploy user
(r) (c) 2003 [T&#226;&#128;&#144;26] Chicago www.t26.com 773.862.1201 T0943 ID#5134522 designer: Xavier Dupre asst. by Silas Dilworth
</metadata>
<defs>
<font id="SpotkaRegular" horiz-adv-x="618" >
  <font-face 
    font-family="SpotkaRegular"
    font-weight="400"
    font-stretch="normal"
    units-per-em="1000"
    panose-1="0 0 4 0 0 0 0 0 0 0"
    ascent="800"
    descent="-200"
    x-height="496"
    cap-height="691"
    bbox="-30 -198 909 894"
    underline-thickness="20"
    underline-position="-123"
    unicode-range="U+0020-U+F002"
  />
<missing-glyph horiz-adv-x="500" 
d="M63 0v750h375v-750h-375zM125 63h250v625h-250v-625z" />
    <glyph glyph-name=".notdef" horiz-adv-x="500" 
d="M63 0v750h375v-750h-375zM125 63h250v625h-250v-625z" />
    <glyph glyph-name=".null" horiz-adv-x="0" 
 />
    <glyph glyph-name="nonmarkingreturn" horiz-adv-x="250" 
 />
    <glyph glyph-name="space" unicode=" " horiz-adv-x="250" 
 />
    <glyph glyph-name="exclam" unicode="!" horiz-adv-x="304" 
d="M194 652q0 -64 -5 -193q-4 -125 -4 -193v-96q0 -7 -7 -7q-5 0 -14 1t-14 1q-3 0 -10.5 -1.5t-11.5 -1.5q-8 0 -8 13q0 9 1 27v27q0 10 -1 51l-8 331q0 6 -1 19t-1 20q0 15 13 15q4 0 12.5 -1.5t12.5 -1.5q6 0 17.5 2t17.5 2q11 0 11 -14zM192 12q0 -12 -10 -12h-58
q-11 0 -11 14q0 6 1 17t1 17q0 4 -1 12t-1 12q0 16 10 16h58q10 0 10 -13q0 -5 -1.5 -14.5t-1.5 -14.5q0 -6 2 -17t2 -17z" />
    <glyph glyph-name="quotedbl" unicode="&#x22;" horiz-adv-x="378" 
d="M298 680q0 -3 -4 -29q-3 -21 -8 -63l-5 -83q-1 -12 -15 -12h-24q-13 0 -14 12l-5 83q-1 20 -7 64q-4 26 -4 27q0 12 17 12h52q17 0 17 -11zM166 680q0 -3 -4 -29q-3 -21 -8 -63l-5 -83q-1 -12 -15 -12h-24q-13 0 -14 12l-5 83q-1 20 -7 64q-4 26 -4 27q0 12 17 12h53
q16 0 16 -11z" />
    <glyph glyph-name="numbersign" unicode="#" horiz-adv-x="559" 
d="M499 381q0 5 -5 -23q-2 -11 -2 -29q0 -3 -6 -3q-10 0 -29.5 2t-29.5 2h-16l-35 -154h77q4 0 12 2t12 2q5 0 5 -5t-2.5 -13.5t-2.5 -11.5q-1 -7 -1 -25q0 -5 -9 -5t-27 2t-27 2h-49l-14 -63l-11 -59q-2 -2 -8 -2q-4 0 -11.5 1t-11.5 1t-12 -1t-12 -1q-8 0 -8 7q0 -6 6 18
l23 99h-109l-14 -63l-11 -59q-2 -2 -8 -2q-4 0 -13 1.5t-13 1.5t-13 -1.5t-13 -1.5q-5 0 -5 7q0 3 5 15.5t6 15.5q5 19 20 86h-67q-10 0 -10 6t5 21.5t5 21.5t9 6q7 0 20 -1.5t20 -1.5h30l34 154h-50q-33 -1 -50 -1q-7 0 -7 6q0 5 5 21t5 24q0 5 10 5q7 0 20.5 -1.5
t19.5 -1.5q47 -1 59 -1l15 67q3 21 8 46q1 2 5 2t12 -1t12 -1t13 1t13 1q5 0 5 -6q0 -2 -4 -20l-20 -89h109l15 67q3 21 8 46q1 2 5 2t12 -1t12 -1t13 1t14 1t5 -7q0 -1 -4 -19l-20 -89l54 1q3 0 9.5 2t9.5 2t3 -5zM352 330h-109l-35 -154h109z" />
    <glyph glyph-name="dollar" unicode="$" horiz-adv-x="521" 
d="M451 142q0 -57 -35 -95t-92 -51v-58q0 -6 2 -16.5t2 -16.5q0 -8 -36 -8q-6 0 -6 4q0 6 2 16.5t2 16.5v57q-12 -1 -26 -1q-18 0 -39 2v-50q0 -6 1.5 -18.5t1.5 -18.5q0 -8 -14 -9q17 1 -21 1q-6 0 -6 4q0 7 2 19.5t2 19.5v56q-70 12 -108 46q-13 12 -13 19q0 9 20 23
q8 30 15 30q4 0 18 -15q21 -22 64 -36q39 -13 73 -13q46 0 79 20q40 23 40 66q0 54 -76 79l-142 40q-76 32 -76 104q0 51 32 89q30 35 81 49q0 21 -1 64q0 4 -1.5 14t-1.5 15q0 8 13 9q-16 -1 20 -1q9 0 9 -8q0 -5 -2 -15t-2 -15v-57q17 2 29 2q15 0 36 -2v57q0 5 -2 14.5
t-2 14.5q0 9 13 10q-11 -1 20 -1q8 0 8 -9q0 -5 -1.5 -15t-1.5 -15v-60q59 -10 88 -30q17 -12 17 -19q0 1 -16 -26q-3 -8 -9 -22q-4 -8 -8 -8q-5 0 -13 8q-20 19 -60 32q-36 12 -67 12q-44 0 -73 -16q-37 -19 -37 -59q0 -48 77 -70l144 -43q77 -36 77 -116z" />
    <glyph glyph-name="percent" unicode="%" horiz-adv-x="646" 
d="M586 120q0 -56 -28 -92q-31 -38 -86 -38q-117 0 -117 138q0 59 31 96.5t88 37.5q112 0 112 -142zM526 491q0 -6 -27 -42l-287 -378q-18 -23 -31 -44q-5 -10 -17 -27q-2 -3 -5 -3q-6 0 -18 1.5t-16.5 1.5t-4.5 4q0 3 27 39l302 399q15 19 25 35q13 21 15 21q5 0 16 -1
t16 -1t5 -5zM291 365q0 -56 -28 -92q-31 -38 -86 -38q-117 0 -117 138q0 59 31 96.5t88 37.5q112 0 112 -142zM533 121q0 90 -62 90q-64 0 -64 -85t63 -85t63 80zM238 366q0 90 -62 90q-63 0 -63 -86q0 -84 62 -84q63 0 63 80z" />
    <glyph glyph-name="ampersand" unicode="&#x26;" horiz-adv-x="708" 
d="M648 348q0 -151 -88 -252q-92 -106 -241 -106q-111 0 -181 50q-78 57 -78 164q0 50 36 116q39 74 81 74q3 0 8.5 -3t8.5 -3q19 0 19 11q0 4 -14 13.5t-15 11.5q-34 38 -34 96q0 73 43 115.5t116 42.5q64 0 107 -34q47 -37 47 -99q0 -55 -37.5 -101t-91.5 -62
q-20 -6 -20 -10q0 -5 90 -86t90 -86q0 -3 -13 -12.5t-14 -10.5q-5 -7 -10 -13q-7 -11 -10 -11q-1 0 -13 12l-161 156q-9 10 -17 20q-13 14 -20 14q-5 0 -13 -3q-43 -15 -67.5 -56t-24.5 -88q0 -78 56 -120q50 -37 131 -37q116 0 191 83q72 80 72 197q0 11 6 21t6 14
q0 6 -6 6q-5 0 -16 -4.5t-17 -4.5h-43q-9 0 -9 8q0 4 1 11.5t1 11.5t-1 11.5t-1 11.5q0 6 7 6h104q5 0 13.5 3t12.5 3q5 0 6 -7q3 -17 3 -74zM396 539q0 39 -24.5 62.5t-63.5 23.5q-40 0 -65 -28t-25 -69q0 -27 16 -63q18 -42 41 -42q7 0 22 4q39 11 69 42t30 70z" />
    <glyph glyph-name="quotesingle" unicode="'" horiz-adv-x="246" 
d="M166 680q0 -3 -4 -29q-3 -21 -8 -63l-5 -83q-1 -12 -15 -12h-24q-13 0 -14 12l-5 83q-1 20 -7 64q-4 26 -4 27q0 12 17 12h53q16 0 16 -11z" />
    <glyph glyph-name="parenleft" unicode="(" horiz-adv-x="417" 
d="M357 -130q0 4 -6 -21q1 3 1 -15q0 -10 -11 -10q-271 0 -271 448q0 298 159 400q50 32 112 32q6 0 6 -19q0 -5 3 -14t3 -13q0 -5 -6 -5q-121 0 -176 -138q-39 -99 -39 -242q0 -165 33 -256q51 -142 185 -142q7 0 7 -5z" />
    <glyph glyph-name="parenright" unicode=")" horiz-adv-x="417" 
d="M347 256q0 -297 -159 -400q-50 -32 -112 -32q-6 0 -6 9v5.5v4.5q0 5 -3 13.5t-3 13.5t6 5q121 0 176 138q39 99 39 242q0 165 -33 255q-51 143 -185 143q-7 0 -7 5q0 4 2.5 14.5t2.5 21t11 10.5q271 0 271 -448z" />
    <glyph glyph-name="asterisk" unicode="*" horiz-adv-x="468" 
d="M408 535q0 -3 -10 -7l-48 -17q-13 -5 -14 -17q-2 -22 -12 -40q-5 -9 -5 -14q0 -7 19 -34.5t19 -32.5q0 -8 -21 -16q-15 -16 -21 -16q-4 0 -24 31t-29 31q-5 0 -14 -1t-14 -1t-14.5 1t-14.5 1q-10 0 -29.5 -31t-25.5 -31t-18 17q-21 8 -21 15q0 5 20 33.5t20 33.5l-9 20
t-10 33t-13 17l-47 18q-12 5 -12 9q0 7 9 25q2 23 9 23q11 0 34 -9t34 -9q5 0 13 9q12 15 32 24q10 5 11 6.5t2 10.5l3 53q1 16 8 16q3 0 10 -1t10 -1t10 1t10 1q7 0 7 -16l1 -49q0 -14 14 -21q20 -10 30 -21t16 -11q11 0 33.5 8t33.5 8q3 0 10.5 -27t7.5 -22zM295 505
q0 26 -17.5 44.5t-43.5 18.5t-44 -18.5t-18 -44.5q0 -27 17.5 -45t44.5 -18q26 0 43.5 18.5t17.5 44.5z" />
    <glyph glyph-name="plus" unicode="+" horiz-adv-x="551" 
d="M491 229q0 -13 -2 -15.5t-14 -2.5h-154q-16 0 -16 -20v-163q0 -19 -18 -19h-25q-16 0 -16 18v165q0 19 -18 19h-150q-12 0 -15 3t-3 16q0 30 0 28q2 11 20 11h154q12 0 12 18v161q0 17 10 19q-2 0 31 0q12 0 15 -3.5t3 -16.5v-160q0 -18 20 -18h148q16 0 18 -10
q0 2 0 -30z" />
    <glyph glyph-name="comma" unicode="," horiz-adv-x="249" 
d="M169 76q0 -5 -1 -15t-1 -15q0 -30 -10 -57l-26 -54t-40 -69l-31 12q0 27 16.5 82.5t16.5 86.5q0 5 -1 13.5t-1 13.5q0 14 10 14h59q9 0 9 -12z" />
    <glyph glyph-name="hyphen" unicode="-" horiz-adv-x="357" 
d="M287 289v-45q0 -11 -19 -11h-94q-63 -1 -94 -1q-7 0 -7 14v33q0 2 -1.5 5t-1.5 4q0 5 21 5h169q4 0 11.5 2.5t10.5 2.5q5 0 5 -9z" />
    <glyph glyph-name="hyphen" unicode="&#x2010;" horiz-adv-x="357" 
d="M287 289v-45q0 -11 -19 -11h-94q-63 -1 -94 -1q-7 0 -7 14v33q0 2 -1.5 5t-1.5 4q0 5 21 5h169q4 0 11.5 2.5t10.5 2.5q5 0 5 -9z" />
    <glyph glyph-name="period" unicode="." horiz-adv-x="239" 
d="M159 12q0 -12 -10 -12h-58q-11 0 -11 14q0 6 1 17t1 17q0 4 -1 12t-1 12q0 16 10 16h58q10 0 10 -13q0 -5 -1.5 -14.5t-1.5 -14.5q0 -6 2 -17t2 -17z" />
    <glyph glyph-name="slash" unicode="/" horiz-adv-x="486" 
d="M446 684q0 -1 -13 -20t-14 -22l-273 -571q-39 -81 -54 -81q-1 0 -11 5t-20 5q-21 0 -21 4q0 2 5 7q15 17 22 32l288 592q28 57 41 57q4 0 13.5 -1.5t13.5 -1.5h19q4 0 4 -5z" />
    <glyph glyph-name="zero" unicode="0" horiz-adv-x="560" 
d="M490 237q0 -104 -50 -172q-56 -75 -157 -75q-213 0 -213 262q0 109 52 178q58 77 164 77q109 0 161 -84q43 -70 43 -186zM420 237q0 211 -139 211q-142 0 -142 -201q0 -82 28 -133q36 -64 112 -64q141 0 141 187z" />
    <glyph glyph-name="one" unicode="1" horiz-adv-x="496" 
d="M416 6q0 -6 -10 -6q-24 0 -73 1t-73 1q-28 0 -83 -1t-83 -1q-13 0 -13 10q0 8 3 20q-4 14 -4 22t12 8h122q26 0 26 5q0 4 -2.5 10.5t-2.5 10.5v312q0 22 -10 22q-4 0 -11 -2l-111 -30l-7 -2q-5 0 -5 6q0 4 1.5 12.5t1.5 12.5t-1 11.5t-1 11.5q0 7 9 10l128 39q23 7 19 7
q4 0 11.5 -1t11.5 -1t11.5 1t11.5 1q7 0 7 -9q0 -3 -1.5 -10t-1.5 -11v-379q0 -17 3 -21.5t19 -4.5h82q13 0 13 -8q0 -3 -1 -10t-1 -10q0 -4 1.5 -13t1.5 -14z" />
    <glyph glyph-name="two" unicode="2" horiz-adv-x="578" 
d="M508 56q0 -9 -4 -24q2 -16 2 -22q0 -10 -13 -10q-36 0 -109 1t-110 1q-31 0 -94.5 -1t-95.5 -1q-12 0 -12 8q0 4 1 13t1 13t-2 12t-2 12q0 6 16 11q130 42 191 83q102 68 102 169q0 56 -36.5 90t-92.5 34q-78 0 -139 -37q-7 -4 -10 -4q-6 0 -6 7q0 5 1.5 14.5t1.5 14.5
q0 4 -1.5 13t-1.5 13q0 6 5 9q51 32 163 32q84 0 136 -49t52 -132q0 -154 -185 -241q-20 -9 -20 -17q0 -14 16 -11l49 9h185q12 0 12 -10z" />
    <glyph glyph-name="three" unicode="3" horiz-adv-x="556" 
d="M476 67q0 -87 -57.5 -134.5t-145.5 -47.5q-85 0 -139 48t-54 132v33q0 21 10 21h25q4 0 12.5 3t13.5 3q6 0 6 -8q0 -4 -1 -13t-1 -13q0 -65 31 -104q34 -42 97 -42q59 0 94.5 32t35.5 91q0 55 -35 86t-91 31q-17 0 -17 7t3 24q-3 15 -3 22t5 9q3 1 11 0q11 -1 12 -1
q44 0 69.5 27.5t25.5 71.5q0 50 -37 78q-33 24 -85 24q-67 0 -118 -35q-6 -4 -8 -4q-5 0 -5 5t2 15t2 15q0 4 -1.5 13t-1.5 13q0 5 5 8q49 30 134 30q79 0 128 -38q53 -42 53 -119q0 -62 -42 -97q-4 -3 -28 -9q-19 -5 -19 -15t14 -16q100 -40 100 -146z" />
    <glyph glyph-name="four" unicode="4" horiz-adv-x="569" 
d="M499 40q0 -6 -10 -6h-63q-17 0 -17 -20v-89q0 -4 2 -26q-2 -4 -6 -4q-5 0 -14 1.5t-14 1.5q-4 0 -12 -1.5t-12 -1.5q-9 0 -9 6q0 4 1 11.5t1 11.5v90q0 3 2 8t2 8q0 4 -21 4h-153q-116 0 -116 93q0 52 59 119l221 251q5 6 11 6q5 0 14.5 -2.5t14.5 -2.5h30q9 0 9 -5
t-10 -16l-266 -302q-31 -35 -31 -55q0 -25 55 -25h161q12 0 15 3t3 16v182q0 8 5 7l26 -3q4 0 13 1t14 1q4 0 6 -5q1 -4 0 -11l-1 -9v-169q0 -13 18 -13h65q7 0 7 -6q0 -9 -3 -33q3 -10 3 -16z" />
    <glyph glyph-name="five" unicode="5" horiz-adv-x="534" 
d="M454 77q0 -88 -54 -140t-142 -52q-111 0 -169 49q-9 8 -9 16q0 6 3 17t3 16v31q0 6 6 6q2 0 7 -6q53 -67 152 -67q59 0 96.5 33t37.5 91q0 55 -35.5 86t-90.5 31q-40 0 -113 -6q-55 -5 -50 -5q-12 0 -12 11v128q0 191 187 191q101 0 144 -31q5 -4 5 -7q0 -5 -1.5 -14.5
t-1.5 -14.5t1.5 -15t1.5 -15q0 -8 -6 -8q-2 0 -10 6q-49 35 -130 35q-128 0 -128 -126v-55q0 -30 25 -30q11 0 57 9q32 6 60 6q73 0 119.5 -48.5t46.5 -121.5z" />
    <glyph glyph-name="six" unicode="6" horiz-adv-x="561" 
d="M481 190q0 -92 -53.5 -146t-145.5 -54q-108 0 -159 86q-43 70 -43 186q0 350 236 350q90 0 145 -47q9 -8 9 -13q0 -7 -12 -26q-2 -33 -11 -33q-4 0 -7 4q-46 55 -127 55q-115 0 -149 -130q-2 -8 -11 -65q-1 -6 -12 -36v-2q0 -11 16 -11q-2 0 44 36t89 36q87 0 139 -51.5
t52 -138.5zM413 187q0 62 -34 98.5t-95 36.5q-59 0 -93 -35t-34 -95q0 -62 32 -103q35 -44 95 -44t96 42q33 39 33 100z" />
    <glyph glyph-name="seven" unicode="7" horiz-adv-x="532" 
d="M472 399q0 -44 -52 -122l-260 -391q-3 -5 -10 -5q-9 0 -26 6q-27 -2 -37 -2q-6 0 -6 5q0 4 4 10l308 455q25 37 25 53q0 22 -49 22h-274q-15 0 -15 8q0 11 3 23q-2 15 -2 25t14 10h272q105 0 105 -97z" />
    <glyph glyph-name="eight" unicode="8" horiz-adv-x="557" 
d="M477 164q0 -82 -64 -130q-58 -44 -142 -44q-85 0 -138 46t-53 130q0 90 88 143q8 5 8 10q0 6 -9 12q-69 44 -69 129q0 72 56 114q51 38 126 38q78 0 126 -37q52 -41 52 -117q0 -80 -67 -122q-11 -7 -11 -12q0 -4 11 -11q86 -51 86 -149zM391 459q0 49 -33 76
q-30 24 -81 24q-113 0 -113 -98q0 -54 29.5 -85t82.5 -31q52 0 83.5 31t31.5 83zM406 171q0 58 -35 90t-94 32q-58 0 -92.5 -31.5t-34.5 -88.5q0 -59 33.5 -92t92.5 -33q57 0 93.5 33.5t36.5 89.5z" />
    <glyph glyph-name="nine" unicode="9" horiz-adv-x="561" 
d="M481 227q0 -342 -236 -342q-92 0 -146 47q-8 7 -8 12q0 6 5.5 17t6.5 14l5 25q1 6 4 6q4 0 9 -6q20 -25 56 -40t71 -15q118 0 151 134q7 26 10 72q0 2 1 7.5t1 8.5q0 8 -18 8q-9 0 -51.5 -29t-70.5 -29q-87 0 -139 51.5t-52 138.5q0 92 53.5 146t145.5 54q109 0 161 -90
q41 -72 41 -190zM404 305q0 62 -32 103q-35 44 -95 44t-94.5 -40.5t-34.5 -101.5q0 -62 34 -98.5t95 -36.5q59 0 93 35t34 95z" />
    <glyph glyph-name="colon" unicode=":" horiz-adv-x="259" 
d="M169 383q0 -12 -10 -12h-58q-11 0 -11 14q0 6 1 17t1 17q0 4 -1 12t-1 12q0 16 10 16h58q10 0 10 -13q0 -5 -1.5 -14.5t-1.5 -14.5q0 -6 2 -17t2 -17zM169 12q0 -12 -10 -12h-58q-11 0 -11 14q0 6 1 17t1 17q0 4 -1 12t-1 12q0 16 10 16h58q10 0 10 -13q0 -5 -1.5 -14.5
t-1.5 -14.5q0 -6 2 -17t2 -17z" />
    <glyph glyph-name="semicolon" unicode=";" horiz-adv-x="269" 
d="M175 383q0 -12 -10 -12h-58q-11 0 -11 14q0 6 1 17t1 17q0 4 -1 12t-1 12q0 16 10 16h58q10 0 10 -13q0 -5 -1.5 -14.5t-1.5 -14.5q0 -6 2 -17t2 -17zM179 76q0 -5 -1 -15t-1 -15q0 -30 -10 -57l-26 -54t-40 -69l-31 12q0 27 16.5 82.5t16.5 86.5q0 5 -1 13.5t-1 13.5
q0 14 10 14h59q9 0 9 -12z" />
    <glyph glyph-name="less" unicode="&#x3c;" horiz-adv-x="430" 
d="M350 55q0 -8 -10 -8h-46q-16 0 -30 14l-175 171q-9 9 -9 15t8 14l176 170q14 14 30 14h45q11 0 11 -7q0 -4 -5 -9l-174 -166q-8 -8 -8 -15q0 -4 8 -12l173 -170q6 -6 6 -11z" />
    <glyph glyph-name="equal" unicode="=" horiz-adv-x="531" 
d="M451 324q0 -19 -19 -19h-335q-17 0 -17 21v21q0 13 4 15.5t18 2.5h327q14 0 18 -3t4 -15v-23zM451 136q0 -19 -19 -19h-335q-17 0 -17 21v21q0 13 4 15.5t18 2.5h327q14 0 18 -3t4 -15v-23z" />
    <glyph glyph-name="greater" unicode="&#x3e;" horiz-adv-x="430" 
d="M350 245q0 -6 -8 -14l-176 -170q-14 -14 -30 -14h-45q-11 0 -11 7q0 4 5 9l174 166q8 8 8 15q0 4 -8 12l-173 170q-6 6 -6 11q0 8 12 8h43q17 0 31 -14l175 -171q9 -9 9 -15z" />
    <glyph glyph-name="question" unicode="?" horiz-adv-x="486" 
d="M406 522q0 -66 -62 -111l-117 -63q-62 -34 -62 -74q0 -56 60 -56q53 0 84 45q8 11 11 11q4 0 6 -6.5t8 -19.5q1 -2 7.5 -10t6.5 -13q0 -6 -7 -15q-41 -55 -119 -55q-58 0 -92 33t-34 91q0 59 62 99l114 61q62 37 62 91q0 40 -31 60q-27 17 -69 17q-67 0 -109 -48
q-7 -8 -13 -8q-4 0 -15 27q-17 17 -17 26q0 5 15 17q58 48 142 48q74 0 119 -36q50 -39 50 -111zM255 12q0 -12 -10 -12h-58q-11 0 -11 14q0 6 1 17t1 17q0 4 -1 12t-1 12q0 16 10 16h58q10 0 10 -13q0 -5 -1.5 -14.5t-1.5 -14.5q0 -6 2 -17t2 -17z" />
    <glyph glyph-name="at" unicode="@" horiz-adv-x="902" 
d="M832 256q0 -85 -38 -157q-45 -88 -123 -88q-42 0 -72 24t-34 24q-10 0 -19 -6q-66 -42 -120 -42q-75 0 -115 65q-33 54 -33 135q0 95 44 160q50 76 140 76q78 0 118 -62q1 -1 12 -23q4 -8 11 -8q2 0 5 1t5 1q4 0 4 -14v-214q0 -65 50 -65q23 0 43 16q62 49 62 176
q0 138 -85.5 218t-223.5 80q-152 0 -243 -98.5t-91 -251.5q0 -144 85.5 -230t229.5 -86q86 0 162 29q11 4 12 4q4 0 4 -6q0 -5 -2.5 -13t-2.5 -12v-16q0 -12 -17 -18q-65 -23 -163 -23q-168 0 -267.5 100.5t-99.5 268.5q0 180 110 293t289 113q158 0 260.5 -97t102.5 -254z
M560 220q0 77 -14 114q-22 60 -86 60t-95 -58q-24 -46 -24 -116q0 -158 110 -158q74 0 99 52q10 21 10 106z" />
    <glyph glyph-name="A" unicode="A" 
d="M578 10q0 -9 -6 -9h-35q-5 0 -15.5 -2.5t-15.5 -2.5q-8 0 -8 10q0 23 -7 46l-52 171q-4 14 -9 27t-23 13q-7 0 -21 -5.5t-22 -5.5h-148q-19 0 -25.5 -4.5t-11.5 -21.5l-54 -182q-4 -21 -11 -45q-1 -2 -5 -2q-5 0 -15 2t-15 2h-31q-8 0 -8 9q0 2 13 44l162 521l18 58
q15 45 25 54q6 5 17 5q5 0 16 -1.5t16 -1.5t16 1t17 1q13 0 19 -5q10 -9 46 -120l154 -479q19 -59 19 -77zM406 321q0 6 -3 15l-67 209q-24 76 -38 76h-2q-4 0 -5 -2q-1 -11 -3 -25q-4 -19 -11 -44q-67 -223 -67 -226q0 -11 18 -11h161q17 0 17 8z" />
    <glyph glyph-name="B" unicode="B" horiz-adv-x="585" 
d="M525 202q0 -102 -58.5 -157t-161.5 -55q-118 0 -173 77q-9 13 -24 13h-16q-7 2 -7 13v576q0 21 7 21q2 0 5 -1.5t5 -1.5q-3 0 71 5q83 6 134 6q80 0 128.5 -45.5t48.5 -125.5q0 -89 -67 -129q-14 -8 -14 -16q0 -7 13 -12.5t36 -16.5q73 -48 73 -151zM411 523
q0 55 -35.5 85t-90.5 30q-104 0 -123 -8q-10 -4 -10 -27v-179q0 -21 21 -21h105q133 0 133 120zM447 202q0 86 -61 118q-43 23 -134 23h-39q-26 -1 -38 -1q-5 0 -10 5.5t-8 5.5q-5 0 -5 -31v-99q0 -77 36 -121q39 -49 114 -49q70 0 107.5 39t37.5 110z" />
    <glyph glyph-name="C" unicode="C" horiz-adv-x="609" 
d="M539 75q0 -13 -11 -13q-4 0 -13 1.5t-13 1.5q-12 0 -22.5 -10l-20.5 -19q-57 -46 -151 -46q-145 0 -204 113q-44 84 -44 246q0 144 52 237q65 116 197 116q90 0 139 -38l23 -21q10 -10 23 -10q-23 1 25 1q10 0 10 -12q0 -10 -1 -30t-1 -30q0 -11 1 -32.5t1 -32.5t-10 -11
q-4 0 -11.5 1t-11.5 1q-3 0 -10 -1t-11 -1q-9 0 -9 12q0 63 -43.5 103t-106.5 40q-101 0 -147 -102q-34 -74 -34 -190q0 -129 29 -197q43 -99 153 -99q70 0 113 37.5t43 106.5q0 14 9 14q4 0 11.5 -1.5t11.5 -1.5t13 1.5t13 1.5q8 0 8 -13q0 -9 -1.5 -28t-1.5 -28
q0 -11 1.5 -33.5t1.5 -33.5z" />
    <glyph glyph-name="D" unicode="D" horiz-adv-x="644" 
d="M584 343q0 -155 -57 -245q-68 -108 -213 -108q-107 0 -161 65q-6 8 -18 29q-5 10 -17 10q-3 0 -8 -1h-7q-13 0 -13 18v525q0 7 -5 16.5t-5 12.5q0 7 21 14q68 23 209 23q154 0 221 -106q53 -86 53 -253zM509 343q0 136 -39 205q-50 89 -173 89q-83 0 -120 -12
q-13 -4 -15.5 -9t-2.5 -21v-358q0 -179 160 -179q190 0 190 285z" />
    <glyph glyph-name="E" unicode="E" horiz-adv-x="583" 
d="M518 10q0 -12 -12 -12q-24 0 -70.5 1t-70.5 1h-264q-16 0 -16 8q0 7 3 24.5t3 27.5v587q0 25 9 34.5t34 9.5h343q11 0 11 -8q0 -5 -1.5 -14.5t-1.5 -14.5q0 -4 1 -13t1 -14q0 -10 -11 -10q-14 0 -42 3t-42 3h-207q-26 0 -26 -8q0 -4 1.5 -11.5t1.5 -11.5v-179
q0 -21 22 -21h212q12 0 12 -10q0 -4 -1 -12t-1 -12t1 -12.5t1 -12.5q0 -9 -11 -9h-209q-26 0 -26 -28v-195q0 -20 6 -26.5t27 -6.5h226q19 0 24 10q2 4 3 28l2 34q1 12 8 12q5 0 14 -1t14 -1q4 0 12.5 1t12.5 1q7 0 7 -7q0 -10 -1 -30t-1 -30q0 -12 1 -37.5t1 -37.5z" />
    <glyph glyph-name="F" unicode="F" horiz-adv-x="533" 
d="M483 684q0 -5 -1.5 -14t-1.5 -14t1 -14.5t1 -14.5q0 -10 -11 -10q-14 0 -42 3t-42 3h-212q-22 0 -22 -7q0 -3 1.5 -10t1.5 -11v-198q0 -21 22 -21h262q15 0 15 -11q0 -4 -1 -11.5t-1 -11.5t1.5 -13t1.5 -13q0 -8 -14 -8h-260q-26 0 -26 -28v-234q0 -7 3 -20t3 -19
q0 -7 -7 -7q-5 0 -15 1.5t-15 1.5t-14.5 -1.5t-14.5 -1.5q-11 0 -11 15v631q0 45 44 45h343q11 0 11 -7z" />
    <glyph glyph-name="G" unicode="G" horiz-adv-x="626" 
d="M551 315q0 -5 -5.5 -20t-5.5 -24v-116q0 -11 1 -32t1 -32q0 -12 -12 -12q-2 0 -8 1h-9q-12 0 -18 -7q-64 -83 -187 -83q-146 0 -204 111q-44 83 -44 245q0 146 52 239q65 117 199 117q107 0 161 -59q10 -11 19 -11q5 0 14.5 1t14.5 1q9 0 9 -11q0 -12 -1 -36t-1 -36
q0 -11 1 -33t1 -33q0 -8 -4.5 -10t-13.5 -1q-12 1 -13 1h-11q-8 -1 -12 -1q-9 0 -9 14q0 69 -41 111t-110 42q-101 0 -147 -102q-33 -74 -33 -190q0 -230 99 -280q32 -16 83 -16q66 0 107 32q45 34 45 98v48q0 30 -24 30h-80q-5 0 -13 -2t-12 -2q-5 0 -5 5t1.5 15.5
t1.5 15.5v12q-1 8 -1 12q0 8 13 8h187q14 0 14 -10z" />
    <glyph glyph-name="H" unicode="H" horiz-adv-x="652" 
d="M567 17q0 -17 -8 -17t-25 4q-19 -4 -25 -4q-13 0 -16 15v25v257q0 44 -24 44q-7 0 -23.5 -8t-19.5 -8h-247q-22 0 -22 -31v-228q0 -10 2.5 -29t2.5 -28t-8 -9q-7 0 -27 4q-23 -4 -31 -4q-10 0 -10 60l-1 614q0 17 11 17q4 0 12.5 -1.5t12.5 -1.5t12.5 1.5t12.5 1.5
q13 0 13 -13q0 -9 -1 -28t-1 -28v-203q0 -25 22 -25h290q24 0 24 26v129q-1 85 -1 128q0 14 12 14q5 0 14 -1t13 -1t12.5 1t12.5 1q9 0 9 -13v-19q-1 -12 -1 -18v-533q0 -15 1.5 -45.5t1.5 -45.5z" />
    <glyph glyph-name="I" unicode="I" horiz-adv-x="277" 
d="M177 8q0 -8 -6 -8q-4 0 -31 3q-28 -7 -33 -7q-7 0 -7 10v667q0 18 13 18q4 0 11 -1.5t10 -1.5q5 0 14.5 1.5t14.5 1.5q10 0 10 -13q0 -9 -1 -27.5t-1 -27.5v-516q0 -33 3 -66q3 -36 3 -33z" />
    <glyph glyph-name="J" unicode="J" horiz-adv-x="364" 
d="M274 683q0 -9 -1 -26t-1 -26v-463q0 -178 -138 -178q-18 0 -42 6q-32 8 -32 20q0 6 3 16.5t3 15.5l1 24q0 8 6 8q2 0 15.5 -6.5l15.5 -7.5q24 -9 57 -9q44 0 44 32q0 13 -2 38t-2 38v476q0 6 -1 18t-1 18q0 13 7 13q5 0 14 -1t13 -1l32 3q9 1 9 -8z" />
    <glyph glyph-name="K" unicode="K" horiz-adv-x="631" 
d="M581 9q0 -9 -13 -9q-11 0 -32 1t-32 1q-10 0 -29 -1t-29 -1q-9 0 -9 10q0 6 1.5 19t1.5 19q0 11 -6 21l-127 202q-30 48 -48 56q-13 6 -75 6q-26 0 -26 -23v-202q0 -16 2 -48.5t2 -48.5q0 -11 -7 -11q-5 0 -15 1t-15 1q-6 0 -17 -2t-17 -2t-6 9q0 18 1 55t1 55v562
q0 12 10 12q4 0 11.5 -1t11.5 -1q5 0 16 1t16 1q8 0 8 -11q0 -9 -1 -28t-1 -29v-206q0 -18 21 -18h59q26 0 42 20l209 258q16 20 18 20q4 0 10 -7q13 -14 30 -20q12 -4 12 -11q0 -6 -18 -28l-186 -227q-21 -26 -21 -37q0 -9 12 -27l109 -169q17 -28 54 -82q19 -26 63 -26
q6 0 7.5 -5t0.5 -14q-1 -12 -1 -11q0 -4 1 -12t1 -12z" />
    <glyph glyph-name="L" unicode="L" horiz-adv-x="545" 
d="M495 11q0 -10 -9 -10q-8 0 -23.5 2t-23.5 2q-7 0 -21.5 -2.5t-21.5 -2.5h-294q-22 0 -22 7q0 1 4 21q3 15 3 32v617q0 14 11 14q4 0 12 -1.5t12 -1.5q5 0 14 1.5t14 1.5q10 0 10 -12q0 -9 -1 -28t-1 -29v-531q0 -16 10 -20q6 -3 24 -3h207q25 0 26 16l5 57q1 13 11 13
q4 0 11 -1t10 -1q4 0 12 1t12 1q9 0 9 -11t-1.5 -33.5t-1.5 -33.5t1.5 -32.5t1.5 -32.5z" />
    <glyph glyph-name="M" unicode="M" horiz-adv-x="831" 
d="M746 11q0 -10 -9 -10q-4 0 -13 1t-13 1q-5 0 -15 -2t-15 -2q-10 0 -10 15v463q0 12 2 35t2 35q0 14 -7 14q-3 0 -6 -3q-5 -6 -50 -116l-146 -353q-15 -36 -15 -81q0 -8 -8 -8q-5 0 -15 1t-15 1t-14.5 -1t-14.5 -1q-4 0 -6 6q-1 4 0 13l1 10q0 24 -14 57l-151 361l-43 100
q-6 14 -11 14q-6 0 -6 -14q0 3 2 -24q2 -18 2 -43l1 -472q0 -8 -7 -8q-5 0 -14 1t-14 1t-15.5 -1t-15.5 -1q-8 0 -8 8q0 -3 3 29q2 22 2 52v589q0 13 9 13q7 0 21 -1t21 -1t20.5 1.5t20.5 1.5q10 0 14 -9l22 -63q20 -55 44 -112l135 -322q11 -27 19 -27q9 0 19 25l139 331
q4 10 62 165q5 14 10 14q7 0 22 -2.5t22 -2.5t21.5 1.5t21.5 1.5q10 0 11 -6q-1 3 -1 -14v-596q0 -11 1.5 -32.5t1.5 -32.5z" />
    <glyph glyph-name="N" unicode="N" horiz-adv-x="651" 
d="M566 13q0 -13 -8 -13q-5 0 -15.5 1t-15.5 1q-4 0 -13 -2t-13 -2q-8 0 -8 13q0 32 -7 51q-6 16 -25 44l-284 416q-7 10 -14 38q-3 13 -5 13q-7 0 -7 -27v-511q0 -5 1 -14t1 -13q0 -8 -7 -8t-25 4q-18 -4 -25 -4q-9 0 -9 17v620q0 8 -1 23t-1 22q0 9 9 9h59q3 0 11 -14
q4 -8 9 -17l310 -463l13 -20q5 0 5 33l-1 463q0 18 11 18q4 0 11 -1t11 -1t11 1t11 1q11 0 11 -10v-31q-1 -21 -1 -32z" />
    <glyph glyph-name="O" unicode="O" 
d="M568 340q0 -150 -56 -240q-68 -110 -207 -110q-255 0 -255 350q0 72 23 156q27 94 68 140q27 1 78 33.5t102 32.5q247 0 247 -362zM492 340q0 299 -176 299q-106 0 -155 -101q-36 -76 -36 -195q0 -289 183 -289q101 0 148 98q36 75 36 188z" />
    <glyph glyph-name="P" unicode="P" horiz-adv-x="565" 
d="M515 485q0 -104 -67 -162q-63 -54 -169 -54q-27 0 -62.5 22.5t-50.5 22.5q-13 0 -13 -13q0 -33 1 -100v-100q0 -65 4 -83q0 -1 2 -4.5t2 -5.5q0 -8 -9 -8q-6 0 -17 1.5t-16 1.5t-14 -1.5t-14 -1.5q-7 0 -7 18v643q0 14 11 18q4 1 29 5q83 14 161 14q107 0 166 -52
q63 -55 63 -161zM440 492q0 70 -40.5 106.5t-111.5 36.5q-84 0 -119 -10q-15 -4 -15 -21v-164q0 -107 133 -107q75 0 114 42t39 117z" />
    <glyph glyph-name="Q" unicode="Q" horiz-adv-x="652" 
d="M622 61q0 -6 -3.5 -17t-3.5 -16v-25q0 -9 -6 -9q-3 0 -9.5 3t-12.5 3h-159q-19 0 -56.5 -2.5t-56.5 -2.5q-255 0 -255 345q0 153 58 247q71 115 213 115q247 0 247 -362q0 -153 -69 -235q-5 -6 -41.5 -25t-36.5 -27q0 -4 10 -4t36 9t38 9h90q17 0 17 -6zM502 340
q0 299 -178 299q-106 0 -154 -101q-35 -76 -35 -195q0 -286 183 -286q101 0 148 97q36 73 36 186z" />
    <glyph glyph-name="R" unicode="R" horiz-adv-x="609" 
d="M579 9q0 -9 -8 -9t-25 1.5t-25 1.5t-25 -1.5t-26 -1.5q-6 0 -12 13q-49 113 -61 138q-49 99 -81 124q-17 13 -42 16q-10 1 -55 11q-41 8 -47 8q-14 0 -14 -25v-275q0 -10 -6 -10q-5 0 -15 1.5t-15 1.5t-15.5 -1.5t-15.5 -1.5q-6 0 -6 4q0 3 2 8.5t2 8.5v646q0 15 11 18
t68 7q79 6 136 6q95 0 147.5 -54.5t52.5 -150.5q0 -58 -32.5 -109t-85.5 -70q-15 -5 -15 -9t10 -9q38 -20 73 -86l49 -107q19 -40 47.5 -40t28.5 -7q0 -4 -1 -12.5t-1 -12.5t1 -11t1 -11zM430 489q0 146 -138 146q-80 0 -119 -6q-19 -3 -19 -14t2 -34t2 -35v-134
q0 -27 6 -36.5t31 -16.5q45 -12 89 -12q69 0 107.5 37t38.5 105z" />
    <glyph glyph-name="S" unicode="S" horiz-adv-x="572" 
d="M512 185q0 -93 -65 -146q-60 -49 -155 -49q-108 0 -164 52q-5 5 -45 5q-13 0 -13 11q0 12 2 34.5t2 32.5v29q-1 22 -1 30q0 10 10 10q4 0 11 -1t11 -1t13 1t13 1q10 0 10 -11q0 -65 45 -99q40 -30 107 -30q62 0 101 32q43 35 43 95q0 78 -92 121l-169 68q-92 49 -92 141
q0 88 60 141q58 50 147 50q119 0 181 -48q17 -13 17 -20q0 -5 -5.5 -18t-6.5 -16q-1 -10 -5 -31q-2 -8 -7 -8q-4 0 -9 6q-62 71 -163 71q-56 0 -93 -29q-40 -32 -40 -86q0 -71 91 -109l170 -67q91 -54 91 -162z" />
    <glyph glyph-name="T" unicode="T" horiz-adv-x="582" 
d="M537 637q0 -8 -2.5 -10.5t-10.5 -2.5q-9 0 -27.5 1t-27.5 1h-119q-25 0 -25 -26v-520q0 -12 1.5 -37t1.5 -37q0 -6 -8 -6q-5 0 -15 1t-15 1t-16 -1t-16 -1t-5 3l1 592q0 4 2.5 12t2.5 12q0 7 -10 7h-153q-16 0 -27 -2q-20 -2 -17 -2q-6 0 -6 6q0 5 1 16v15q0 4 -1 11.5
t-1 11.5q0 9 10 9h422q22 0 35 2q26 5 20 5q4 0 5 -7q1 -4 0 -13l-1 -11q0 -5 1 -15v-15z" />
    <glyph glyph-name="U" unicode="U" horiz-adv-x="648" 
d="M573 682q0 -5 -1.5 -16t-1.5 -17v-342q0 -150 -50 -226q-61 -91 -202 -91q-138 0 -194 87q-45 71 -45 220v340q0 8 -2 23.5t-2 23.5t7 7l35 -4q5 0 15 1.5t14 1.5q7 -3 7 -6q0 -12 -1.5 -37t-1.5 -37v-297q0 -190 81 -234q35 -19 93 -19q103 0 144 79q30 58 30 173v327
q0 9 -3.5 24.5t-3.5 21.5t9 6q6 0 17.5 -1t17.5 -1h15q11 1 16 1q7 0 7 -8z" />
    <glyph glyph-name="V" unicode="V" horiz-adv-x="633" 
d="M588 682l-31 -98l-159 -502l-14 -46q-13 -36 -18.5 -41t-12.5 -5q-6 0 -19 1.5t-19 1.5t-18 -1.5t-18 -1.5q-9 0 -14 4q-10 9 -33 83l-170 544q-17 54 -17 59q0 10 10 10h28q5 0 16 2t16 2v0q8 0 14 -25q3 -16 7 -32l141 -456q13 -50 36 -110q4 -5 11 -5q11 0 14 36
q4 40 15 76l148 474q3 13 7 27.5t15 14.5q4 0 12.5 -2t12.5 -2h29q11 0 11 -8z" />
    <glyph glyph-name="W" unicode="W" horiz-adv-x="959" 
d="M909 681q0 -2 -4 -13q-15 -39 -25 -84l-90 -406l-21 -94q-19 -75 -32 -88q-8 -6 -24 -6q-3 0 -10.5 1t-10.5 1t-10.5 -1t-10.5 -1q-15 0 -22 7q-24 20 -81 187l-71 209q-12 34 -20 34q-9 0 -20 -32l-99 -298l-18 -54q-15 -42 -23.5 -47.5t-24.5 -5.5q-5 0 -14 1t-14 1
t-14 -1t-14 -1q-13 0 -19 4q-12 9 -33 101l-110 486l-14 51q-10 40 -10 49t6 9h32q5 0 16 2t16 2q4 0 5 -3l17 -77l99 -439q9 -50 25 -109q3 -4 10 -4t10 4q2 16 6 39q5 31 18 67l121 339q10 28 10 56q0 12 -1 37t-1 37q0 11 9 11q5 0 15 -1t15 -1q4 0 13 1t14 1
q13 0 13 -15q0 -12 -1 -35.5t-1 -35.5q0 -23 12 -57l118 -334q9 -24 15 -46q6 -25 15 -55q3 -4 10 -4q9 0 11 4l9 59q3 19 8 39l100 438q7 35 22 80q3 4 9 4q5 0 14.5 -2.5t13.5 -2.5h29q7 0 7 -8z" />
    <glyph glyph-name="X" unicode="X" horiz-adv-x="641" 
d="M601 11q0 -7 -36 -7q-26 -10 -33 -10t-28 33l-131 204q-10 15 -19 31q-30 53 -31 53t-31 -50l-19 -31l-139 -207q-6 -10 -11 -20q-9 -14 -15 -14q-5 0 -32 10q-36 0 -36 8q0 2 188 276q35 51 35 69q0 17 -23 49q-30 41 -115 170l-61 90q-5 8 -5 15q0 9 10 9h26
q5 0 15.5 2.5t15.5 2.5t15 -15l140 -211q37 -56 43 -56t43 55l141 209q13 19 19 19q5 0 15.5 -3t15.5 -3h28q8 0 8 -7q0 -8 -19 -35l-176 -250q-17 -25 -17 -38q0 -15 35 -68l154 -231q30 -45 30 -49z" />
    <glyph glyph-name="Y" unicode="Y" horiz-adv-x="602" 
d="M562 680q0 -8 -28 -71l-120 -271l-46 -103q-27 -68 -27 -107q0 -19 1 -58t1 -59q0 -13 -8 -13q-9 0 -34 6q-27 -4 -29 -4q-7 0 -7 5q0 3 1.5 8t1.5 8v114q0 35 -31 104l-50 102l-121 264q-26 57 -26 72q0 12 9 12h29q6 0 17.5 2.5t17.5 2.5q1 0 4 -14q4 -20 18 -51
l118 -267q13 -29 25 -59q22 -46 36 -46q4 0 7 6l9 40t18 54l115 271q12 29 18 51q4 16 5 16q6 0 19 -3.5t19 -3.5h29q9 0 9 -8z" />
    <glyph glyph-name="Z" unicode="Z" horiz-adv-x="619" 
d="M549 156q0 -11 -2 -34t-2 -34q0 -12 1 -36.5t1 -36.5q0 -8 -10 -10q-29 -5 -68 -5h-276q-56 0 -91 23q-42 27 -42 80q0 49 44 105l306 390q13 16 37 33q0 5 -2 5q-4 0 -41 -8q-21 -5 -43 -5h-195q-30 0 -48 -4q-3 0 -21 -7q-2 0 -2 38v15q-1 10 -1 15q0 13 16 13
q14 0 42 -1t42 -1h310q36 0 36 -30q0 -16 -13 -32l-358 -453q-47 -59 -47 -84q0 -19 39 -23q8 -1 53 -1h204q12 0 28.5 -4t22.5 -4q5 0 10 26l11 61q3 16 8 17q-8 -2 22 -2l11 1q8 1 12 0q6 -2 6 -7z" />
    <glyph glyph-name="bracketleft" unicode="[" horiz-adv-x="327" 
d="M267 692v-9q-1 -5 -1 -8q0 -4 1 -12v-12q0 -5 -6 -5q-2 0 -5.5 1t-5.5 1h-85q-2 0 -5.5 6.5t-6.5 6.5q-5 0 -5 -22v-739q0 -24 27 -24h81q8 0 8 -11v-8q-1 -5 -1 -8t1 -9v-9q0 -11 -4 -11q-2 0 -6.5 1.5t-6.5 1.5h-139q-12 0 -15 1.5t-3 12.5v851q0 13 16 13h148
q1 0 3.5 1.5t4.5 1.5q5 0 5 -12z" />
    <glyph glyph-name="backslash" unicode="\" horiz-adv-x="486" 
d="M446 4q0 -4 -21 -4q-10 0 -20 -5t-11 -5q-15 0 -54 81l-273 571l-15 23q-12 17 -12 21q0 3 4 3h19q4 0 13.5 1.5t13.5 1.5q13 0 41 -57l288 -592q5 -10 11 -18q16 -22 16 -21z" />
    <glyph glyph-name="bracketright" unicode="]" horiz-adv-x="327" 
d="M237 687v-851q0 -13 -16 -13h-148q-1 0 -3.5 -1.5t-4.5 -1.5q-4 0 -4 29v12q-1 8 -1 12q0 5 6 5q2 0 5.5 -1t5.5 -1h85q2 0 5.5 -6.5t6.5 -6.5q5 0 5 29v730q0 26 -27 26h-81q-6 0 -8 5q-1 4 0 11l1 11q0 29 3 29q2 0 6.5 -1.5t6.5 -1.5h139q12 0 15 -1.5t3 -12.5z" />
    <glyph glyph-name="asciicircum" unicode="^" horiz-adv-x="476" 
d="M406 478q0 -6 -14 -6h-49q-18 0 -32 30l-58 123q-7 14 -16 14t-16 -14l-64 -126q-14 -27 -30 -27h-47q-10 0 -10 6q0 -3 12 18l100 175q16 28 31 28h54q10 0 21 -19l107 -186q11 -19 11 -16z" />
    <glyph glyph-name="underscore" unicode="_" horiz-adv-x="583" 
d="M543 -48q0 -12 -36 -12l-456 -1q-8 0 -8 14v33q0 2 -1.5 5.5t-1.5 4.5q0 4 44 4h432q4 0 11 2.5t10 2.5q6 0 6 -12v-41z" />
    <glyph glyph-name="grave" unicode="`" horiz-adv-x="287" 
d="M207 545q0 -6 -8 -6h-33q-6 0 -7.5 1t-24.5 46l-50 98q-4 8 -4 11q0 7 14 7h33q3 0 10 1h9q7 0 13 -19l35 -109q7 -15 13 -30z" />
    <glyph glyph-name="a" unicode="a" horiz-adv-x="530" 
d="M445 316q0 -32 -2.5 -97t-2.5 -97v-87q0 -12 -10 -12q-6 0 -17.5 1t-17.5 1q-8 0 -28 -9q-26 -11 -29 -12q-43 -14 -105 -14q-158 0 -158 133q0 61 48 95q42 30 106 30q29 0 67 -8q45 -10 57 -10q11 0 17 5q11 10 11 82q0 56 -36.5 91t-92.5 35q-73 0 -127 -36
q-6 -4 -9 -4q-7 0 -7 9q0 5 1 14.5t1 14.5q0 4 -1 13t-1 13t5 8q39 32 144 32q89 0 138 -51t49 -140zM380 163q0 22 -9 26q-4 1 -32 1h-93q-102 0 -102 -73q0 -71 105 -71q66 0 98.5 26.5t32.5 90.5z" />
    <glyph glyph-name="b" unicode="b" horiz-adv-x="588" 
d="M523 241q0 -100 -54 -172q-60 -79 -157 -79q-116 0 -174 79q-51 69 -51 189v373q0 10 -1 30t-1 30q0 23 5 23t14 -1t14 -1q4 0 12 1t12 1q11 0 11 -15q0 -11 -1 -34t-1 -34v-178q0 -19 16 -19q10 0 33 19q30 25 49 35q36 19 78 19q101 0 153 -87q43 -71 43 -179zM453 241
q0 83 -28 136q-36 68 -111 68q-80 0 -123 -61q-37 -53 -37 -137q0 -79 35 -132q40 -62 115 -62t115 59q34 50 34 129z" />
    <glyph glyph-name="c" unicode="c" horiz-adv-x="541" 
d="M456 121v-33q-1 -22 -1 -32t-7 -16q-57 -50 -170 -50q-111 0 -165 75q-48 66 -48 182q0 109 52 180q59 80 163 80q109 0 164 -79q7 -10 7 -15t-25 -24q-17 -27 -20 -27q-5 0 -8 5q-4 9 -15 26q-40 54 -104 54q-77 0 -115 -65q-30 -52 -30 -135q0 -85 33 -135
q38 -59 118 -59q43 0 87 18.5t70 49.5q5 6 10 6q4 0 4 -6z" />
    <glyph glyph-name="d" unicode="d" horiz-adv-x="615" 
d="M560 20q0 -5 -16 -17.5t-22 -12.5q-10 0 -42 32.5t-43 32.5q-8 0 -15.5 -7t-21.5 -18q-55 -40 -132 -40q-101 0 -155 78q-48 68 -48 174q0 105 50 179q57 86 157 86q48 0 94.5 -31t54.5 -31q16 0 16 19v166q0 12 -2.5 36t-2.5 36t11 12q5 0 14 -1.5t13 -1.5t12.5 1.5
t12.5 1.5q9 0 9 -12t-1.5 -36t-1.5 -36v-367q0 -54 -8 -91q-1 -4 -7 -23t-6 -24q0 -17 40 -58t40 -47zM434 252q0 83 -36 134q-41 59 -120 59q-73 0 -112 -68q-31 -56 -31 -135q0 -73 34 -127q39 -62 108 -62q81 0 122 61q35 53 35 138z" />
    <glyph glyph-name="e" unicode="e" horiz-adv-x="556" 
d="M471 332q0 -28 -6 -50t-33 -22h-263q-35 0 -35 -23q0 -80 42 -129q44 -53 122 -53q97 0 150 61q7 8 13 8t6 -10q0 -5 -1.5 -15t-1.5 -15t1 -16t1 -16t-6 -11q-52 -51 -163 -51q-117 0 -177 74q-55 69 -55 188q0 106 55 177q61 78 163 78q81 0 134 -46q54 -49 54 -129z
M403 348q0 46 -36.5 74t-83.5 28q-56 0 -98.5 -38t-42.5 -93q0 -16 9 -16q5 0 14.5 5t14.5 5h196q19 0 24 8q3 5 3 27z" />
    <glyph glyph-name="f" unicode="f" horiz-adv-x="426" 
d="M371 702q0 -4 -1.5 -11.5t-1.5 -11.5t1 -12.5t1 -12.5q0 -5 -6 -5q-5 0 -16 1.5t-16 1.5q-124 0 -124 -135q0 -23 5 -28t28 -5h117q10 0 10 -8q0 -6 -1 -18t-1 -19q0 -10 -13 -10h-117q-4 0 -11.5 1.5t-11.5 1.5q-5 0 -5 -23v-348q0 -89 -47 -142q-50 -56 -137 -56
q-19 0 -19 9q0 4 2.5 12t2.5 12v12q-1 9 -1 12q0 8 7 8q8 0 25 -1.5t25 -1.5q51 0 67 34q11 22 11 81v371q0 13 -2 15.5t-14 2.5h-44q-12 0 -12 10q0 3 1 9.5t1 9.5t-1 8.5t-1 8.5q0 9 5 9h50q2 0 5 -2t5 -2q5 0 7 28q5 88 53 144q52 62 137 62q37 0 37 -12z" />
    <glyph glyph-name="g" unicode="g" horiz-adv-x="504" 
d="M469 -33q0 -81 -69 -121q-55 -33 -143 -33q-83 0 -138 35q-64 41 -64 119q0 14 6 36q7 28 16 28q8 0 22 -6q25 1 30 1q4 0 4 -5l-6 -14t-6 -28q0 -54 48 -83q39 -24 97 -24q135 0 135 84q0 53 -102 80l-116 31q-15 4 -27.5 4t-12.5 8q0 13 13 55t13 56q0 16 -23 35
q-50 40 -50 121q0 70 42.5 113t112.5 43q23 0 69 -3t69 -3q14 0 14 -6q0 -1 -6.5 -12.5t-6.5 -25.5q0 -17 9.5 -52t9.5 -54q0 -71 -44.5 -112t-115.5 -41h-11q-10 0 -16 -22q-5 -17 -5 -31q0 -13 30 -22l70 -20q73 -21 102 -40q50 -33 50 -91zM347 345q0 110 -94 110
q-46 0 -69.5 -31.5t-23.5 -78.5q0 -45 23 -73q24 -31 68 -31t70 29.5t26 74.5z" />
    <glyph glyph-name="h" unicode="h" horiz-adv-x="594" 
d="M509 8q0 -8 -10 -8q-4 0 -12 1t-12 1t-11 -1t-11 -1q-11 0 -11 14q0 5 1 15v14v217q0 187 -131 187q-148 0 -148 -193q0 -41 1 -122v-122q0 -10 -9 -10q-4 0 -11.5 1t-11.5 1q-5 0 -14 -1t-14 -1q-6 0 -6 9q0 5 1 14.5t1 14.5v236q0 35 3 67q4 51 4 54q0 8 -6.5 52
t-6.5 78v175q0 14 10 14q8 0 24 -3q18 3 26 3t8 -9q0 -8 -2.5 -24.5t-2.5 -24.5v-203q0 -30 7 -30t19 18q16 22 18 24q45 42 124 42q95 0 142 -74q39 -62 39 -163v-206q0 -9 1 -28t1 -28z" />
    <glyph glyph-name="i" unicode="i" horiz-adv-x="269" 
d="M170 602q0 -10 -9 -10h-55q-11 0 -11 12q0 5 1 14t1 14q0 4 -1 10.5t-1 10.5q0 13 10 13h55q10 0 10 -11q0 -4 -1.5 -12t-1.5 -12q0 -5 1.5 -14.5t1.5 -14.5zM174 10q0 -10 -7 -10q-5 0 -15 1.5t-15 1.5q-4 0 -13 -1.5t-14 -1.5q-6 0 -7.5 6t-0.5 16q1 14 1 13v383
q0 10 -1.5 31t-1.5 32q0 15 11 15q6 0 24 -3q15 3 23 3q12 0 12 -10q0 -5 -1.5 -15t-1.5 -15v-371q0 -24 3 -48z" />
    <glyph glyph-name="j" unicode="j" horiz-adv-x="303" 
d="M208 602q0 -10 -9 -10h-55q-11 0 -11 12q0 5 1 14t1 14q0 4 -1 10.5t-1 10.5q0 13 10 13h55q10 0 10 -11q0 -4 -1.5 -12t-1.5 -12q0 -5 1.5 -14.5t1.5 -14.5zM205 0q0 -73 -29 -125q-36 -62 -104 -62q-33 0 -48 7q-9 4 -9 12q0 3 1 10t1 10l-2 21q-1 6 8 6q-4 0 20 -6
q17 -4 38 -4q60 0 60 54v501q0 10 -1 29.5t-1 29.5q0 13 11 13q4 0 11 -1.5t10 -1.5q4 0 13 1.5t13 1.5q8 0 8 -10v-486z" />
    <glyph glyph-name="k" unicode="k" horiz-adv-x="559" 
d="M504 45q0 -3 -7.5 -9t-13 -12t-9.5 -13q-7 -9 -12 -9q-7 0 -37 26l-229 198q-15 13 -22 13q-13 0 -13 -30q0 -33 1 -98v-98q0 -13 -7 -13q-4 0 -12.5 1t-12.5 1t-11.5 -1t-11.5 -1q-12 0 -12 14q0 12 1 35.5t1 35.5l-1 617q0 12 9 12q8 0 24 -3q17 3 25 3q6 0 8 -2t2 -8
q0 -7 -1.5 -20t-1.5 -20v-297q0 -30 19 -47l62 -54q17 -15 28 -15q15 0 15 60q0 80 39 135q44 61 121 61q33 0 37 -5q1 -1 1 -6v-10q-1 -7 -1 -10q0 1 1 -12q1 -10 0 -15q-2 -7 -6 -7q-5 0 -15.5 2.5t-15.5 2.5q-53 0 -79 -52q-20 -40 -20 -99v-56q0 -36 3 -46q5 -17 27 -36
l119 -101q8 -6 8 -12z" />
    <glyph glyph-name="l" unicode="l" horiz-adv-x="302" 
d="M277 15q0 -13 -33 -20q-24 -5 -44 -5q-61 0 -86 44q-19 33 -19 100v557q0 23 13 23q10 0 24 -3q17 3 26 3q7 0 7 -9q0 -10 -3.5 -29t-3.5 -29v-515q0 -83 48 -83q22 0 43 7q25 9 22 9q6 0 6 -9q0 -4 -1 -11t-1 -10t1 -10t1 -10z" />
    <glyph glyph-name="m" unicode="m" horiz-adv-x="858" 
d="M783 10q0 -10 -10 -10q-4 0 -11.5 1t-11.5 1t-13 -1t-13 -1q-10 0 -10 13q0 9 1 27.5t1 27.5v198q0 72 -23 119q-30 61 -94 61q-127 0 -127 -109v-280q0 -8 1 -23t1 -22q0 -12 -9 -12q-4 0 -11.5 1t-11.5 1q-3 0 -10 -1t-11 -1q-14 0 -14 13q0 7 1 22v22v280
q0 50 -28.5 79.5t-78.5 29.5q-137 0 -137 -182q0 -42 1 -125v-125q0 -14 -12 -14q-4 0 -11 1t-11 1q-3 0 -10 -1t-11 -1q-9 0 -9 12v256q0 66 32 128q3 6 3 11q0 13 -35.5 39t-35.5 33q0 6 5 9q32 19 36 19q6 0 36 -21.5t45 -21.5q7 0 14 4q65 39 112 39q41 0 80 -20.5
t50 -20.5q13 0 64 20q57 21 99 21q173 0 173 -243v-196q0 -10 2 -29.5t2 -28.5z" />
    <glyph glyph-name="n" unicode="n" horiz-adv-x="584" 
d="M509 14q0 -14 -11 -14q-7 0 -22 3q-17 -3 -23 -3q-11 0 -11 13q0 5 1 15v15v217q0 86 -25 130q-32 57 -110 57q-142 0 -142 -189q0 -41 1 -123v-123q0 -12 -11 -12q-4 0 -12 1t-12 1t-11.5 -1t-11.5 -1q-8 0 -8 10q0 44 1 132v132q0 69 28 116q6 10 6 17q0 13 -35.5 39
t-35.5 34q0 5 17 16t24 11q6 0 37 -22t43 -22q7 0 23 10q54 34 119 34q93 0 140 -76q39 -62 39 -162v-205q0 -8 1 -25t1 -25z" />
    <glyph glyph-name="o" unicode="o" horiz-adv-x="546" 
d="M491 237q0 -109 -52 -175q-57 -72 -163 -72q-221 0 -221 262q0 53 21.5 108.5t58.5 88.5q17 0 60 29t89 29q110 0 163 -83q44 -70 44 -187zM421 237q0 210 -149 210q-75 0 -115 -65q-33 -55 -33 -135q0 -82 32 -134q39 -63 116 -63q78 0 116 57q33 48 33 130z" />
    <glyph glyph-name="p" unicode="p" horiz-adv-x="594" 
d="M529 252q0 -104 -50 -176q-57 -81 -157 -81q-48 0 -94.5 32t-54.5 32q-16 0 -16 -19v-155q0 -11 2 -32t2 -32q0 -8 -12 -8q-4 0 -13 1.5t-13 1.5t-12.5 -1.5t-12.5 -1.5q-7 0 -7 12t1 35t1 35v345q0 76 37 151q6 12 6 20q0 11 -40.5 43t-40.5 38q0 5 15.5 18t20.5 13
q9 0 48 -29t51 -29q7 0 19 7q60 35 119 35q98 0 153 -81q48 -71 48 -174zM460 252q0 82 -35 133q-41 60 -119 60q-74 0 -113 -67q-32 -55 -32 -135t37 -130q42 -56 119 -56q74 0 112 64q31 52 31 131z" />
    <glyph glyph-name="q" unicode="q" horiz-adv-x="588" 
d="M503 -177q0 -10 -9 -10q-4 0 -12.5 1.5t-12.5 1.5q-5 0 -14.5 -1.5t-14.5 -1.5q-9 0 -9 12t2 36.5t2 36.5v139q0 20 -16 20q-18 0 -65 -33.5t-94 -33.5q-99 0 -151 79q-44 67 -44 172q0 181 124 244q43 22 91 22q103 0 160 -68q5 -6 22 -33q7 -10 13 -10q3 0 8.5 1.5
t8.5 1.5q10 0 10 -12q0 -3 -1.5 -10t-1.5 -10v-469q0 -13 2 -37.5t2 -37.5zM432 250q0 79 -35 133q-40 63 -115 63q-76 0 -115 -63q-32 -53 -32 -134q0 -197 143 -197q76 0 118 63q36 55 36 135z" />
    <glyph glyph-name="r" unicode="r" horiz-adv-x="443" 
d="M388 480q0 -5 -5 -14q-5 -12 -6 -14q-1 -8 -5 -23q-3 -10 -10 -10q-3 0 -25.5 11.5t-45.5 11.5q-71 0 -104 -71q-23 -52 -23 -134v-190q0 -7 2 -20t2 -19q0 -8 -8 -8q-4 0 -12.5 1t-12.5 1t-12 -1t-12 -1q-11 0 -11 11q0 36 1 108v109q0 106 29 159q5 9 5 18
q0 16 -35 41.5t-35 32.5t16.5 17t23.5 10q9 0 36.5 -20t43.5 -20q8 0 24 10q49 31 103 31q18 0 43 -6q33 -9 33 -21z" />
    <glyph glyph-name="s" unicode="s" horiz-adv-x="486" 
d="M421 139q0 -72 -56 -113q-49 -36 -124 -36q-115 0 -164 52q-12 13 -12 19q0 9 20 25q13 27 16 27q4 0 16 -14q43 -49 125 -49q107 0 107 80q0 56 -70 83l-131 45q-70 33 -70 104q0 67 50 107q47 36 116 36q96 0 145 -36q17 -13 17 -19l-14 -26q-4 -8 -7 -17
q-6 -13 -10 -13q-7 0 -15 8q-43 43 -115 43q-38 0 -65 -15q-33 -19 -33 -54q0 -50 71 -75l132 -45q71 -37 71 -117z" />
    <glyph glyph-name="t" unicode="t" horiz-adv-x="479" 
d="M424 472q0 -10 -4 -31q-2 -12 -18 -12h-105q-33 0 -33 -19l1 -357q0 -7 1 -20.5t1 -20.5q0 -12 -10 -12q-4 0 -11.5 1.5t-11.5 1.5q-5 0 -14.5 -1.5t-14.5 -1.5q-9 0 -9 12q0 7 2.5 21.5t2.5 21.5v330q0 44 -29 44h-102q-15 0 -16 8q2 -12 2 21q0 27 -1 18q1 8 13 8h87
q27 0 38 26q3 6 21 54q7 18 17 18h30q9 0 9 -9q0 -11 -1.5 -33t-1.5 -33q0 -23 26 -23h116q15 0 15 -12z" />
    <glyph glyph-name="u" unicode="u" horiz-adv-x="591" 
d="M536 18q0 -6 -17 -17t-24 -11t-36.5 20.5t-42.5 20.5q-7 0 -23 -10q-51 -31 -122 -31q-94 0 -143 75q-41 63 -41 163v221q0 6 -1 18t-1 18q0 11 10 11q9 0 25 -3q14 3 22 3q12 0 12 -10q0 -4 -1 -13t-1 -13v-223q0 -86 27 -128q33 -53 112 -53q139 0 139 187v121
q-1 81 -1 121q0 11 9 11q4 0 12.5 -1.5t12.5 -1.5t13 1.5t13 1.5q7 0 7 -8v-132q-1 -88 -1 -132q0 -75 -22 -120q-6 -12 -6 -18q0 -13 34.5 -37.5t34.5 -30.5z" />
    <glyph glyph-name="v" unicode="v" horiz-adv-x="579" 
d="M524 486q0 -4 -24 -71l-104 -289l-25 -67q-21 -51 -35 -60q-7 -5 -20 -5h-53q-10 0 -17 6q-21 16 -63 129l-105 282q-23 62 -23 76q0 9 10 9h23q4 0 13 2t13 2q9 0 13 -16q3 -11 5.5 -24t7.5 -25l106 -285q34 -92 54 -92q14 0 14 21q0 16 18 66l104 289q3 18 13 53
q5 13 12 13q5 0 15 -2t15 -2h24q9 0 9 -10z" />
    <glyph glyph-name="w" unicode="w" horiz-adv-x="837" 
d="M782 487q0 -5 -11 -34q-12 -33 -13 -38l-75 -289q-12 -47 -18 -66q-16 -47 -31 -58q-9 -7 -25 -7h-45q-19 0 -29 7q-23 16 -57 127l-51 168q-3 11 -12 11q-8 0 -11 -11l-52 -171q-17 -57 -21 -66q-17 -50 -32 -59q-8 -6 -28 -6h-47q-16 0 -25 6q-17 12 -48 128l-75 282
q-21 79 -21 76q0 9 9 9h24q4 0 13 2t14 2q7 0 10 -8q3 -20 11 -57l77 -285q25 -92 51 -92q13 0 13 30q0 16 13 57l79 252q3 9 10 9q6 0 18.5 -2t18.5 -2t19 2t20 2q5 0 8 -10l79 -246q21 -65 21 -70q0 -22 18 -22q8 0 13 5.5t25 81.5l75 289q3 17 11 51q5 14 16 14
q5 0 14 -1.5t14 -1.5h24q9 0 9 -9z" />
    <glyph glyph-name="x" unicode="x" horiz-adv-x="548" 
d="M493 13q0 -7 -33 -10q-21 -11 -28 -11q-10 0 -30 29l-90 133q-32 47 -41 47q-6 0 -38 -45l-95 -134q-21 -30 -38 -30q-7 0 -23 14q-22 8 -22 14l136 185q28 38 28 52q0 11 -18 35l-120 158q-18 24 -18 30t32 12q20 12 26 12q4 0 14 -14l103 -142q29 -40 35 -40q3 0 33 39
l112 144q9 12 16 12q5 0 21 -12q31 -8 31 -13q0 -6 -14 -24l-134 -169q-14 -18 -14 -25q0 -14 28 -53l117 -165l14 -14q10 -10 10 -15z" />
    <glyph glyph-name="y" unicode="y" horiz-adv-x="579" 
d="M524 485q0 -8 -24 -70l-106 -275l-45 -117q-23 -68 -23 -123v-72q0 -15 -12 -15q-4 0 -11 1t-10 1q-4 0 -13 -2t-13 -2q-6 0 -6 9q0 5 1 13.5t1 13.5v53q0 59 -26 125l-52 118l-107 268q-23 58 -23 76q0 9 9 9h25q4 0 13 2t13 2q9 0 13 -14q2 -10 3 -21q3 -16 9 -30
l108 -271l20 -52q18 -40 32 -40t14 28q0 17 16 59l106 275l8 38q7 26 21 26q8 0 25 -1t25.5 -1t8.5 -11z" />
    <glyph glyph-name="z" unicode="z" horiz-adv-x="534" 
d="M469 456q0 -23 -28 -47l-271 -236q-49 -43 -49 -71q0 -41 85 -41h186q23 0 39 4q27 7 20 7q7 0 7 -10q0 -4 -1.5 -13t-1.5 -13t1.5 -13t1.5 -13q0 -10 -24 -10h-243q-52 0 -89 28.5t-37 79.5q0 58 54 105l218 189q34 29 34 37q0 3 -6 3q-8 0 -23.5 -3t-23.5 -3h-149
q-30 0 -53 -5q-29 -6 -25 -6q-3 0 -3 6q0 5 1.5 14t1.5 14q0 4 -1 12.5t-1 12.5q0 12 16 12h314q50 0 50 -40z" />
    <glyph glyph-name="braceleft" unicode="{" horiz-adv-x="370" 
d="M310 -134q0 5 -6 -20q-5 -21 -6.5 -22t-25.5 -1q-76 0 -119 47t-43 124q0 53 37 122.5t37 73.5q0 12 -17 18l-90 32q-7 2 -7 11v27q0 7 7 10l78 28q29 10 29 22q0 6 -37 74.5t-37 121.5q0 78 43 124.5t120 46.5q23 0 25 -2q2 -11 5 -22q6 -25 6 -21q0 -3 -23 -3
q-118 0 -118 -116q0 -43 38 -118.5t38 -95.5q0 -18 -15 -23l-74 -27q-15 -5 -15 -12t15 -13l72 -27q17 -6 17 -21q0 -24 -38 -98t-38 -118q0 -117 109 -117h15q9 1 14 1q4 0 4 -6z" />
    <glyph glyph-name="bar" unicode="|" horiz-adv-x="265" 
d="M165 7q0 -7 -6 -7h-23q-7 0 -17.5 -3t-14.5 -3t-4 14q0 17 1.5 52t1.5 53l-1 573q0 5 6 5q4 0 13 -1t13 -1t11.5 1t11.5 1q5 0 5 -14q0 -12 -1 -35t-1 -35v-564q0 -7 2.5 -19t2.5 -17z" />
    <glyph glyph-name="braceright" unicode="}" horiz-adv-x="370" 
d="M300 251q0 -7 -7 -10l-78 -28q-29 -10 -29 -22q0 -6 37 -74.5t37 -121.5q0 -78 -43 -124.5t-120 -46.5q-23 0 -25 2q-2 11 -5 22q-6 25 -6 21q0 3 23 3q118 0 118 116q0 43 -38 118.5t-38 95.5q0 18 15 23l74 27q15 5 15 12t-15 13l-72 27q-17 6 -17 21q0 24 38 98
t38 118q0 117 -109 117h-15q-9 -1 -14 -1q-4 0 -4 6q0 -5 6 20q5 21 6.5 22t25.5 1q76 0 119 -47t43 -124q0 -53 -37 -122.5t-37 -73.5q0 -12 17 -18l90 -32q7 -2 7 -11v-27z" />
    <glyph glyph-name="asciitilde" unicode="~" horiz-adv-x="505" 
d="M425 341q0 -48 -24 -80q-27 -35 -74 -35q-30 0 -80.5 36.5t-69.5 36.5q-35 0 -40 -54q-2 -20 -11 -20q-3 0 -8 1t-8 1t-8 -1h-8q-14 0 -14 8q0 53 24 86q27 38 77 38q29 0 79 -37t69 -37q35 0 40 55q2 20 10 20q3 0 8.5 -1t8.5 -1t8.5 1t8.5 1q12 0 12 -18z" />
    <glyph glyph-name="Adieresis" unicode="&#xc4;" 
d="M415 745q0 -10 -9 -10h-55q-11 0 -11 12q0 5 1 14t1 14q0 4 -1 11t-1 10q0 13 10 13h55q10 0 10 -11q0 -4 -1.5 -12t-1.5 -12q0 -5 1.5 -14.5t1.5 -14.5zM271 745q0 -10 -9 -10h-55q-11 0 -11 12q0 5 1 14t1 14q0 4 -1 11t-1 10q0 13 10 13h55q10 0 10 -11q0 -4 -1.5 -12
t-1.5 -12q0 -5 1.5 -14.5t1.5 -14.5zM578 10q0 -9 -6 -9h-35q-5 0 -15.5 -2.5t-15.5 -2.5q-8 0 -8 10q0 23 -7 46l-52 171q-4 14 -9 27t-23 13q-7 0 -21 -5.5t-22 -5.5h-148q-19 0 -25.5 -4.5t-11.5 -21.5l-54 -182q-4 -21 -11 -45q-1 -2 -5 -2q-5 0 -15 2t-15 2h-31
q-8 0 -8 9q0 2 13 44l162 521l18 58q15 45 25 54q6 5 17 5q5 0 16 -1.5t16 -1.5t16 1t17 1q13 0 19 -5q10 -9 46 -120l154 -479q19 -59 19 -77zM406 321q0 6 -3 15l-67 209q-24 76 -38 76h-2q-4 0 -5 -2q-1 -11 -3 -25q-4 -19 -11 -44q-67 -223 -67 -226q0 -11 18 -11h161
q17 0 17 8z" />
    <glyph glyph-name="Aring" unicode="&#xc5;" 
d="M406 321q0 6 -3 15l-67 209q-24 76 -40 76q-4 0 -5 -2q-1 -10 -3.5 -26t-10.5 -43q-67 -223 -67 -226q0 -11 18 -11h161q17 0 17 8zM414 752q0 -55 -44 -85q8 -17 35 -101l154 -479q19 -59 19 -77q0 -9 -6 -9h-35q-5 0 -15.5 -2.5t-15.5 -2.5q-8 0 -8 10q0 23 -7 46
l-52 171q-4 14 -9 27t-23 13q-7 0 -21 -5.5t-22 -5.5h-148q-19 0 -25.5 -4.5t-11.5 -21.5l-54 -182q-4 -21 -11 -45q-1 -2 -5 -2q-5 0 -15 2t-15 2h-31q-8 0 -8 9q0 2 13 44l162 521q9 31 30 91q-43 30 -43 86q0 45 30.5 74t75.5 29t75.5 -28.5t30.5 -74.5zM367 752
q0 26 -16.5 42.5t-42.5 16.5q-27 0 -43.5 -16t-16.5 -43q0 -26 17 -43t43 -17q25 0 42 17t17 43z" />
    <glyph glyph-name="Ccedilla" unicode="&#xc7;" horiz-adv-x="599" 
d="M529 75q0 -13 -11 -13q-4 0 -13 1.5t-13 1.5q-12 0 -20 -7.5l-23 -21.5q-49 -40 -127 -45q-2 -12 -2 -16q0 -10 13 -10q36 0 60 -20t24 -55q0 -88 -112 -88q-53 0 -81 12q-10 4 -10 17v54q0 6 3 6q4 0 7 -5q17 -32 70 -32q59 0 59 39q0 37 -60 37q-5 0 -14 -1t-14 -1
q-8 0 -8 14q0 -2 7 50q-126 12 -177 127q-37 82 -37 230q0 144 52 237q65 116 197 116q54 0 87 -11q39 -13 75 -48q10 -10 22 -10q-25 1 26 1q10 0 10 -12q0 -10 -1 -30t-1 -30q0 -11 1 -32.5t1 -32.5t-10 -11q-4 0 -11.5 1t-11.5 1q-3 0 -10 -1t-11 -1q-9 0 -9 12
q0 63 -43.5 103t-106.5 40q-101 0 -147 -102q-34 -74 -34 -190q0 -129 29 -197q43 -99 153 -99q70 0 113 37.5t43 106.5q0 14 9 14q4 0 11.5 -1.5t11.5 -1.5t13 1.5t13 1.5q8 0 8 -13q0 -9 -1.5 -28t-1.5 -28q0 -11 1.5 -33.5t1.5 -33.5z" />
    <glyph glyph-name="Eacute" unicode="&#xc9;" horiz-adv-x="583" 
d="M429 841q0 -4 -26 -30q-35 -34 -52 -54q-27 -33 -39 -33h-43q-4 0 -4 2v2l18 22l59 81q11 14 19 14q10 0 28 -1h28q12 0 12 -3zM518 10q0 -12 -12 -12q-23 0 -70 1t-71 1h-270q-10 0 -10 8q0 9 3 26t3 26v587q0 25 9.5 34.5t33.5 9.5h343q11 0 11 -8q0 -5 -1.5 -14.5
t-1.5 -14.5t1 -13.5t1 -13.5q0 -10 -11 -10q-14 0 -42 3t-42 3h-211q-22 0 -22 -8q0 -4 1.5 -11.5t1.5 -11.5v-179q0 -21 22 -21h212q12 0 12 -10q0 -4 -1 -12t-1 -12t1 -12.5t1 -12.5q0 -9 -11 -9h-209q-26 0 -26 -28v-195q0 -21 7 -27t26 -6h226q20 0 24 10q2 4 3 28l2 34
q1 12 8 12q5 0 14 -1t14 -1q4 0 12.5 1t12.5 1q7 0 7 -7q0 -10 -1 -30t-1 -30q0 -13 1 -37.5t1 -37.5z" />
    <glyph glyph-name="Ntilde" unicode="&#xd1;" horiz-adv-x="651" 
d="M500 849q0 -49 -24 -80q-27 -35 -74 -35q-30 0 -80.5 36.5t-69.5 36.5q-34 0 -40 -54q-2 -20 -11 -20q-2 0 -7.5 1t-8.5 1q-2 0 -8 -1h-8q-14 0 -14 8q0 53 24 86q27 38 77 38q30 0 79.5 -37t68.5 -37q35 0 40 55q2 20 10 20q3 0 9 -1t8 -1q3 0 9 1t8 1q12 0 12 -18z
M566 13q0 -13 -8 -13q-5 0 -15.5 1t-15.5 1q-4 0 -13 -2t-13 -2q-8 0 -8 13q0 32 -7 51q-6 16 -25 44l-284 416q-7 10 -14 38q-3 13 -5 13q-7 0 -7 -27v-511q0 -5 1 -14t1 -13q0 -8 -7 -8t-25 4q-18 -4 -25 -4q-9 0 -9 17v620q0 8 -1 23t-1 22q0 9 9 9h59q3 0 11 -14
q4 -8 9 -17l310 -463l13 -20q5 0 5 33l-1 463q0 18 11 18q4 0 11 -1t11 -1t11 1t11 1q11 0 11 -10v-31q-1 -21 -1 -32z" />
    <glyph glyph-name="Odieresis" unicode="&#xd6;" 
d="M421 745q0 -10 -9 -10h-55q-11 0 -11 12q0 5 1 14t1 14q0 4 -1 11t-1 10q0 13 10 13h55q10 0 10 -11q0 -4 -1.5 -12t-1.5 -12q0 -5 1.5 -14.5t1.5 -14.5zM277 745q0 -10 -9 -10h-55q-11 0 -11 12q0 5 1 14t1 14q0 4 -1 11t-1 10q0 13 10 13h55q10 0 10 -11q0 -4 -1.5 -12
t-1.5 -12q0 -5 1.5 -14.5t1.5 -14.5zM568 340q0 -150 -56 -240q-68 -110 -207 -110q-255 0 -255 350q0 72 23 156q27 94 68 140q27 1 78 33.5t102 32.5q247 0 247 -362zM492 340q0 299 -176 299q-106 0 -155 -101q-36 -76 -36 -195q0 -289 183 -289q101 0 148 98
q36 75 36 188z" />
    <glyph glyph-name="Udieresis" unicode="&#xdc;" horiz-adv-x="648" 
d="M431 745q0 -10 -9 -10h-55q-11 0 -11 12q0 5 1 14t1 14q0 4 -1 11t-1 10q0 13 10 13h55q10 0 10 -11q0 -4 -1.5 -12t-1.5 -12q0 -5 1.5 -14.5t1.5 -14.5zM287 745q0 -10 -9 -10h-55q-11 0 -11 12q0 5 1 14t1 14q0 4 -1 11t-1 10q0 13 10 13h55q10 0 10 -11q0 -4 -1.5 -12
t-1.5 -12q0 -5 1.5 -14.5t1.5 -14.5zM573 682q0 -5 -1.5 -16t-1.5 -17v-342q0 -150 -50 -226q-61 -91 -202 -91q-138 0 -194 87q-45 71 -45 220v340q0 8 -2 23.5t-2 23.5t7 7l35 -4q5 0 15 1.5t14 1.5q7 -3 7 -6q0 -12 -1.5 -37t-1.5 -37v-297q0 -190 81 -234q35 -19 93 -19
q103 0 144 79q30 58 30 173v327q0 9 -3.5 24.5t-3.5 21.5t9 6q6 0 17.5 -1t17.5 -1h15q11 1 16 1q7 0 7 -8z" />
    <glyph glyph-name="aacute" unicode="&#xe1;" horiz-adv-x="530" 
d="M345 695q0 -3 -4 -11l-50 -98q-10 -21 -23 -45q-3 -2 -9 -2h-33q-8 0 -8 6q6 13 13 30l35 109q6 19 13 19h9q7 -1 10 -1h33q14 0 14 -7zM445 316q0 -32 -2.5 -97t-2.5 -97v-87q0 -12 -10 -12q-6 0 -17.5 1t-17.5 1q-8 0 -28 -9q-26 -11 -29 -12q-43 -14 -105 -14
q-158 0 -158 133q0 61 48 95q42 30 106 30q29 0 67 -8q45 -10 57 -10q11 0 17 5q11 10 11 82q0 56 -36.5 91t-92.5 35q-73 0 -127 -36q-6 -4 -9 -4q-7 0 -7 9q0 5 1 14.5t1 14.5q0 4 -1 13t-1 13t5 8q39 32 144 32q89 0 138 -51t49 -140zM380 163q0 22 -9 26q-4 1 -32 1h-93
q-102 0 -102 -73q0 -71 105 -71q66 0 98.5 26.5t32.5 90.5z" />
    <glyph glyph-name="agrave" unicode="&#xe0;" horiz-adv-x="530" 
d="M300 545q0 -6 -8 -6h-33q-6 0 -7.5 1t-24.5 46l-50 98q-4 8 -4 11q0 7 14 7h33q3 0 10 1h9q7 0 13 -19l35 -109q7 -15 13 -30zM445 316q0 -32 -2.5 -97t-2.5 -97v-87q0 -12 -10 -12q-6 0 -17.5 1t-17.5 1q-8 0 -28 -9q-26 -11 -29 -12q-43 -14 -105 -14q-158 0 -158 133
q0 61 48 95q42 30 106 30q29 0 67 -8q45 -10 57 -10q11 0 17 5q11 10 11 82q0 56 -36.5 91t-92.5 35q-73 0 -127 -36q-6 -4 -9 -4q-7 0 -7 9q0 5 1 14.5t1 14.5q0 4 -1 13t-1 13t5 8q39 32 144 32q89 0 138 -51t49 -140zM380 163q0 22 -9 26q-4 1 -32 1h-93q-102 0 -102 -73
q0 -71 105 -71q66 0 98.5 26.5t32.5 90.5z" />
    <glyph glyph-name="acircumflex" unicode="&#xe2;" horiz-adv-x="530" 
d="M426 545q0 -6 -14 -6h-45q-10 0 -19 10t-17 20l-53 59q-13 14 -21 14t-21 -14l-59 -62q-7 -9 -15 -18t-17 -9h-45q-10 0 -10 6q0 5 12 18l100 108q29 31 31 31h50q6 0 11 -7l7 -12l114 -122q11 -12 11 -16zM445 316q0 -32 -2.5 -97t-2.5 -97v-87q0 -12 -10 -12
q-6 0 -17.5 1t-17.5 1q-8 0 -28 -9q-26 -11 -29 -12q-43 -14 -105 -14q-158 0 -158 133q0 61 48 95q42 30 106 30q29 0 67 -8q45 -10 57 -10q11 0 17 5q11 10 11 82q0 56 -36.5 91t-92.5 35q-73 0 -127 -36q-6 -4 -9 -4q-7 0 -7 9q0 5 1 14.5t1 14.5q0 4 -1 13t-1 13t5 8
q39 32 144 32q89 0 138 -51t49 -140zM380 163q0 22 -9 26q-4 1 -32 1h-93q-102 0 -102 -73q0 -71 105 -71q66 0 98.5 26.5t32.5 90.5z" />
    <glyph glyph-name="adieresis" unicode="&#xe4;" horiz-adv-x="530" 
d="M369 592q0 -10 -9 -10h-55q-11 0 -11 12q0 5 1 14t1 14q0 4 -1 10.5t-1 10.5q0 13 10 13h55q10 0 10 -11q0 -4 -1.5 -12t-1.5 -12q0 -5 1.5 -14.5t1.5 -14.5zM225 592q0 -10 -9 -10h-55q-11 0 -11 12q0 5 1 14t1 14q0 4 -1 10.5t-1 10.5q0 13 10 13h55q10 0 10 -11
q0 -4 -1.5 -12t-1.5 -12q0 -5 1.5 -14.5t1.5 -14.5zM445 316q0 -32 -2.5 -97t-2.5 -97v-87q0 -12 -10 -12q-6 0 -17.5 1t-17.5 1q-8 0 -28 -9q-26 -11 -29 -12q-43 -14 -105 -14q-158 0 -158 133q0 61 48 95q42 30 106 30q29 0 67 -8q45 -10 57 -10q11 0 17 5q11 10 11 82
q0 56 -36.5 91t-92.5 35q-73 0 -127 -36q-6 -4 -9 -4q-7 0 -7 9q0 5 1 14.5t1 14.5q0 4 -1 13t-1 13t5 8q39 32 144 32q89 0 138 -51t49 -140zM380 163q0 22 -9 26q-4 1 -32 1h-93q-102 0 -102 -73q0 -71 105 -71q66 0 98.5 26.5t32.5 90.5z" />
    <glyph glyph-name="atilde" unicode="&#xe3;" horiz-adv-x="530" 
d="M435 665q0 -48 -24 -80q-27 -35 -74 -35q-30 0 -80.5 36.5t-69.5 36.5q-35 0 -40 -54q-2 -20 -11 -20q-3 0 -8 1t-8 1t-8 -1h-8q-14 0 -14 8q0 53 24 86q27 38 77 38q29 0 79 -37t69 -37q35 0 40 55q2 20 10 20q3 0 8.5 -1t8.5 -1t8.5 1t8.5 1q12 0 12 -18zM445 316
q0 -32 -2.5 -97t-2.5 -97v-87q0 -12 -10 -12q-6 0 -17.5 1t-17.5 1q-8 0 -28 -9q-26 -11 -29 -12q-43 -14 -105 -14q-158 0 -158 133q0 61 48 95q42 30 106 30q29 0 67 -8q45 -10 57 -10q11 0 17 5q11 10 11 82q0 56 -36.5 91t-92.5 35q-73 0 -127 -36q-6 -4 -9 -4
q-7 0 -7 9q0 5 1 14.5t1 14.5q0 4 -1 13t-1 13t5 8q39 32 144 32q89 0 138 -51t49 -140zM380 163q0 22 -9 26q-4 1 -32 1h-93q-102 0 -102 -73q0 -71 105 -71q66 0 98.5 26.5t32.5 90.5z" />
    <glyph glyph-name="aring" unicode="&#xe5;" horiz-adv-x="530" 
d="M364 647q0 -45 -30.5 -74.5t-75.5 -29.5q-46 0 -76 29t-30 75q0 45 30.5 74t75.5 29q46 0 76 -29t30 -74zM445 316q0 -32 -2.5 -97t-2.5 -97v-87q0 -12 -10 -12q-6 0 -17.5 1t-17.5 1q-8 0 -28 -9q-26 -11 -29 -12q-43 -14 -105 -14q-158 0 -158 133q0 61 48 95
q42 30 106 30q29 0 67 -8q45 -10 57 -10q11 0 17 5q11 10 11 82q0 56 -36.5 91t-92.5 35q-73 0 -127 -36q-6 -4 -9 -4q-7 0 -7 9q0 5 1 14.5t1 14.5q0 4 -1 13t-1 13t5 8q39 32 144 32q89 0 138 -51t49 -140zM317 647q0 26 -16.5 42.5t-42.5 16.5q-27 0 -43.5 -16.5
t-16.5 -42.5t17 -43t43 -17t42.5 17t16.5 43zM380 163q0 22 -9 26q-4 1 -32 1h-93q-102 0 -102 -73q0 -71 105 -71q66 0 98.5 26.5t32.5 90.5z" />
    <glyph glyph-name="ccedilla" unicode="&#xe7;" horiz-adv-x="531" 
d="M461 121v-33q-1 -22 -1 -32t-7 -16q-53 -47 -161 -50q-2 -11 -2 -15q0 -10 13 -10q36 0 60 -20t24 -55q0 -88 -112 -88q-53 0 -81 12q-10 4 -10 17v54q0 6 3 6q4 0 7 -5q16 -32 70 -32q59 0 59 39q0 37 -60 37q-5 0 -14 -1t-14 -1q-8 0 -8 14q0 -1 7 52q-164 30 -164 253
q0 109 52 180q59 80 163 80q110 0 164 -79q7 -10 7 -15t-25 -24q-17 -27 -20 -27q-5 0 -8.5 6.5l-12.5 22.5q-40 56 -106 56q-77 0 -115 -65q-30 -52 -30 -135q0 -85 33 -135q38 -59 118 -59q43 0 87 18.5t70 49.5q5 6 10 6q4 0 4 -6z" />
    <glyph glyph-name="eacute" unicode="&#xe9;" horiz-adv-x="556" 
d="M386 695q0 -3 -4 -11l-50 -98q-10 -21 -23 -45q-3 -2 -9 -2h-33q-8 0 -8 6q6 13 13 30l35 109q6 19 13 19h9q6 -1 10 -1h33q14 0 14 -7zM471 332q0 -28 -6 -50t-33 -22h-263q-35 0 -35 -23q0 -80 42 -129q44 -53 122 -53q97 0 150 61q7 8 13 8t6 -10q0 -5 -1.5 -15
t-1.5 -15t1 -16t1 -16t-6 -11q-52 -51 -163 -51q-117 0 -177 74q-55 69 -55 188q0 106 55 177q61 78 163 78q81 0 134 -46q54 -49 54 -129zM403 348q0 46 -36.5 74t-83.5 28q-56 0 -98.5 -38t-42.5 -93q0 -16 9 -16q5 0 14.5 5t14.5 5h196q19 0 24 8q3 5 3 27z" />
    <glyph glyph-name="egrave" unicode="&#xe8;" horiz-adv-x="556" 
d="M340 545q0 -6 -8 -6h-33q-6 0 -7.5 1t-24.5 46l-50 98q-4 8 -4 11q0 7 14 7h33q3 0 10 1h9q7 0 13 -19l35 -109q7 -15 13 -30zM471 332q0 -28 -6 -50t-33 -22h-263q-35 0 -35 -23q0 -80 42 -129q44 -53 122 -53q97 0 150 61q7 8 13 8t6 -10q0 -5 -1.5 -15t-1.5 -15t1 -16
t1 -16t-6 -11q-52 -51 -163 -51q-117 0 -177 74q-55 69 -55 188q0 106 55 177q61 78 163 78q81 0 134 -46q54 -49 54 -129zM403 348q0 46 -36.5 74t-83.5 28q-56 0 -98.5 -38t-42.5 -93q0 -16 9 -16q5 0 14.5 5t14.5 5h196q19 0 24 8q3 5 3 27z" />
    <glyph glyph-name="ecircumflex" unicode="&#xea;" horiz-adv-x="556" 
d="M456 545q0 -6 -14 -6h-45q-10 0 -19 10t-17 20l-53 59q-13 14 -21 14t-21 -14l-59 -62q-7 -9 -15 -18t-17 -9h-45q-10 0 -10 6q0 5 12 18l100 108q29 31 31 31h50q6 0 11 -7l7 -12l114 -122q11 -12 11 -16zM471 332q0 -28 -6 -50t-33 -22h-263q-35 0 -35 -23
q0 -80 42 -129q44 -53 122 -53q97 0 150 61q7 8 13 8t6 -10q0 -5 -1.5 -15t-1.5 -15t1 -16t1 -16t-6 -11q-52 -51 -163 -51q-117 0 -177 74q-55 69 -55 188q0 106 55 177q61 78 163 78q81 0 134 -46q54 -49 54 -129zM403 348q0 46 -36.5 74t-83.5 28q-56 0 -98.5 -38
t-42.5 -93q0 -16 9 -16q5 0 14.5 5t14.5 5h196q19 0 24 8q3 5 3 27z" />
    <glyph glyph-name="edieresis" unicode="&#xeb;" horiz-adv-x="556" 
d="M399 592q0 -10 -9 -10h-55q-11 0 -11 12q0 5 1 14t1 14q0 4 -1 10.5t-1 10.5q0 13 10 13h55q10 0 10 -11q0 -4 -1.5 -12t-1.5 -12q0 -5 1.5 -14.5t1.5 -14.5zM255 592q0 -10 -9 -10h-55q-11 0 -11 12q0 5 1 14t1 14q0 4 -1 10.5t-1 10.5q0 13 10 13h55q10 0 10 -11
q0 -4 -1.5 -12t-1.5 -12q0 -5 1.5 -14.5t1.5 -14.5zM471 332q0 -28 -6 -50t-33 -22h-263q-35 0 -35 -23q0 -80 42 -129q44 -53 122 -53q97 0 150 61q7 8 13 8t6 -10q0 -5 -1.5 -15t-1.5 -15t1 -16t1 -16t-6 -11q-52 -51 -163 -51q-117 0 -177 74q-55 69 -55 188
q0 106 55 177q61 78 163 78q81 0 134 -46q54 -49 54 -129zM403 348q0 46 -36.5 74t-83.5 28q-56 0 -98.5 -38t-42.5 -93q0 -16 9 -16q5 0 14.5 5t14.5 5h196q19 0 24 8q3 5 3 27z" />
    <glyph glyph-name="iacute" unicode="&#xed;" horiz-adv-x="269" 
d="M219 695q0 -3 -4 -11l-50 -98q-9 -21 -23 -45q-3 -2 -9 -2h-33q-8 0 -8 6q6 13 13 30l35 109q6 19 13 19h9q7 -1 10 -1h33q14 0 14 -7zM174 10q0 -10 -7 -10q-5 0 -15 1.5t-15 1.5q-4 0 -13 -1.5t-14 -1.5q-6 0 -7.5 6t-0.5 16q1 14 1 13v383q0 10 -1.5 31t-1.5 32
q0 15 11 15q6 0 24 -3q15 3 23 3q12 0 12 -10q0 -5 -1.5 -15t-1.5 -15v-371q0 -24 3 -48z" />
    <glyph glyph-name="igrave" unicode="&#xec;" horiz-adv-x="269" 
d="M181 545q0 -6 -8 -6h-33q-6 0 -7.5 1t-24.5 46l-50 98q-4 8 -4 11q0 7 14 7h33q3 0 9 1h10q7 0 13 -19l35 -109q6 -15 13 -30zM174 10q0 -10 -7 -10q-5 0 -15 1.5t-15 1.5q-4 0 -13 -1.5t-14 -1.5q-6 0 -7.5 6t-0.5 16q1 14 1 13v383q0 10 -1.5 31t-1.5 32q0 15 11 15
q6 0 24 -3q15 3 23 3q12 0 12 -10q0 -5 -1.5 -15t-1.5 -15v-371q0 -24 3 -48z" />
    <glyph glyph-name="icircumflex" unicode="&#xee;" horiz-adv-x="269" 
d="M306 545q0 -6 -14 -6h-45q-10 0 -19 10t-17 20l-53 59q-13 14 -21 14t-21 -14l-59 -62q-7 -9 -15 -18t-17 -9h-45q-10 0 -10 6q0 5 12 18l100 108q29 31 31 31h50q6 0 11 -7l7 -12l114 -122q11 -12 11 -16zM174 10q0 -10 -7 -10q-5 0 -15 1.5t-15 1.5q-4 0 -13 -1.5
t-14 -1.5q-6 0 -7.5 6t-0.5 16q1 14 1 13v383q0 10 -1.5 31t-1.5 32q0 15 11 15q6 0 24 -3q15 3 23 3q12 0 12 -10q0 -5 -1.5 -15t-1.5 -15v-371q0 -24 3 -48z" />
    <glyph glyph-name="idieresis" unicode="&#xef;" horiz-adv-x="269" 
d="M245 592q0 -10 -9 -10h-55q-11 0 -11 12q0 5 1 14t1 14q0 4 -1 10.5t-1 10.5q0 13 10 13h55q10 0 10 -11q0 -4 -1.5 -12t-1.5 -12q0 -5 1.5 -14.5t1.5 -14.5zM101 592q0 -10 -9 -10h-55q-11 0 -11 12q0 5 1 14t1 14q0 4 -1 10.5t-1 10.5q0 13 10 13h55q10 0 10 -11
q0 -4 -1.5 -12t-1.5 -12q0 -5 1.5 -14.5t1.5 -14.5zM174 10q0 -10 -7 -10q-5 0 -15 1.5t-15 1.5q-4 0 -13 -1.5t-14 -1.5q-6 0 -7.5 6t-0.5 16q1 14 1 13v383q0 10 -1.5 31t-1.5 32q0 15 11 15q6 0 24 -3q15 3 23 3q12 0 12 -10q0 -5 -1.5 -15t-1.5 -15v-371q0 -24 3 -48z
" />
    <glyph glyph-name="ntilde" unicode="&#xf1;" horiz-adv-x="584" 
d="M477 675q0 -48 -24 -80q-27 -35 -74 -35q-30 0 -80.5 36.5t-69.5 36.5q-35 0 -40 -54q-2 -20 -11 -20q-3 0 -8 1t-8 1t-8 -1h-8q-14 0 -14 8q0 53 24 86q27 38 77 38q29 0 79 -37t69 -37q35 0 40 55q2 20 10 20q3 0 8.5 -1t8.5 -1t8.5 1t8.5 1q12 0 12 -18zM509 14
q0 -14 -11 -14q-7 0 -22 3q-17 -3 -23 -3q-11 0 -11 13q0 5 1 15v15v217q0 86 -25 130q-32 57 -110 57q-142 0 -142 -189q0 -41 1 -123v-123q0 -12 -11 -12q-4 0 -12 1t-12 1t-11.5 -1t-11.5 -1q-8 0 -8 10q0 44 1 132v132q0 69 28 116q6 10 6 17q0 13 -35.5 39t-35.5 34
q0 5 17 16t24 11q6 0 37 -22t43 -22q7 0 23 10q54 34 119 34q93 0 140 -76q39 -62 39 -162v-205q0 -8 1 -25t1 -25z" />
    <glyph glyph-name="oacute" unicode="&#xf3;" horiz-adv-x="546" 
d="M365 695q0 -3 -4 -11l-50 -98q-10 -21 -23 -45q-3 -2 -9 -2h-33q-8 0 -8 6q6 13 13 30l35 109q6 19 13 19h9q7 -1 10 -1h33q14 0 14 -7zM491 237q0 -109 -52 -175q-57 -72 -163 -72q-221 0 -221 262q0 53 21.5 108.5t58.5 88.5q17 0 60 29t89 29q110 0 163 -83
q44 -70 44 -187zM421 237q0 210 -149 210q-75 0 -115 -65q-33 -55 -33 -135q0 -82 32 -134q39 -63 116 -63q78 0 116 57q33 48 33 130z" />
    <glyph glyph-name="ograve" unicode="&#xf2;" horiz-adv-x="546" 
d="M320 545q0 -6 -8 -6h-33q-6 0 -7.5 1t-24.5 46l-50 98q-4 8 -4 11q0 7 14 7h33q3 0 10 1h9q7 0 13 -19l35 -109q7 -15 13 -30zM491 237q0 -109 -52 -175q-57 -72 -163 -72q-221 0 -221 262q0 53 21.5 108.5t58.5 88.5q17 0 60 29t89 29q110 0 163 -83q44 -70 44 -187z
M421 237q0 210 -149 210q-75 0 -115 -65q-33 -55 -33 -135q0 -82 32 -134q39 -63 116 -63q78 0 116 57q33 48 33 130z" />
    <glyph glyph-name="ocircumflex" unicode="&#xf4;" horiz-adv-x="546" 
d="M446 545q0 -6 -14 -6h-45q-10 0 -19 10t-17 20l-53 59q-13 14 -21 14t-21 -14l-59 -62q-7 -9 -15 -18t-17 -9h-45q-10 0 -10 6q0 5 12 18l100 108q29 31 31 31h50q6 0 11 -7l7 -12l114 -122q11 -12 11 -16zM491 237q0 -109 -52 -175q-57 -72 -163 -72q-221 0 -221 262
q0 53 21.5 108.5t58.5 88.5q17 0 60 29t89 29q110 0 163 -83q44 -70 44 -187zM421 237q0 210 -149 210q-75 0 -115 -65q-33 -55 -33 -135q0 -82 32 -134q39 -63 116 -63q78 0 116 57q33 48 33 130z" />
    <glyph glyph-name="odieresis" unicode="&#xf6;" horiz-adv-x="546" 
d="M389 592q0 -10 -9 -10h-55q-11 0 -11 12q0 5 1 14t1 14q0 4 -1 10.5t-1 10.5q0 13 10 13h55q10 0 10 -11q0 -4 -1.5 -12t-1.5 -12q0 -5 1.5 -14.5t1.5 -14.5zM245 592q0 -10 -9 -10h-55q-11 0 -11 12q0 5 1 14t1 14q0 4 -1 10.5t-1 10.5q0 13 10 13h55q10 0 10 -11
q0 -4 -1.5 -12t-1.5 -12q0 -5 1.5 -14.5t1.5 -14.5zM491 237q0 -109 -52 -175q-57 -72 -163 -72q-221 0 -221 262q0 53 21.5 108.5t58.5 88.5q17 0 60 29t89 29q110 0 163 -83q44 -70 44 -187zM421 237q0 210 -149 210q-75 0 -115 -65q-33 -55 -33 -135q0 -82 32 -134
q39 -63 116 -63q78 0 116 57q33 48 33 130z" />
    <glyph glyph-name="otilde" unicode="&#xf5;" horiz-adv-x="546" 
d="M451 675q0 -48 -24 -80q-27 -35 -74 -35q-30 0 -80.5 36.5t-69.5 36.5q-35 0 -40 -54q-2 -20 -11 -20q-3 0 -8 1t-8 1t-8 -1h-8q-14 0 -14 8q0 53 24 86q27 38 77 38q29 0 79 -37t69 -37q35 0 40 55q2 20 10 20q3 0 8.5 -1t8.5 -1t8.5 1t8.5 1q12 0 12 -18zM491 237
q0 -109 -52 -175q-57 -72 -163 -72q-221 0 -221 262q0 53 21.5 108.5t58.5 88.5q17 0 60 29t89 29q110 0 163 -83q44 -70 44 -187zM421 237q0 210 -149 210q-75 0 -115 -65q-33 -55 -33 -135q0 -82 32 -134q39 -63 116 -63q78 0 116 57q33 48 33 130z" />
    <glyph glyph-name="uacute" unicode="&#xfa;" horiz-adv-x="591" 
d="M375 695q0 -3 -4 -11l-50 -98q-10 -21 -23 -45q-3 -2 -9 -2h-33q-8 0 -8 6q6 13 13 30l35 109q6 19 13 19h9q7 -1 10 -1h33q14 0 14 -7zM536 18q0 -6 -17 -17t-24 -11t-36.5 20.5t-42.5 20.5q-7 0 -23 -10q-51 -31 -122 -31q-94 0 -143 75q-41 63 -41 163v221q0 6 -1 18
t-1 18q0 11 10 11q9 0 25 -3q14 3 22 3q12 0 12 -10q0 -4 -1 -13t-1 -13v-223q0 -86 27 -128q33 -53 112 -53q139 0 139 187v121q-1 81 -1 121q0 11 9 11q4 0 12.5 -1.5t12.5 -1.5t13 1.5t13 1.5q7 0 7 -8v-132q-1 -88 -1 -132q0 -75 -22 -120q-6 -12 -6 -18
q0 -13 34.5 -37.5t34.5 -30.5z" />
    <glyph glyph-name="ugrave" unicode="&#xf9;" horiz-adv-x="591" 
d="M330 545q0 -6 -8 -6h-33q-6 0 -7.5 1t-24.5 46l-50 98q-4 8 -4 11q0 7 14 7h33q3 0 10 1h9q7 0 13 -19l35 -109q7 -15 13 -30zM536 18q0 -6 -17 -17t-24 -11t-36.5 20.5t-42.5 20.5q-7 0 -23 -10q-51 -31 -122 -31q-94 0 -143 75q-41 63 -41 163v221q0 6 -1 18t-1 18
q0 11 10 11q9 0 25 -3q14 3 22 3q12 0 12 -10q0 -4 -1 -13t-1 -13v-223q0 -86 27 -128q33 -53 112 -53q139 0 139 187v121q-1 81 -1 121q0 11 9 11q4 0 12.5 -1.5t12.5 -1.5t13 1.5t13 1.5q7 0 7 -8v-132q-1 -88 -1 -132q0 -75 -22 -120q-6 -12 -6 -18q0 -13 34.5 -37.5
t34.5 -30.5z" />
    <glyph glyph-name="ucircumflex" unicode="&#xfb;" horiz-adv-x="591" 
d="M459 555q0 -6 -14 -6h-45q-10 0 -19 10t-17 20l-53 59q-13 14 -21 14t-21 -14l-59 -62q-7 -9 -15 -18t-17 -9h-45q-10 0 -10 6q0 5 12 18l100 108q29 31 31 31h50q6 0 11 -7l7 -12l114 -122q11 -12 11 -16zM536 18q0 -6 -17 -17t-24 -11t-36.5 20.5t-42.5 20.5
q-7 0 -23 -10q-51 -31 -122 -31q-94 0 -143 75q-41 63 -41 163v221q0 6 -1 18t-1 18q0 11 10 11q9 0 25 -3q14 3 22 3q12 0 12 -10q0 -4 -1 -13t-1 -13v-223q0 -86 27 -128q33 -53 112 -53q139 0 139 187v121q-1 81 -1 121q0 11 9 11q4 0 12.5 -1.5t12.5 -1.5t13 1.5t13 1.5
q7 0 7 -8v-132q-1 -88 -1 -132q0 -75 -22 -120q-6 -12 -6 -18q0 -13 34.5 -37.5t34.5 -30.5z" />
    <glyph glyph-name="udieresis" unicode="&#xfc;" horiz-adv-x="591" 
d="M399 592q0 -10 -9 -10h-55q-11 0 -11 12q0 5 1 14t1 14q0 4 -1 10.5t-1 10.5q0 13 10 13h55q10 0 10 -11q0 -4 -1.5 -12t-1.5 -12q0 -5 1.5 -14.5t1.5 -14.5zM255 592q0 -10 -9 -10h-55q-11 0 -11 12q0 5 1 14t1 14q0 4 -1 10.5t-1 10.5q0 13 10 13h55q10 0 10 -11
q0 -4 -1.5 -12t-1.5 -12q0 -5 1.5 -14.5t1.5 -14.5zM536 18q0 -6 -17 -17t-24 -11t-36.5 20.5t-42.5 20.5q-7 0 -23 -10q-51 -31 -122 -31q-94 0 -143 75q-41 63 -41 163v221q0 6 -1 18t-1 18q0 11 10 11q9 0 25 -3q14 3 22 3q12 0 12 -10q0 -4 -1 -13t-1 -13v-223
q0 -86 27 -128q33 -53 112 -53q139 0 139 187v121q-1 81 -1 121q0 11 9 11q4 0 12.5 -1.5t12.5 -1.5t13 1.5t13 1.5q7 0 7 -8v-132q-1 -88 -1 -132q0 -75 -22 -120q-6 -12 -6 -18q0 -13 34.5 -37.5t34.5 -30.5z" />
    <glyph glyph-name="dagger" unicode="&#x2020;" horiz-adv-x="523" 
d="M453 273q0 -8 -6 -8q-7 0 -49 4q-69 6 -99 6q-11 0 -10 -21l9 -366q0 -7 -3 -7q-1 0 -6 2t-8 2h-54q-7 0 -7 4q0 6 2.5 17t2.5 16q1 35 2 103q3 76 7 226v3q0 21 -11 21q-24 0 -71.5 -4.5t-71.5 -4.5q-10 0 -10 9v52q0 10 11 10q29 0 99 -5q13 0 37 -3q3 -1 8 -6t7 -5
q3 0 3 12q0 33 -8 107q-5 45 -5 50q0 9 10 9h58q11 0 11 -14q0 -5 -5 -46q-7 -68 -7 -98q0 -9 10 -9q24 0 71 3.5t70 3.5q13 0 13 -9v-54z" />
    <glyph glyph-name="degree" unicode="&#xb0;" horiz-adv-x="398" 
d="M328 481q0 -56 -36.5 -93.5t-92.5 -37.5q-57 0 -93 37t-36 94q0 56 37 93.5t92 37.5q57 0 93 -37t36 -94zM275 481q0 35 -21 57.5t-55 22.5q-35 0 -56 -22.5t-21 -57.5q0 -34 21.5 -56.5t55.5 -22.5t55 22.5t21 56.5z" />
    <glyph glyph-name="cent" unicode="&#xa2;" horiz-adv-x="543" 
d="M463 121q0 -11 -1 -32.5t-1 -32.5q0 -7 -11 -16q-59 -46 -152 -50v-52q0 -6 2.5 -17t2.5 -17q0 -7 -44 -7q-12 0 -12 7q0 5 2.5 15t2.5 15v58q-182 19 -182 255q0 100 46 170q51 79 145 89v54q0 5 -2.5 14.5t-2.5 14.5q0 9 10 9h34q11 0 11 -9q0 -5 -2.5 -15t-2.5 -15
v-53q87 -6 140 -76q9 -12 9 -18q0 2 -23 -26l-10 -16q-8 -13 -11 -13q-7 0 -11 7q-45 82 -117 82q-77 0 -114 -64q-30 -52 -30 -135q0 -193 150 -193q94 0 157 69q6 7 11 7q6 0 6 -9z" />
    <glyph glyph-name="sterling" unicode="&#xa3;" horiz-adv-x="574" 
d="M494 8q0 -8 -12 -8l-394 -1q-8 0 -8 8q0 4 2 13t2 13t-1 12t-1 12q0 8 9 8q6 0 17 -2.5t17 -2.5q59 0 59 84q0 14 -3 31h-87q-12 0 -12 8v28q0 10 3 10q2 0 6 -1.5t6 -1.5h75q-5 20 -14 61h-64q-12 0 -12 8v28q0 9 3 9q2 0 6 -1t6 -1h53q-2 16 -2 34q0 74 51 114
q47 37 123 37q99 0 144 -48q4 -4 4 -8q0 -6 -5 -19.5t-5 -19.5v-17q0 -8 -8 -8q-5 0 -8 4q-48 55 -124 55q-46 0 -74.5 -24t-28.5 -69q0 -10 3 -31h190q3 0 8 1.5t8 1.5q2 0 2 -6q0 2 -3 -28q-1 -12 -16 -12h-181l14 -61h168q3 0 8 2t8 2q2 0 2 -6q0 1 -3 -29
q-1 -12 -16 -12h-158q1 -8 1 -20q0 -47 -42 -78q-3 -2 -3 -11q0 -8 7 -8q3 0 9.5 2t10.5 2h158q6 0 17.5 -4t17.5 -4q7 0 8 21q3 46 4 48t29 2q1 0 10 1q8 1 11 0q5 -2 5 -7q0 -9 -1 -27t-1 -27t1 -28t1 -29z" />
    <glyph glyph-name="section" unicode="&#xa7;" horiz-adv-x="570" 
d="M490 195q0 -34 -22 -61t-55 -36q-27 -7 -27 -13q0 -4 11 -9l15 -7q36 -26 36 -73q0 -60 -60 -89q-46 -22 -113 -22q-95 0 -150 32q-17 10 -17 16q0 5 11 27q3 30 8 30q4 0 15 -9q21 -17 65 -29q40 -11 72 -11q104 0 104 55q0 37 -79 58q-138 38 -145 41q-79 34 -79 101
q0 35 21 61.5t55 34.5q27 7 27 11t-14 11q-47 24 -47 80q0 62 59 91q45 22 115 22q100 0 156 -36q9 -6 9 -11l-7 -28q-1 -8 -4 -24q-1 -7 -6 -7q-4 0 -16 10q-21 18 -65 30q-39 10 -72 10q-104 0 -104 -55q0 -37 79 -58q137 -38 145 -42q79 -34 79 -101zM423 188
q0 42 -64 67q-51 20 -101 20q-111 0 -111 -70q0 -42 64 -68q51 -20 101 -20q111 0 111 71z" />
    <glyph glyph-name="bullet" unicode="&#x2022;" horiz-adv-x="409" 
d="M329 167q0 -38 -29 -38h-186q-33 0 -33 50q0 14 2.5 41t2.5 41q0 11 -3 38t-3 41q0 42 32 42h186q30 0 30 -40q0 -19 -6 -59q-3 -24 -3 -22t4 -24q6 -47 6 -70z" />
    <glyph glyph-name="paragraph" unicode="&#xb6;" horiz-adv-x="571" 
d="M471 -92q0 -16 -9 -16q-11 0 -32 2t-32 2t-33 -2t-33 -2q-13 0 -13 15q0 10 2 30.5t2 30.5v83q0 4 2.5 11.5t2.5 11.5t-5 4q-14 0 -43 -15t-50 -15q-81 0 -124 69q-36 58 -36 145q0 104 55 172q60 73 161 73q79 0 144 -31q6 -3 28 -3q9 0 9 -22v-483q0 -10 2 -30t2 -30z
M417 -49q0 14 -2 43t-2 43l1 378q0 6 -8 10q-24 12 -25 12q-5 0 -5 -12t1.5 -37t1.5 -37v-378q0 -5 -2 -14.5t-2 -14.5q0 -4 6 -4h26q10 0 10 11zM326 166v247q0 24 -14 31q-9 5 -37 5q-64 0 -102 -60q-33 -52 -33 -120q0 -164 114 -164q37 0 54.5 13t17.5 48z" />
    <glyph glyph-name="germandbls" unicode="&#xdf;" horiz-adv-x="608" 
d="M538 133q0 -69 -44.5 -106t-114.5 -37q-96 0 -151 53q-11 11 -11 19q0 7 24 27q14 24 17 24l12 -13q45 -50 109 -50q37 0 60 17q27 19 27 54q0 47 -54 75l-99 51q-54 39 -54 110q0 41 34 83l64 66q34 37 34 68q0 41 -33 63q-28 18 -72 18q-129 0 -129 -140v-498
q0 -17 -10 -17q-4 0 -12.5 1t-12.5 1t-13 -1t-14 -1t-5 6q0 4 1.5 12.5t1.5 12.5v477q0 97 49 151.5t145 54.5q76 0 121 -30q52 -36 52 -108q0 -45 -34 -88l-63 -65q-34 -36 -34 -65q0 -43 54 -72l101 -51q54 -38 54 -102z" />
    <glyph glyph-name="registered" unicode="&#xae;" horiz-adv-x="778" 
d="M708 339q0 -140 -89.5 -231.5t-229.5 -91.5q-139 0 -229 91.5t-90 231.5q0 138 90.5 228.5t228.5 90.5q137 0 228 -91t91 -228zM654 336q0 118 -73.5 197t-191.5 79q-122 0 -193.5 -77t-71.5 -199q0 -118 73.5 -196t191.5 -78q120 0 192.5 76.5t72.5 197.5zM553 167
q0 -9 -8 -9h-80q-6 0 -9 8q-12 39 -20 59q-16 40 -30 52q-8 7 -21 10q-40 8 -44 8q-8 0 -8 -13v-116q0 -8 -6 -8h-59q-9 0 -9 9v335q0 8 4.5 9t41.5 3q56 4 98 4q120 0 120 -105q0 -31 -18.5 -57t-47.5 -37q-5 -2 -5 -5q0 -2 8 -5q26 -10 38 -36l18 -49q8 -17 16 -18.5
t18 -2.5q3 -1 3 -7v-29zM448 404q0 58 -62 58q-30 0 -44 -3q-10 -2 -10 -18v-70q0 -17 16 -21t37 -4q63 0 63 58z" />
    <glyph glyph-name="copyright" unicode="&#xa9;" horiz-adv-x="778" 
d="M708 339q0 -140 -89.5 -231.5t-229.5 -91.5q-139 0 -229 91.5t-90 231.5q0 138 90.5 228.5t228.5 90.5q137 0 228 -91t91 -228zM654 336q0 118 -73.5 197t-191.5 79q-122 0 -193.5 -77t-71.5 -199q0 -118 73.5 -196t191.5 -78q120 0 192.5 76.5t72.5 197.5zM512 197
q0 -6 -7 -6q-3 0 -9 1t-9 1q-9 0 -13.5 -4t-13.5 -11q-33 -24 -83 -24q-148 0 -148 184q0 78 36 127q40 55 115 55q51 0 88 -28q7 -5 14 -5q3 0 9 1h9q5 0 5 -8v-74q0 -7 -6 -7h-43q-6 0 -7 6q-6 29 -17 41q-14 14 -43 14q-80 0 -80 -121q0 -57 13 -84q19 -38 68 -38
q56 0 65 58q1 4 4 4h47q6 0 6 -7v-75z" />
    <glyph glyph-name="trademark" unicode="&#x2122;" horiz-adv-x="832" 
d="M742 315q0 -5 -49 -5q-12 0 -12 16q0 39 1 117v117q0 19 -6 19q-2 0 -34 -77l-50 -121q-5 -12 -5 -63q0 -8 -7 -8h-42q-7 0 -7 9q0 44 -5 56l-56 130q-7 21 -15 41q-12 33 -18 33t-6 -18q0 -7 1 -21t1 -21v-192q0 -18 -11 -18q-1 0 -49 3q-5 0 -5 3q0 -4 3 17q2 15 2 35
v296q0 11 19 11q12 0 35 1t35 1h1q5 0 7 -5q10 -31 32 -93l49 -115q3 -8 7 -8q5 0 8 7l49 116q1 2 30 93q2 6 8 6q12 0 36 -2t36.5 -2t12.5 -10v-294q0 -9 2 -27t2 -27zM336 625q0 -6 -7 -6h-14q-9 1 -14 1h-53q-20 0 -20 -14v-240q0 -8 2 -24t2 -24q0 -7 -7 -7h-57
q-2 0 -2 8v287q0 14 -10 14h-70q-4 0 -11.5 -1.5t-11.5 -1.5q-3 0 -3 3v43q0 11 17 11h221q9 0 20 4t14 4q4 0 4 -3v-54z" />
    <glyph glyph-name="acute" unicode="&#xb4;" horiz-adv-x="287" 
d="M207 695q0 -3 -4 -11l-50 -98q-9 -21 -23 -45q-3 -2 -9 -2h-33q-8 0 -8 6q6 13 13 30l35 109q6 19 13 19h9q7 -1 10 -1h33q14 0 14 -7z" />
    <glyph glyph-name="dieresis" unicode="&#xa8;" horiz-adv-x="530" 
d="M369 592q0 -10 -9 -10h-55q-11 0 -11 12q0 5 1 14t1 14q0 4 -1 10.5t-1 10.5q0 13 10 13h55q10 0 10 -11q0 -4 -1.5 -12t-1.5 -12q0 -5 1.5 -14.5t1.5 -14.5zM225 592q0 -10 -9 -10h-55q-11 0 -11 12q0 5 1 14t1 14q0 4 -1 10.5t-1 10.5q0 13 10 13h55q10 0 10 -11
q0 -4 -1.5 -12t-1.5 -12q0 -5 1.5 -14.5t1.5 -14.5z" />
    <glyph glyph-name="AE" unicode="&#xc6;" horiz-adv-x="875" 
d="M815 11q0 -12 -11 -12q-24 0 -71 1t-71 1h-85q-56 -1 -84 -1h-19q-10 2 -10 13q0 41 -1 47l-29 170q-5 27 -22 27q-6 0 -17 -2.5t-16 -2.5h-142q-19 0 -26 -4.5t-14 -21.5l-65 -169l-10 -34q-9 -26 -18 -26q-5 0 -14 1.5t-14 1.5h-26q-10 0 -10 8q0 5 23 62l205 505
q10 24 18 47q9 29 27 65q6 4 24 4h437q11 0 11 -7q0 -5 -2 -14t-2 -13q0 -5 1.5 -15t1.5 -15q0 -10 -12 -10q-14 0 -41.5 3t-41.5 3h-227q-25 0 -25 -8q0 -4 3 -10.5t3 -9.5l31 -182q4 -21 26 -21h190q15 0 15 -10q0 -4 -1 -12t-1 -12t1.5 -12.5t1.5 -12.5q0 -9 -13 -9h-178
q-22 0 -22 -16q0 -6 1 -12l33 -194q4 -22 13 -28t31 -6h144q16 0 21.5 2.5t6.5 15.5l4 51q1 15 15 15q3 0 9 -1.5t9 -1.5t10.5 1.5t10.5 1.5q13 0 13 -14q0 -21 1 -64v-63zM417 332l-45 266q-4 23 -9 23t-9 -3.5t-29 -67.5q-88 -224 -88 -228q0 -9 17 -9h141q25 0 22 19z
" />
    <glyph glyph-name="Oslash" unicode="&#xd8;" horiz-adv-x="658" 
d="M588 340q0 -150 -56 -240q-68 -110 -207 -110q-92 0 -151 46l-31 -55q-26 -47 -27 -47q-5 0 -14 3t-14 3q-18 0 -18 4q0 -3 21 28q8 12 54 92q-75 88 -75 276q0 71 23 156q27 95 68 140q26 1 77.5 33.5t102.5 32.5q82 0 137 -40l25 45l10 23q10 19 13 19q4 0 11 -1.5
t10 -1.5q22 -1 22 -4q0 -2 -60 -108q79 -89 79 -294zM443 599q-41 40 -107 40q-106 0 -155 -101q-36 -76 -36 -195q0 -135 40 -207zM512 340q0 150 -42 224l-260 -463q44 -47 118 -47q101 0 148 98q36 75 36 188z" />
    <glyph glyph-name="plusminus" unicode="&#xb1;" horiz-adv-x="511" 
d="M431 292q0 -13 -2 -15.5t-14 -2.5h-114q-16 0 -16 -20v-98q0 -19 -18 -19h-25q-16 0 -16 18v100q0 19 -18 19h-110q-12 0 -15 3t-3 16q0 30 0 28q2 11 20 11h114q12 0 12 18v99q0 17 10 19q-2 0 31 0q12 0 15 -3.5t3 -16.5v-98q0 -18 20 -18h108q16 0 18 -10q0 2 0 -30z
M431 49q0 -19 -19 -19h-315q-17 0 -17 21v21q0 13 4 15.5t18 2.5h307q14 0 18 -3t4 -15v-23z" />
    <glyph glyph-name="yen" unicode="&#xa5;" horiz-adv-x="582" 
d="M522 487q0 -14 -37 -71l-102 -156q-3 -5 -3 -7q0 -6 8 -6h102q5 0 5 -4v-23q0 -9 -9 -9q-5 0 -14.5 1t-14.5 1h-88q-11 0 -17 -13q-12 -24 -12 -31q0 -4 12 -4q22 0 65 1h65q13 0 13 -7v-26q0 -6 -4 -6q-5 0 -16 2t-17 2h-115q-17 0 -17 -26v-91q0 -14 -9 -14
q-4 0 -13 1.5t-13 1.5q-5 0 -14 -1.5t-14 -1.5q-9 0 -9 8q0 4 1 11t1 11v79q0 22 -15 22l-150 -1q-7 0 -7 28q0 9 9 9q5 0 14.5 -1t14.5 -1h113q7 0 7 5q0 6 -14 34q-5 9 -15 9q-117 -2 -119 -2q-10 0 -10 8v26q0 6 4 6q5 0 16 -2t17 -2h73q7 0 7 4t-22 38l-92 142
q-27 42 -27 55q0 10 9 10h31q4 0 13 1.5t14 1.5q10 0 15.5 -12t9.5 -22q7 -14 16 -29l75 -126q11 -18 19 -37l15 -36q11 -23 25 -23h2q7 0 7 20q0 28 26 71l79 130l32 62q3 2 9 2q4 0 12.5 -1.5t12.5 -1.5q12 0 24 1q16 -1 16 -10z" />
    <glyph glyph-name="mu" unicode="&#xb5;" horiz-adv-x="591" 
d="M541 18q0 -6 -17 -17t-24 -11t-36.5 20.5t-42.5 20.5q-6 0 -23 -10q-51 -31 -122 -31q-34 0 -61 12q-18 8 -34 23q-14 12 -16 12q-11 0 -11 -11q0 -3 1 -9t1 -9v-123q0 -11 2 -32t2 -32q0 -8 -12 -8q-4 0 -13 1.5t-13 1.5t-12.5 -1.5t-12.5 -1.5q-7 0 -7 12q0 11 1 33.5
t1 33.5v557q0 6 -1 18t-1 18q0 11 10 11q9 0 25 -3q14 3 22 3q12 0 12 -10q0 -4 -1 -13t-1 -13v-223q0 -86 27 -128q33 -53 112 -53q139 0 139 187v121q-1 81 -1 121q0 11 9 11q4 0 12.5 -1.5t12.5 -1.5t13 1.5t13 1.5q7 0 7 -8v-132q-1 -88 -1 -132q0 -75 -22 -120
q-6 -12 -6 -18q0 -14 34.5 -37.5t34.5 -30.5z" />
    <glyph glyph-name="mu" unicode="&#x3bc;" horiz-adv-x="591" 
d="M541 18q0 -6 -17 -17t-24 -11t-36.5 20.5t-42.5 20.5q-6 0 -23 -10q-51 -31 -122 -31q-34 0 -61 12q-18 8 -34 23q-14 12 -16 12q-11 0 -11 -11q0 -3 1 -9t1 -9v-123q0 -11 2 -32t2 -32q0 -8 -12 -8q-4 0 -13 1.5t-13 1.5t-12.5 -1.5t-12.5 -1.5q-7 0 -7 12q0 11 1 33.5
t1 33.5v557q0 6 -1 18t-1 18q0 11 10 11q9 0 25 -3q14 3 22 3q12 0 12 -10q0 -4 -1 -13t-1 -13v-223q0 -86 27 -128q33 -53 112 -53q139 0 139 187v121q-1 81 -1 121q0 11 9 11q4 0 12.5 -1.5t12.5 -1.5t13 1.5t13 1.5q7 0 7 -8v-132q-1 -88 -1 -132q0 -75 -22 -120
q-6 -12 -6 -18q0 -14 34.5 -37.5t34.5 -30.5z" />
    <glyph glyph-name="ordfeminine" unicode="&#xaa;" horiz-adv-x="384" 
d="M294 590q0 -23 -1 -70t-1 -71q0 -6 -5 -8q-4 -1 -12 0q-12 1 -14 1q-5 0 -41 -10q-23 -7 -47 -7q-93 0 -93 71q0 34 30 52q25 16 61 16q11 0 33.5 -4.5t33.5 -4.5q8 0 9 11q-1 -9 -1 17q0 62 -63 62q-49 0 -77 -17q-3 -2 -5 -2t-2 6v33q0 13 39 20q27 5 49 5q49 0 78 -26
t29 -74zM245 512q0 10 -9 10h-61q-43 0 -43 -29t50 -29q63 0 63 48z" />
    <glyph glyph-name="ordmasculine" unicode="&#xba;" horiz-adv-x="391" 
d="M321 552q0 -56 -34 -91.5t-90 -35.5q-127 0 -127 134q0 65 48 103q10 0 34.5 14t49.5 14q59 0 90 -41q29 -37 29 -97zM269 552q0 94 -74 94q-36 0 -54.5 -25.5t-18.5 -63.5q0 -89 73 -89q74 0 74 84z" />
    <glyph glyph-name="ae" unicode="&#xe6;" horiz-adv-x="832" 
d="M752 343q0 -32 -10 -60q-8 -23 -32 -23h-238q-32 0 -37 -5t-5 -39q0 -67 41 -114t107 -47q96 0 147 56q10 11 15 11q7 0 7 -11q0 -5 -1.5 -15.5t-1.5 -15.5t1 -14t1 -14q0 -8 -5.5 -13.5t-21.5 -14.5q-65 -34 -139 -34q-85 0 -144 45q-13 10 -25 10q-7 0 -22 -11
q-61 -44 -161 -44q-158 0 -158 133q0 61 48 95q42 30 106 30q29 0 67 -8q45 -10 57 -10t18 6q10 11 10 81q0 56 -36.5 91t-92.5 35q-73 0 -127 -36q-3 -2 -11 -5q-5 3 -5 9q0 5 1.5 14.5t1.5 14.5q0 4 -1.5 12.5t-1.5 12.5q0 6 5 10q42 32 144 32q92 0 146 -67q6 -7 10 -7
q6 0 12 7q56 67 153 67q79 0 128.5 -43t49.5 -121zM685 351q0 47 -37 74q-33 25 -82 25q-51 0 -89 -32t-38 -83q0 -30 8 -30q7 0 21.5 4t22.5 4h159q22 0 28.5 8t6.5 30zM375 163q0 22 -9 26q-4 1 -32 1h-93q-102 0 -102 -73q0 -71 105 -71q66 0 98.5 26.5t32.5 90.5z" />
    <glyph glyph-name="oslash" unicode="&#xf8;" horiz-adv-x="603" 
d="M523 237q0 -109 -52 -175q-57 -72 -163 -72q-73 0 -121 28l-33 -54q-7 -13 -13 -26q-11 -22 -16 -22q-2 0 -12 3.5t-12 3.5h-12q-9 1 -9 4q0 2 11 15t12 14.5t52 86.5q-68 66 -68 209q0 53 21 107q22 58 59 90q17 0 60 29t89 29q59 0 103 -25l18 31l19 37q17 31 21 31
q3 0 9.5 -1.5t9.5 -1.5h18q5 0 5 -2q0 -3 -68 -118q72 -68 72 -221zM453 237q0 105 -40 159l-191 -320q34 -26 82 -26q78 0 116 57q33 48 33 130zM384 425q-32 22 -80 22q-75 0 -115 -65q-33 -55 -33 -135q0 -88 37 -141z" />
    <glyph glyph-name="questiondown" unicode="&#xbf;" horiz-adv-x="476" 
d="M300 424q0 -16 -10 -16h-58q-10 0 -10 13q0 5 1.5 14.5t1.5 14.5q0 6 -2 17t-2 17q0 12 10 12h58q11 0 11 -14q0 -6 -1 -17t-1 -17q0 -4 1 -12t1 -12zM396 -108q0 -5 -15 -17q-58 -48 -142 -48q-74 0 -119 36q-50 39 -50 111q0 66 62 111l118.5 64t60.5 73q0 56 -60 56
q-53 0 -84 -45q-8 -11 -11 -11q-4 0 -6 6.5t-8 19.5q-1 2 -7.5 10t-6.5 13q0 6 7 15q41 55 119 55q58 0 92 -33t34 -91q0 -59 -62 -99l-114 -61q-62 -37 -62 -91q0 -40 31 -60q27 -17 69 -17q67 0 109 48q7 8 13 8q4 0 15 -27q17 -17 17 -26z" />
    <glyph glyph-name="exclamdown" unicode="&#xa1;" horiz-adv-x="284" 
d="M181 423q0 -16 -10 -16h-58q-10 0 -10 13q0 5 1.5 14.5t1.5 14.5q0 6 -2 17t-2 17q0 12 10 12h58q11 0 11 -14q0 -6 -1 -17t-1 -17q0 -4 1 -12t1 -12zM184 -155q0 -15 -13 -15q-4 0 -12.5 1.5t-12.5 1.5q-6 0 -17.5 -2t-17.5 -2q-11 0 -11 14q0 64 5 193q4 125 4 193v96
q0 7 7 7q5 0 14 -1t14 -1q3 0 10.5 1.5t11.5 1.5q8 0 8 -13v-26q-1 -18 -1 -27q0 -11 1 -52l8 -331q0 -6 1 -19t1 -20z" />
    <glyph glyph-name="logicalnot" unicode="&#xac;" horiz-adv-x="617" 
d="M527 118q0 -9 -10 -9h-52q-11 0 -11 15v138q0 22 -23 22h-349q-12 0 -12 10v47q0 11 14 11h423q12 0 16 -2.5t4 -14.5v-217z" />
    <glyph glyph-name="florin" unicode="&#x192;" horiz-adv-x="563" 
d="M503 266q0 -3 -1.5 -8t-1.5 -7v-15q-1 -7 -10 -7h-179q-16 0 -16 -21v-126q0 -85 -39 -138q-44 -59 -126 -59q-16 0 -39 4q-31 5 -31 14q0 6 3 21t3 24t6 9q-4 0 26 -6q23 -5 52 -5q51 0 67 21q12 17 12 67v179q0 11 -2.5 13.5t-13.5 2.5h-131q-5 0 -5 7q0 4 2 14
q-2 8 -2 13q0 4 6 4h129q3 0 7.5 -3t5.5 -3q4 0 4 30q0 90 46 150q50 66 137 66q18 0 44 -4q36 -5 36 -13q0 9 -6 -29q-1 -6 -1 -22q0 -8 -5 -8q-2 0 -8 3q-23 12 -66 12q-56 0 -86 -47q-25 -40 -25 -99q0 -23 5 -28t28 -5h165q2 0 5 1t4 1q1 -1 1 -3z" />
    <glyph glyph-name="guillemotleft" unicode="&#xab;" horiz-adv-x="550" 
d="M470 474q0 -3 -77.5 -108.5t-77.5 -106.5q0 2 11 -14l124 -182q16 -23 16 -21q0 -5 -32 -5q-5 0 -9.5 -2.5t-5.5 -2.5q-7 4 -18 17l-150 182q-7 8 -7 37q0 7 7 15l164 189q5 6 8 6q4 0 10 -1t9 -1h12q9 1 12 1q4 0 4 -3zM306 474q0 -3 -77.5 -108.5t-77.5 -106.5
q0 2 11 -14l124 -182q16 -23 16 -21q0 -5 -32 -5q-5 0 -9.5 -2.5t-5.5 -2.5q-7 4 -18 17l-150 182q-7 8 -7 37q0 7 7 15l164 189q5 6 8 6q4 0 10 -1t9 -1h12q9 1 12 1q4 0 4 -3z" />
    <glyph glyph-name="guillemotright" unicode="&#xbb;" horiz-adv-x="550" 
d="M470 242q0 -7 -7 -15l-164 -189q-5 -6 -8 -6q-4 0 -10 1t-9 1h-12q-9 -1 -12 -1q-4 0 -4 3t77.5 108.5t77.5 106.5q0 -2 -11 14l-124 182q-16 23 -16 21q0 5 32 5q5 0 9.5 2.5t5.5 2.5q7 -4 18 -17l150 -182q7 -8 7 -37zM306 242q0 -7 -7 -15l-164 -189q-5 -6 -8 -6
q-4 0 -10 1t-9 1h-12q-9 -1 -12 -1q-4 0 -4 3t77.5 108.5t77.5 106.5q0 -2 -11 14l-124 182q-16 23 -16 21q0 5 32 5q5 0 9.5 2.5t5.5 2.5q7 -4 18 -17l150 -182q7 -8 7 -37z" />
    <glyph glyph-name="ellipsis" unicode="&#x2026;" horiz-adv-x="670" 
d="M590 12q0 -12 -10 -12h-58q-11 0 -11 14q0 6 1 17t1 17q0 4 -1 12t-1 12q0 16 10 16h58q10 0 10 -13q0 -5 -1.5 -14.5t-1.5 -14.5q0 -6 2 -17t2 -17zM375 12q0 -12 -10 -12h-58q-11 0 -11 14q0 6 1 17t1 17q0 4 -1 12t-1 12q0 16 10 16h58q10 0 10 -13q0 -5 -1.5 -14.5
t-1.5 -14.5q0 -6 2 -17t2 -17zM159 12q0 -12 -10 -12h-58q-11 0 -11 14q0 6 1 17t1 17q0 4 -1 12t-1 12q0 16 10 16h58q10 0 10 -13q0 -5 -1.5 -14.5t-1.5 -14.5q0 -6 2 -17t2 -17z" />
    <glyph glyph-name="nonbreakingspace" unicode="&#xa0;" horiz-adv-x="125" 
 />
    <glyph glyph-name="Agrave" unicode="&#xc0;" 
d="M353 736q0 -2 -5 -2h-42q-12 0 -39 33l-42 44q-36 37 -36 40t12 3h28q18 1 27 1t19 -14q1 -2 49 -49q29 -30 29 -56zM578 10q0 -9 -6 -9h-35q-5 0 -15.5 -2.5t-15.5 -2.5q-8 0 -8 10q0 23 -7 46l-52 171q-4 14 -9 27t-23 13q-7 0 -21 -5.5t-22 -5.5h-148
q-19 0 -25.5 -4.5t-11.5 -21.5l-54 -182q-4 -21 -11 -45q-1 -2 -5 -2q-5 0 -15 2t-15 2h-31q-8 0 -8 9q0 2 13 44l162 521l18 58q15 45 25 54q6 5 17 5q5 0 16 -1.5t16 -1.5t16 1t17 1q13 0 19 -5q10 -9 46 -120l154 -479q19 -59 19 -77zM406 321q0 6 -3 15l-67 209
q-24 76 -38 76h-2q-4 0 -5 -2q-1 -11 -3 -25q-4 -19 -11 -44q-67 -223 -67 -226q0 -11 18 -11h161q17 0 17 8z" />
    <glyph glyph-name="Atilde" unicode="&#xc3;" 
d="M578 10q0 -9 -6 -9h-35q-5 0 -15.5 -2.5t-15.5 -2.5q-8 0 -8 10q0 23 -7 46l-52 171q-4 14 -9 27t-23 13q-7 0 -21 -5.5t-22 -5.5h-148q-19 0 -25.5 -4.5t-11.5 -21.5l-54 -182q-4 -21 -11 -45q-1 -2 -5 -2q-5 0 -15 2t-15 2h-31q-8 0 -8 9q0 2 13 44l162 521l18 58
q15 45 25 54q6 5 17 5q5 0 16 -1.5t16 -1.5t16 1t17 1q13 0 19 -5q10 -9 46 -120l154 -479q19 -59 19 -77zM406 321q0 6 -3 15l-67 209q-24 76 -38 76h-2q-4 0 -5 -2q-1 -11 -3 -25q-4 -19 -11 -44q-67 -223 -67 -226q0 -11 18 -11h161q17 0 17 8zM484 842q0 -49 -24 -80
q-27 -35 -74 -35q-30 0 -80.5 36.5t-69.5 36.5q-34 0 -40 -54q-2 -20 -11 -20q-2 0 -7.5 1t-8.5 1q-2 0 -8 -1h-8q-14 0 -14 8q0 53 24 86q27 38 77 38q30 0 79.5 -37t68.5 -37q35 0 40 55q2 20 10 20q3 0 9 -1t8 -1q3 0 9 1t8 1q12 0 12 -18z" />
    <glyph glyph-name="Otilde" unicode="&#xd5;" 
d="M568 340q0 -150 -56 -240q-68 -110 -207 -110q-255 0 -255 350q0 72 23 156q27 94 68 140q27 1 78 33.5t102 32.5q247 0 247 -362zM492 340q0 299 -176 299q-106 0 -155 -101q-36 -76 -36 -195q0 -289 183 -289q101 0 148 98q36 75 36 188zM494 850q0 -49 -25 -80
q-27 -35 -73 -35q-31 0 -81.5 36.5t-68.5 36.5q-35 0 -40 -54q-2 -20 -11 -20q-3 0 -8.5 1t-7.5 1q-3 0 -8 -1h-8q-14 0 -14 8q0 53 23 86q27 38 78 38q29 0 78.5 -37t69.5 -37q34 0 40 55q1 20 10 20q2 0 8 -1t9 -1q2 0 8 1t9 1q12 0 12 -18z" />
    <glyph glyph-name="OE" unicode="&#x152;" horiz-adv-x="971" 
d="M901 144q0 -11 -2 -32t-2 -32q0 -12 1 -35t1 -35t-12 -12q-23 0 -68 1t-67 1h-271q-30 0 -90 -1.5t-90 -1.5q-251 0 -251 343q0 149 55 243q68 115 206 115q60 0 122 -3l83 -4h342q11 0 11 -7q0 -5 -1.5 -15t-1.5 -15t1 -14t1 -14q0 -9 -12 -9q-15 0 -43.5 3t-43.5 3
h-203q-26 0 -26 -8q0 -4 1.5 -11.5t1.5 -11.5v-179q0 -21 22 -21h210q14 0 14 -10q0 -4 -1 -12.5t-1 -12.5t1.5 -12t1.5 -12q0 -9 -13 -9h-208q-26 0 -26 -28v-209q0 -15 12 -18q3 -1 26 -1h218q21 0 26 8q2 4 4 30q0 13 1 26q2 20 10 20q9 0 25 -3q17 3 27 3q9 0 9 -8z
M472 152v394q0 38 -6 53q-11 27 -66 34q-17 2 -80 2q-195 0 -195 -292q0 -127 34 -193q46 -89 159 -89q124 0 144 30q10 16 10 61z" />
    <glyph glyph-name="oe" unicode="&#x153;" horiz-adv-x="885" 
d="M805 342q0 -33 -9 -60q-8 -22 -33 -22q-43 0 -128 1h-128q-20 0 -20 -54q0 -66 42 -109t108 -43q90 0 143 59q7 8 13 8q7 0 7 -10q0 -5 -1.5 -15.5t-1.5 -15.5t1 -15t1 -15q0 -8 -9 -15q-60 -46 -155 -46q-112 0 -172 74q-6 8 -14 8q-5 0 -13 -9q-66 -73 -155 -73
q-221 0 -221 262q0 53 21 107q22 58 59 90q17 0 60 29t89 29q99 0 154 -81q5 -8 10 -8t11 8q35 45 71.5 63t93.5 18q78 0 127 -44t49 -121zM739 351q0 46 -37 74q-33 25 -81 25q-51 0 -89 -32q-41 -34 -41 -84q0 -27 10 -27q8 0 24 3t24 3h160q30 0 30 38zM426 245
q0 202 -149 202q-75 0 -115 -65q-33 -55 -33 -135q0 -82 32 -134q39 -63 116 -63t116 61q33 52 33 134z" />
    <glyph glyph-name="endash" unicode="&#x2013;" horiz-adv-x="540" 
d="M470 245q0 -12 -36 -12l-353 -1q-8 0 -8 14v33q0 2 -1.5 5.5t-1.5 4.5q0 4 44 4h329q4 0 11 2.5t10 2.5q6 0 6 -12v-41z" />
    <glyph glyph-name="emdash" unicode="&#x2014;" horiz-adv-x="791" 
d="M721 245q0 -12 -36 -12l-604 -1q-8 0 -8 14v33q0 2 -1.5 5.5t-1.5 4.5q0 4 44 4h580q4 0 10.5 2.5t10.5 2.5q6 0 6 -12v-41z" />
    <glyph glyph-name="quotedblleft" unicode="&#x201c;" horiz-adv-x="400" 
d="M330 684q0 -8 -17.5 -47t-17.5 -53q0 -9 8 -21.5t8 -24.5q0 -5 -12 -44q-4 -14 -7.5 -18t-16.5 -4h-48q-14 0 -14 11q0 3 6 38q7 41 57 159q5 11 20 11h22q12 0 12 -7zM187 684q0 -8 -17.5 -47t-17.5 -53q0 -9 8 -21.5t8 -24.5q0 -5 -12 -44q-4 -14 -7.5 -18t-16.5 -4
h-48q-14 0 -14 11q0 3 6 38q7 41 57 159q5 11 20 11h22q12 0 12 -7z" />
    <glyph glyph-name="quotedblright" unicode="&#x201d;" horiz-adv-x="400" 
d="M330 680q0 -3 -6 -38q-7 -41 -57 -159q-5 -11 -20 -11h-22q-12 0 -12 7t17 45t17 55q0 9 -7.5 21.5t-7.5 24.5q0 5 12 44q4 14 7.5 18t16.5 4h48q14 0 14 -11zM187 680q0 -3 -6 -38q-7 -41 -57 -159q-5 -11 -20 -11h-22q-12 0 -12 7q0 8 17.5 47t17.5 53q0 9 -8 21.5
t-8 24.5q0 5 12 44q4 14 7.5 18t16.5 4h48q14 0 14 -11z" />
    <glyph glyph-name="quoteleft" unicode="&#x2018;" horiz-adv-x="257" 
d="M187 684q0 -8 -17.5 -47t-17.5 -53q0 -9 8 -21.5t8 -24.5q0 -5 -12 -44q-4 -14 -7.5 -18t-16.5 -4h-48q-14 0 -14 11q0 3 6 38q7 41 57 159q5 11 20 11h22q12 0 12 -7z" />
    <glyph glyph-name="quoteright" unicode="&#x2019;" horiz-adv-x="257" 
d="M187 680q0 -3 -6 -38q-7 -41 -57 -159q-5 -11 -20 -11h-22q-12 0 -12 7q0 8 17.5 47t17.5 53q0 9 -8 21.5t-8 24.5q0 5 12 44q4 14 7.5 18t16.5 4h48q14 0 14 -11z" />
    <glyph glyph-name="divide" unicode="&#xf7;" horiz-adv-x="468" 
d="M274 375q0 -12 -10 -12h-58q-11 0 -11 14q0 6 1 17t1 17q0 4 -1 12t-1 12q0 16 10 16h58q10 0 10 -13q0 -5 -1.5 -14.5t-1.5 -14.5q0 -6 2 -17t2 -17zM388 217h-308v58h308v-58zM273 49q0 -12 -10 -12h-58q-11 0 -11 14q0 6 1 17t1 17q0 4 -1 12t-1 12q0 16 10 16h58
q10 0 10 -13q0 -5 -1.5 -14.5t-1.5 -14.5q0 -6 2 -17t2 -17z" />
    <glyph glyph-name="ydieresis" unicode="&#xff;" horiz-adv-x="579" 
d="M399 592q0 -10 -9 -10h-55q-11 0 -11 12q0 5 1 14t1 14q0 4 -1 10.5t-1 10.5q0 13 10 13h55q10 0 10 -11q0 -4 -1.5 -12t-1.5 -12q0 -5 1.5 -14.5t1.5 -14.5zM255 592q0 -10 -9 -10h-55q-11 0 -11 12q0 5 1 14t1 14q0 4 -1 10.5t-1 10.5q0 13 10 13h55q10 0 10 -11
q0 -4 -1.5 -12t-1.5 -12q0 -5 1.5 -14.5t1.5 -14.5zM524 485q0 -8 -24 -70l-106 -275l-45 -117q-23 -68 -23 -123v-72q0 -15 -12 -15q-4 0 -11 1t-10 1q-4 0 -13 -2t-13 -2q-6 0 -6 9q0 5 1 13.5t1 13.5v53q0 59 -26 125l-52 118l-107 268q-23 58 -23 76q0 9 9 9h25
q4 0 13 2t13 2q9 0 13 -14q2 -10 3 -21q3 -16 9 -30l108 -271l20 -52q18 -40 32 -40t14 28q0 17 16 59l106 275l8 38q7 26 21 26q8 0 25 -1t25.5 -1t8.5 -11z" />
    <glyph glyph-name="Ydieresis" unicode="&#x178;" horiz-adv-x="602" 
d="M411 745q0 -10 -9 -10h-55q-11 0 -11 12q0 5 1 14t1 14q0 4 -1 11t-1 10q0 13 10 13h55q10 0 10 -11q0 -4 -1.5 -12t-1.5 -12q0 -5 1.5 -14.5t1.5 -14.5zM267 745q0 -10 -9 -10h-55q-11 0 -11 12q0 5 1 14t1 14q0 4 -1 11t-1 10q0 13 10 13h55q10 0 10 -11q0 -4 -1.5 -12
t-1.5 -12q0 -5 1.5 -14.5t1.5 -14.5zM562 680q0 -8 -28 -71l-120 -271l-46 -103q-27 -68 -27 -107q0 -19 1 -58t1 -59q0 -13 -8 -13q-9 0 -34 6q-27 -4 -29 -4q-7 0 -7 5q0 3 1.5 8t1.5 8v114q0 35 -31 104l-50 102l-121 264q-26 57 -26 72q0 12 9 12h29q6 0 17.5 2.5
t17.5 2.5q1 0 4 -14q4 -20 18 -51l118 -267q13 -29 25 -59q22 -46 36 -46q4 0 7 6l9 40t18 54l115 271q12 29 18 51q4 16 5 16q6 0 19 -3.5t19 -3.5h29q9 0 9 -8z" />
    <glyph glyph-name="currency" unicode="&#xa4;" horiz-adv-x="579" 
d="M519 51q0 -6 -13 -15q-64 -46 -164 -46q-176 0 -204 186q-12 0 -36 -1h-36q-6 0 -6 7q0 2 1 6.5t1 6.5q0 17 3 17q6 0 17 -1t17 -1h35q-1 14 -1 41q0 21 2 40q-49 -1 -51 -1q-6 0 -8 3q-1 2 0 7q1 8 1 9v5q-1 3 -1 5q0 8 8 8q13 0 57 -1q17 82 67 130q54 51 136 51
q103 0 158 -42q7 -5 7 -10q0 6 -11 -29q-3 -16 -8 -34q-1 -1 -5 -1q-3 0 -7 4q-50 51 -136 51q-105 0 -131 -121q39 0 118 1h117q8 0 8 -5q0 -3 -3 -12l1 -13q0 -7 -8 -7q-5 0 -15 1t-15 1h-208q-2 -19 -2 -43q0 -26 1 -38h155q16 0 47 1.5t47 1.5q9 0 9 -5t-1 -14t-1 -13.5
t-9 -4.5h-242q24 -122 137 -122q103 0 157 68q3 4 6 4q6 0 6 -8q0 -6 -1 -18t-1 -18q0 -5 2.5 -15.5t2.5 -15.5z" />
    <glyph glyph-name="guilsinglleft" unicode="&#x2039;" horiz-adv-x="386" 
d="M306 474q0 -3 -77.5 -108.5t-77.5 -106.5q0 2 11 -14l124 -182q16 -23 16 -21q0 -5 -32 -5q-5 0 -9.5 -2.5t-5.5 -2.5q-7 4 -18 17l-150 182q-7 8 -7 37q0 7 7 15l164 189q5 6 8 6q4 0 10 -1t9 -1h12q9 1 12 1q4 0 4 -3z" />
    <glyph glyph-name="guilsinglright" unicode="&#x203a;" horiz-adv-x="386" 
d="M306 241q0 -7 -7 -15l-164 -189q-5 -6 -8 -6q-4 0 -10 1t-9 1h-12q-9 -1 -12 -1q-4 0 -4 3t77.5 108.5t77.5 106.5q0 -2 -11 14l-124 182q-16 23 -16 21q0 5 32 5q5 0 9.5 2.5t5.5 2.5q7 -4 18 -17l150 -182q7 -8 7 -37z" />
    <glyph glyph-name="daggerdbl" unicode="&#x2021;" horiz-adv-x="523" 
d="M453 54q0 -10 -11 -10q-23 0 -68 4t-68 4q-3 0 -8 5.5t-7 5.5q-3 0 -3 -12q0 -26 6.5 -77.5t6.5 -77.5q0 -11 -10 -11h-58q-11 0 -11 14q0 5 3 39q9 86 9 105q0 9 -10 9q-24 0 -70.5 -3.5t-70.5 -3.5q-13 0 -13 9v54q0 8 6 8q25 0 74 -5t74 -5q12 0 12 11q0 2 -1 5t-1 5
v124q0 24 -11 24q-24 0 -71.5 -4.5t-71.5 -4.5q-10 0 -10 9v52q0 10 11 10q8 0 93 -5q15 0 43 -3q3 -1 8 -6t7 -5q3 0 3 12q0 14 -10 118q-3 34 -3 39q0 9 10 9h58q11 0 11 -14q0 -4 -5 -46q-7 -68 -7 -98q0 -9 10 -9q24 0 71 3.5t70 3.5q13 0 13 -9v-54q0 -8 -6 -8
q-25 0 -74 5t-74 5q-10 0 -10 -21v-124q0 -24 11 -24q24 0 71.5 4.5t71.5 4.5q10 0 10 -9v-52z" />
    <glyph glyph-name="periodcentered" unicode="&#xb7;" horiz-adv-x="239" 
d="M159 222q0 -12 -10 -12h-58q-11 0 -11 14q0 6 1 17t1 17q0 4 -1 12t-1 12q0 16 10 16h58q10 0 10 -13q0 -5 -1.5 -14.5t-1.5 -14.5q0 -6 2 -17t2 -17z" />
    <glyph glyph-name="periodcentered" unicode="&#x2219;" horiz-adv-x="239" 
d="M159 222q0 -12 -10 -12h-58q-11 0 -11 14q0 6 1 17t1 17q0 4 -1 12t-1 12q0 16 10 16h58q10 0 10 -13q0 -5 -1.5 -14.5t-1.5 -14.5q0 -6 2 -17t2 -17z" />
    <glyph glyph-name="quotesinglbase" unicode="&#x201a;" horiz-adv-x="277" 
d="M197 187q0 -3 -6 -38q-7 -41 -57 -159q-5 -11 -20 -11h-22q-12 0 -12 7q0 8 17.5 47t17.5 53q0 9 -8 21.5t-8 24.5q0 5 12 44q4 14 7.5 18t16.5 4h48q14 0 14 -11z" />
    <glyph glyph-name="quotedblbase" unicode="&#x201e;" horiz-adv-x="420" 
d="M340 187q0 -3 -6 -38q-7 -41 -57 -159q-5 -11 -20 -11h-22q-12 0 -12 7t17 45t17 55q0 9 -7.5 21.5t-7.5 24.5q0 5 12 44q4 14 7.5 18t16.5 4h48q14 0 14 -11zM197 187q0 -3 -6 -38q-7 -41 -57 -159q-5 -11 -20 -11h-22q-12 0 -12 7q0 8 17.5 47t17.5 53q0 9 -8 21.5
t-8 24.5q0 5 12 44q4 14 7.5 18t16.5 4h48q14 0 14 -11z" />
    <glyph glyph-name="perthousand" unicode="&#x2030;" horiz-adv-x="932" 
d="M862 120q0 -56 -28 -92q-31 -38 -86 -38q-117 0 -117 138q0 59 31 96.5t88 37.5q112 0 112 -142zM596 120q0 -56 -28 -92q-31 -38 -86 -38q-117 0 -117 138q0 59 31 96.5t88 37.5q112 0 112 -142zM536 491q0 -6 -27 -42l-287 -378q-18 -23 -31 -44q-5 -10 -17 -27
q-2 -3 -5 -3q-6 0 -18 1.5t-16.5 1.5t-4.5 4q0 3 27 39l302 399q15 19 25 35q13 21 15 21q5 0 16 -1t16 -1t5 -5zM301 365q0 -56 -28 -92q-31 -38 -86 -38q-117 0 -117 138q0 59 31 96.5t88 37.5q112 0 112 -142zM809 121q0 90 -62 90q-64 0 -64 -85t63 -85t63 80zM543 121
q0 90 -62 90q-64 0 -64 -85t63 -85t63 80zM248 366q0 90 -62 90q-63 0 -63 -86q0 -84 62 -84q63 0 63 80z" />
    <glyph glyph-name="Acircumflex" unicode="&#xc2;" 
d="M477 717q0 -6 -14 -6h-45q-10 0 -19 10t-17 20l-53 59q-12 14 -21 14q-8 0 -21 -14l-59 -62q-7 -9 -15 -18t-17 -9h-45q-10 0 -10 6q0 5 12 18l100 108q29 31 31 31h50q7 0 11 -7l7 -12l114 -122q11 -12 11 -16zM578 10q0 -9 -6 -9h-35q-5 0 -15.5 -2.5t-15.5 -2.5
q-8 0 -8 10q0 23 -7 46l-52 171q-4 14 -9 27t-23 13q-7 0 -21 -5.5t-22 -5.5h-148q-19 0 -25.5 -4.5t-11.5 -21.5l-54 -182q-4 -21 -11 -45q-1 -2 -5 -2q-5 0 -15 2t-15 2h-31q-8 0 -8 9q0 2 13 44l162 521l18 58q15 45 25 54q6 5 17 5q5 0 16 -1.5t16 -1.5t16 1t17 1
q13 0 19 -5q10 -9 46 -120l154 -479q19 -59 19 -77zM406 321q0 6 -3 15l-67 209q-24 76 -38 76h-2q-4 0 -5 -2q-1 -11 -3 -25q-4 -19 -11 -44q-67 -223 -67 -226q0 -11 18 -11h161q17 0 17 8z" />
    <glyph glyph-name="Ecircumflex" unicode="&#xca;" horiz-adv-x="583" 
d="M487 727q0 -6 -14 -6h-45q-10 0 -19 10t-17 20l-53 59q-12 14 -21 14q-8 0 -21 -14l-59 -62q-7 -9 -15 -18t-17 -9h-45q-10 0 -10 6q0 5 12 18l100 108q29 31 31 31h50q7 0 11 -7l7 -12l114 -122q11 -12 11 -16zM518 10q0 -12 -12 -12q-24 0 -70.5 1t-70.5 1h-264
q-16 0 -16 8q0 7 3 24.5t3 27.5v587q0 25 9 34.5t34 9.5h343q11 0 11 -8q0 -5 -1.5 -14.5t-1.5 -14.5q0 -4 1 -13t1 -14q0 -10 -11 -10q-14 0 -42 3t-42 3h-207q-26 0 -26 -8q0 -4 1.5 -11.5t1.5 -11.5v-179q0 -21 22 -21h212q12 0 12 -10q0 -4 -1 -12t-1 -12t1 -12.5
t1 -12.5q0 -9 -11 -9h-209q-26 0 -26 -28v-195q0 -20 6 -26.5t27 -6.5h226q19 0 24 10q2 4 3 28l2 34q1 12 8 12q5 0 14 -1t14 -1q4 0 12.5 1t12.5 1q7 0 7 -7q0 -10 -1 -30t-1 -30q0 -12 1 -37.5t1 -37.5z" />
    <glyph glyph-name="Aacute" unicode="&#xc1;" 
d="M419 841q0 -4 -26 -30q-35 -34 -52 -54q-27 -33 -39 -33h-43q-4 0 -4 2v2l18 22l59 81q11 14 19 14q10 0 28 -1h28q12 0 12 -3zM578 10q0 -9 -6 -9h-35q-5 0 -15.5 -2.5t-15.5 -2.5q-8 0 -8 10q0 23 -7 46l-52 171q-4 14 -9 27t-23 13q-7 0 -21 -5.5t-22 -5.5h-148
q-19 0 -25.5 -4.5t-11.5 -21.5l-54 -182q-4 -21 -11 -45q-1 -2 -5 -2q-5 0 -15 2t-15 2h-31q-8 0 -8 9q0 2 13 44l162 521l18 58q15 45 25 54q6 5 17 5q5 0 16 -1.5t16 -1.5t16 1t17 1q13 0 19 -5q10 -9 46 -120l154 -479q19 -59 19 -77zM406 321q0 6 -3 15l-67 209
q-24 76 -38 76h-2q-4 0 -5 -2q-1 -11 -3 -25q-4 -19 -11 -44q-67 -223 -67 -226q0 -11 18 -11h161q17 0 17 8z" />
    <glyph glyph-name="Edieresis" unicode="&#xcb;" horiz-adv-x="583" 
d="M518 10q0 -12 -12 -12q-24 0 -70.5 1t-70.5 1h-264q-16 0 -16 8q0 7 3 24.5t3 27.5v587q0 25 9 34.5t34 9.5h343q11 0 11 -8q0 -5 -1.5 -14.5t-1.5 -14.5q0 -4 1 -13t1 -14q0 -10 -11 -10q-14 0 -42 3t-42 3h-207q-26 0 -26 -8q0 -4 1.5 -11.5t1.5 -11.5v-179
q0 -21 22 -21h212q12 0 12 -10q0 -4 -1 -12t-1 -12t1 -12.5t1 -12.5q0 -9 -11 -9h-209q-26 0 -26 -28v-195q0 -20 6 -26.5t27 -6.5h226q19 0 24 10q2 4 3 28l2 34q1 12 8 12q5 0 14 -1t14 -1q4 0 12.5 1t12.5 1q7 0 7 -7q0 -10 -1 -30t-1 -30q0 -12 1 -37.5t1 -37.5z
M431 745q0 -10 -9 -10h-55q-11 0 -11 12q0 5 1 14t1 14q0 4 -1 11t-1 10q0 13 10 13h55q10 0 10 -11q0 -4 -1.5 -12t-1.5 -12q0 -5 1.5 -14.5t1.5 -14.5zM287 745q0 -10 -9 -10h-55q-11 0 -11 12q0 5 1 14t1 14q0 4 -1 11t-1 10q0 13 10 13h55q10 0 10 -11q0 -4 -1.5 -12
t-1.5 -12q0 -5 1.5 -14.5t1.5 -14.5z" />
    <glyph glyph-name="Egrave" unicode="&#xc8;" horiz-adv-x="583" 
d="M518 10q0 -12 -12 -12q-24 0 -70.5 1t-70.5 1h-264q-16 0 -16 8q0 7 3 24.5t3 27.5v587q0 25 9 34.5t34 9.5h343q11 0 11 -8q0 -5 -1.5 -14.5t-1.5 -14.5q0 -4 1 -13t1 -14q0 -10 -11 -10q-14 0 -42 3t-42 3h-207q-26 0 -26 -8q0 -4 1.5 -11.5t1.5 -11.5v-179
q0 -21 22 -21h212q12 0 12 -10q0 -4 -1 -12t-1 -12t1 -12.5t1 -12.5q0 -9 -11 -9h-209q-26 0 -26 -28v-195q0 -20 6 -26.5t27 -6.5h226q19 0 24 10q2 4 3 28l2 34q1 12 8 12q5 0 14 -1t14 -1q4 0 12.5 1t12.5 1q7 0 7 -7q0 -10 -1 -30t-1 -30q0 -12 1 -37.5t1 -37.5z
M383 736q0 -2 -5 -2h-42q-12 0 -39 33l-42 44q-36 37 -36 40t12 3h28q18 1 27 1t19 -14q1 -2 49 -49q29 -30 29 -56z" />
    <glyph glyph-name="Iacute" unicode="&#xcd;" horiz-adv-x="277" 
d="M257 841q0 -4 -26 -30q-35 -34 -52 -54q-27 -33 -39 -33h-43q-4 0 -4 2v2l18 22l59 81q11 14 19 14q10 0 28 -1h28q12 0 12 -3zM177 8q0 -8 -6 -8q-4 0 -31 3q-28 -7 -33 -7q-7 0 -7 10v667q0 18 13 18q4 0 11 -1.5t10 -1.5q5 0 14.5 1.5t14.5 1.5q10 0 10 -13
q0 -9 -1 -27.5t-1 -27.5v-516q0 -33 3 -66q3 -36 3 -33z" />
    <glyph glyph-name="Icircumflex" unicode="&#xce;" horiz-adv-x="277" 
d="M307 727q0 -6 -14 -6h-45q-10 0 -19 10t-17 20l-53 59q-12 14 -21 14q-8 0 -21 -14l-59 -62q-7 -9 -15 -18t-17 -9h-45q-10 0 -10 6q0 5 12 18l100 108q29 31 31 31h50q7 0 11 -7l7 -12l114 -122q11 -12 11 -16zM177 8q0 -8 -6 -8q-4 0 -31 3q-28 -7 -33 -7q-7 0 -7 10
v667q0 18 13 18q4 0 11 -1.5t10 -1.5q5 0 14.5 1.5t14.5 1.5q10 0 10 -13q0 -9 -1 -27.5t-1 -27.5v-516q0 -33 3 -66q3 -36 3 -33z" />
    <glyph glyph-name="Idieresis" unicode="&#xcf;" horiz-adv-x="277" 
d="M177 8q0 -8 -6 -8q-4 0 -31 3q-28 -7 -33 -7q-7 0 -7 10v667q0 18 13 18q4 0 11 -1.5t10 -1.5q5 0 14.5 1.5t14.5 1.5q10 0 10 -13q0 -9 -1 -27.5t-1 -27.5v-516q0 -33 3 -66q3 -36 3 -33zM247 745q0 -10 -9 -10h-55q-11 0 -11 12q0 5 1 14t1 14q0 4 -1 11t-1 10
q0 13 10 13h55q10 0 10 -11q0 -4 -1.5 -12t-1.5 -12q0 -5 1.5 -14.5t1.5 -14.5zM103 745q0 -10 -9 -10h-55q-11 0 -11 12q0 5 1 14t1 14q0 4 -1 11t-1 10q0 13 10 13h55q10 0 10 -11q0 -4 -1.5 -12t-1.5 -12q0 -5 1.5 -14.5t1.5 -14.5z" />
    <glyph glyph-name="Igrave" unicode="&#xcc;" horiz-adv-x="277" 
d="M177 8q0 -8 -6 -8q-4 0 -31 3q-28 -7 -33 -7q-7 0 -7 10v667q0 18 13 18q4 0 11 -1.5t10 -1.5q5 0 14.5 1.5t14.5 1.5q10 0 10 -13q0 -9 -1 -27.5t-1 -27.5v-516q0 -33 3 -66q3 -36 3 -33zM206 736q0 -2 -5 -2h-42q-12 0 -39 33l-42 44q-37 37 -37 40t13 3h28q18 1 27 1
t19 -14q1 -2 49 -49q29 -30 29 -56z" />
    <glyph glyph-name="Oacute" unicode="&#xd3;" 
d="M429 851q0 -4 -26 -30q-35 -34 -52 -54q-27 -33 -39 -33h-43q-4 0 -4 2v2l18 22l59 81q11 14 19 14q10 0 28 -1h28q12 0 12 -3zM568 340q0 -150 -56 -240q-68 -110 -207 -110q-255 0 -255 350q0 72 23 156q27 94 68 140q27 1 78 33.5t102 32.5q247 0 247 -362zM492 340
q0 299 -176 299q-106 0 -155 -101q-36 -76 -36 -195q0 -289 183 -289q101 0 148 98q36 75 36 188z" />
    <glyph glyph-name="Ocircumflex" unicode="&#xd4;" 
d="M487 727q0 -6 -14 -6h-45q-10 0 -19 10t-17 20l-53 59q-12 14 -21 14q-8 0 -21 -14l-59 -62q-7 -9 -15 -18t-17 -9h-45q-10 0 -10 6q0 5 12 18l100 108q29 31 31 31h50q7 0 11 -7l7 -12l114 -122q11 -12 11 -16zM568 340q0 -150 -56 -240q-68 -110 -207 -110
q-255 0 -255 350q0 72 23 156q27 94 68 140q27 1 78 33.5t102 32.5q247 0 247 -362zM492 340q0 299 -176 299q-106 0 -155 -101q-36 -76 -36 -195q0 -289 183 -289q101 0 148 98q36 75 36 188z" />
    <glyph glyph-name="Ograve" unicode="&#xd2;" 
d="M383 736q0 -2 -5 -2h-42q-12 0 -39 33l-42 44q-36 37 -36 40t12 3h28q18 1 27 1t19 -14q1 -2 49 -49q29 -30 29 -56zM568 340q0 -150 -56 -240q-68 -110 -207 -110q-255 0 -255 350q0 72 23 156q27 94 68 140q27 1 78 33.5t102 32.5q247 0 247 -362zM492 340
q0 299 -176 299q-106 0 -155 -101q-36 -76 -36 -195q0 -289 183 -289q101 0 148 98q36 75 36 188z" />
    <glyph glyph-name="Uacute" unicode="&#xda;" horiz-adv-x="648" 
d="M429 851q0 -4 -26 -30q-35 -34 -52 -54q-27 -33 -39 -33h-43q-4 0 -4 2v2l18 22l59 81q11 14 19 14q10 0 28 -1h28q12 0 12 -3zM573 682q0 -5 -1.5 -16t-1.5 -17v-342q0 -150 -50 -226q-61 -91 -202 -91q-138 0 -194 87q-45 71 -45 220v340q0 8 -2 23.5t-2 23.5t7 7
l35 -4q5 0 15 1.5t14 1.5q7 -3 7 -6q0 -12 -1.5 -37t-1.5 -37v-297q0 -190 81 -234q35 -19 93 -19q103 0 144 79q30 58 30 173v327q0 9 -3.5 24.5t-3.5 21.5t9 6q6 0 17.5 -1t17.5 -1h15q11 1 16 1q7 0 7 -8z" />
    <glyph glyph-name="Ucircumflex" unicode="&#xdb;" horiz-adv-x="648" 
d="M487 737q0 -6 -14 -6h-45q-10 0 -19 10t-17 20l-53 59q-12 14 -21 14q-8 0 -21 -14l-59 -62q-7 -9 -15 -18t-17 -9h-45q-10 0 -10 6q0 5 12 18l100 108q29 31 31 31h50q7 0 11 -7l7 -12l114 -122q11 -12 11 -16zM573 682q0 -5 -1.5 -16t-1.5 -17v-342q0 -150 -50 -226
q-61 -91 -202 -91q-138 0 -194 87q-45 71 -45 220v340q0 8 -2 23.5t-2 23.5t7 7l35 -4q5 0 15 1.5t14 1.5q7 -3 7 -6q0 -12 -1.5 -37t-1.5 -37v-297q0 -190 81 -234q35 -19 93 -19q103 0 144 79q30 58 30 173v327q0 9 -3.5 24.5t-3.5 21.5t9 6q6 0 17.5 -1t17.5 -1h15
q11 1 16 1q7 0 7 -8z" />
    <glyph glyph-name="Ugrave" unicode="&#xd9;" horiz-adv-x="648" 
d="M393 736q0 -2 -5 -2h-42q-12 0 -39 33l-42 44q-36 37 -36 40t12 3h28q18 1 27 1t19 -14q1 -2 49 -49q29 -30 29 -56zM573 682q0 -5 -1.5 -16t-1.5 -17v-342q0 -150 -50 -226q-61 -91 -202 -91q-138 0 -194 87q-45 71 -45 220v340q0 8 -2 23.5t-2 23.5t7 7l35 -4
q5 0 15 1.5t14 1.5q7 -3 7 -6q0 -12 -1.5 -37t-1.5 -37v-297q0 -190 81 -234q35 -19 93 -19q103 0 144 79q30 58 30 173v327q0 9 -3.5 24.5t-3.5 21.5t9 6q6 0 17.5 -1t17.5 -1h15q11 1 16 1q7 0 7 -8z" />
    <glyph glyph-name="circumflex" unicode="&#x2c6;" horiz-adv-x="496" 
d="M416 545q0 -6 -14 -6h-45q-10 0 -19 10t-17 20l-53 59q-13 14 -21 14t-21 -14l-59 -62q-7 -9 -15 -18t-17 -9h-45q-10 0 -10 6q0 5 12 18l100 108q29 31 31 31h50q6 0 11 -7l7 -12l114 -122q11 -12 11 -16z" />
    <glyph glyph-name="tilde" unicode="&#x2dc;" horiz-adv-x="530" 
d="M435 665q0 -48 -24 -80q-27 -35 -74 -35q-30 0 -80.5 36.5t-69.5 36.5q-35 0 -40 -54q-2 -20 -11 -20q-3 0 -8 1t-8 1t-8 -1h-8q-14 0 -14 8q0 53 24 86q27 38 77 38q29 0 79 -37t69 -37q35 0 40 55q2 20 10 20q3 0 8.5 -1t8.5 -1t8.5 1t8.5 1q12 0 12 -18z" />
    <glyph glyph-name="macron" unicode="&#xaf;" horiz-adv-x="540" 
d="M413 598q0 -13 -31 -13h-231q-22 0 -22 11v44q0 10 25 10h232q27 0 27 -14v-38z" />
    <glyph glyph-name="macron" unicode="&#x2c9;" horiz-adv-x="540" 
d="M413 598q0 -13 -31 -13h-231q-22 0 -22 11v44q0 10 25 10h232q27 0 27 -14v-38z" />
    <glyph glyph-name="cedilla" unicode="&#xb8;" horiz-adv-x="540" 
d="M379 -110q0 -88 -112 -88q-53 0 -81 12q-10 4 -10 17v54q0 6 3 6q5 0 7 -5q16 -32 70 -32q59 0 59 39q0 37 -60 37q-5 0 -14 -1t-14 -1q-8 0 -8 14q0 -4 9 70q1 8 6 8h40q13 0 13 -9q0 -6 -2.5 -18t-2.5 -18q0 -10 13 -10q36 0 60 -20t24 -55z" />
    <glyph glyph-name="notequal" unicode="&#x2260;" horiz-adv-x="531" 
d="M451 136q0 -19 -19 -19h-230l-42 -60q-10 -14 -18 -27q-21 -36 -22 -36q5 0 -19 5q-16 3 -16 5q0 1 78 113h-63q-18 0 -20 12q0 -1 0 30q0 13 4 15.5t18 2.5h102l89 128h-193q-18 0 -20 12q0 -1 0 30q0 13 4 15.5t18 2.5h232l46 66l16 26q13 21 17 21q5 0 15 -1t15 -1
t4 -2q-6 -11 -74 -109h56q19 0 22 -11q0 1 0 -30q0 -19 -19 -19h-100l-89 -128h186q19 0 22 -11q0 1 0 -30z" />
    <glyph glyph-name="infinity" unicode="&#x221e;" horiz-adv-x="875" 
d="M805 240q0 -82 -48.5 -136t-129.5 -54q-79 0 -146 68q-9 8 -23 26q-4 9 -8 17q-7 13 -12 13t-12 -14q-5 -10 -10 -18t-19 -24q-63 -68 -148 -68t-133 56q-46 53 -46 139q0 82 51.5 134t133.5 52q51 0 99 -31q44 -28 73 -74q12 -20 13 -20l13 22q60 103 176 103
q81 0 130 -55q46 -53 46 -136zM743 243q0 54 -34.5 91.5t-88.5 37.5q-45 0 -96 -43.5t-51 -87.5t56 -89q53 -42 99 -42q52 0 85 41q30 39 30 92zM405 240q0 41 -54.5 86.5t-96.5 45.5q-55 0 -88 -38.5t-33 -93.5q0 -57 34.5 -93.5t91.5 -36.5q42 0 94 44.5t52 85.5z" />
    <glyph glyph-name="lessequal" unicode="&#x2264;" horiz-adv-x="511" 
d="M384 142q0 -8 -12 -8h-53q-12 0 -31 14l-182 137q-10 8 -10 15t9 14l182 138q18 14 30 14h56q11 0 11 -8q0 -4 -5 -8l-181 -132q-9 -7 -9 -13q0 -7 9 -14l180 -138q6 -5 6 -11zM431 46q0 -19 -19 -19h-315q-17 0 -17 21v20q0 13 4 15.5t18 2.5h307q14 0 18 -3t4 -15v-22z
" />
    <glyph glyph-name="greaterequal" unicode="&#x2265;" horiz-adv-x="511" 
d="M415 300q0 -7 -10 -15l-182 -137q-19 -14 -31 -14h-53q-12 0 -12 8q0 6 6 11l180 138q9 7 9 14q0 6 -9 13l-181 132q-5 4 -5 8q0 8 11 8h56q12 0 30 -14l182 -138q9 -7 9 -14zM431 48q0 -21 -17 -21h-315q-19 0 -19 19v22q0 12 4 15t18 3h307q14 0 18 -2.5t4 -15.5v-20z
" />
    <glyph glyph-name="partialdiff" unicode="&#x2202;" horiz-adv-x="603" 
d="M523 343q0 -353 -234 -353q-100 0 -158 78q-51 70 -51 174t50 176q57 81 157 81q49 0 94.5 -34.5t53.5 -34.5q7 0 7 16q0 82 -48 145q-52 67 -132 67q-60 0 -106 -21l-9 -4q-7 0 -7 29q-7 17 -7 24q0 8 11 12q55 21 117 21q142 0 209 -123q53 -98 53 -253zM442 252
q0 187 -149 187q-74 0 -112 -65q-31 -53 -31 -132q0 -73 34 -127q39 -62 108 -62q150 0 150 199z" />
    <glyph glyph-name="summation" unicode="&#x2211;" horiz-adv-x="644" 
d="M554 10q0 -12 -12 -12q-24 0 -70.5 1t-70.5 1h-307q-14 0 -14 8q0 4 3 13t3 14q0 48 8 57l221 251q0 1 7 6t7 8t-6.5 7.5t-7.5 5.5l-206 230q-10 11 -10 26v38q0 18 6.5 22.5t25.5 4.5h382q11 0 11 -8q0 -5 -1.5 -14t-1.5 -13t1 -12t1 -12q0 -10 -11 -10q-14 0 -42 3
t-42 3h-211q-26 0 -26 -8l12 -14l183 -209q12 -14 12 -22v-39q0 -7 -14 -22l-198 -219q-12 -13 -12 -19q0 -8 23 -8h260q19 0 24 10q2 4 3 28l2 34q1 12 8 12q5 0 14 -1t14 -1q4 0 12.5 1t12.5 1q7 0 7 -8q0 -11 -1 -32t-1 -32q0 -12 1 -35t1 -35z" />
    <glyph glyph-name="product" unicode="&#x220f;" horiz-adv-x="662" 
d="M572 17q0 -17 -8 -17t-25 4q-19 -4 -25 -4q-14 0 -16 20q0 -3 0 32v544q0 44 -24 44q-7 0 -23.5 -8t-19.5 -8h-247q-22 0 -22 -31v-527q0 -10 2.5 -29t2.5 -28t-8 -9q-4 0 -13 2t-13 2q-5 0 -16 -2t-16 -2q-10 0 -10 60l-1 614q0 17 11 17h460q9 0 9 -13v-19
q-1 -12 -1 -18v-533q0 -15 1.5 -45.5t1.5 -45.5z" />
    <glyph glyph-name="pi" unicode="&#x3c0;" horiz-adv-x="643" 
d="M593 496q0 -5 -5 -12q-31 -46 -104 -74q-5 -2 -5 -6t2.5 -12t2.5 -13v-311q0 -10 3.5 -29t3.5 -29q0 -9 -7 -9q-9 0 -26 3q-14 -3 -24 -3q-13 0 -13 23v356q0 22 -18 22h-174v-256q0 -153 -134 -153q-25 0 -25 11q0 3 1 10t1 10q0 4 -1 11.5t-1 11.5q0 7 3.5 9t9.5 1
q11 -1 12 -1q71 0 71 111v215q0 20 -16 20h-53q-23 0 -23 13q0 10 3 24q-3 17 -3 26q0 7 9 7q10 0 29 -3.5t29 -3.5h254q109 0 142 63q2 3 4 3q6 0 24 -20q28 -11 28 -15z" />
    <glyph glyph-name="integral" unicode="&#x222b;" horiz-adv-x="421" 
d="M361 654q0 -5 -6 -5q-5 0 -16 1.5t-16 1.5q-114 0 -114 -102q0 -19 2 -33l62 -442q2 -14 2 -31q0 -80 -51 -130.5t-131 -50.5q-33 0 -33 9q0 5 5 24q-2 17 -2 24q0 8 7 8q5 0 16 -1.5t17 -1.5q48 0 78 26t30 73q0 16 -2 30l-63 454q-2 14 -2 25q0 78 51 129.5t129 51.5
q37 0 37 -12q0 -4 -1 -11.5t-1 -11.5t1 -12.5t1 -12.5z" />
    <glyph glyph-name="Omega" unicode="&#x3a9;" horiz-adv-x="717" 
d="M637 7q0 -9 -9 -9q-14 0 -41 1t-41 1h-153q-8 0 -8 7q0 4 1 11t1 11t-1.5 12.5t-1.5 12.5q0 8 16 13q80 25 121 123q33 79 33 177q0 115 -40 188q-51 92 -156 92t-156 -92q-40 -73 -40 -188q0 -95 32 -175q41 -100 118 -123q21 -6 21 -14q0 -4 -1.5 -12.5t-1.5 -12.5
t1 -12t1 -12q0 -6 -12 -6h-150q-13 0 -39 -1t-39 -1q-12 0 -12 10q0 4 1 13t1 13q0 5 -1 14t-1 14q0 6 8 6q10 0 30.5 -2.5t30.5 -2.5h67q10 0 10 6q0 5 -10 12q-126 93 -126 285q0 149 61 236q70 100 211 100q140 0 207 -102q57 -86 57 -234q0 -188 -121 -281
q-14 -11 -14 -16q0 -6 15 -6h61q11 0 32 2t31 2q6 0 6 -4q0 -5 -1 -14.5t-1 -14.5q0 -4 1.5 -13.5t1.5 -13.5z" />
    <glyph glyph-name="Omega" unicode="&#x2126;" horiz-adv-x="717" 
d="M637 7q0 -9 -9 -9q-14 0 -41 1t-41 1h-153q-8 0 -8 7q0 4 1 11t1 11t-1.5 12.5t-1.5 12.5q0 8 16 13q80 25 121 123q33 79 33 177q0 115 -40 188q-51 92 -156 92t-156 -92q-40 -73 -40 -188q0 -95 32 -175q41 -100 118 -123q21 -6 21 -14q0 -4 -1.5 -12.5t-1.5 -12.5
t1 -12t1 -12q0 -6 -12 -6h-150q-13 0 -39 -1t-39 -1q-12 0 -12 10q0 4 1 13t1 13q0 5 -1 14t-1 14q0 6 8 6q10 0 30.5 -2.5t30.5 -2.5h67q10 0 10 6q0 5 -10 12q-126 93 -126 285q0 149 61 236q70 100 211 100q140 0 207 -102q57 -86 57 -234q0 -188 -121 -281
q-14 -11 -14 -16q0 -6 15 -6h61q11 0 32 2t31 2q6 0 6 -4q0 -5 -1 -14.5t-1 -14.5q0 -4 1.5 -13.5t1.5 -13.5z" />
    <glyph glyph-name="radical" unicode="&#x221a;" horiz-adv-x="645" 
d="M575 639q0 -10 -13 -10h-72q-9 0 -12 -11l-150 -561l-10 -55q-5 -8 -56 -8q-10 0 -14 3l-21 56l-134 358q-23 61 -23 76q0 9 10 9h23q5 0 15 2t15 2q9 0 12.5 -13.5t5.5 -24.5q3 -14 8 -27l90 -243q9 -26 17 -52q16 -44 22 -44q4 0 4 23q0 29 7 56l120 460q4 18 13 53
q3 13 12 13q5 0 15 -2t15 -2h92q9 0 9 -10v-48z" />
    <glyph glyph-name="approxequal" unicode="&#x2248;" horiz-adv-x="538" 
d="M458 321q0 -17 -12 -27q-31 -21 -80 -21q-34 0 -97.5 22.5t-97.5 22.5q-28 0 -60 -16.5t-28 -16.5q-3 0 -3 7v37q0 16 10 24q37 29 85 29q33 0 95.5 -21.5t95.5 -21.5q45 0 80 24q6 4 8 4q4 0 4 -8v-38zM458 153q0 -17 -12 -27q-31 -21 -80 -21q-34 0 -97.5 22.5
t-97.5 22.5q-28 0 -60 -16.5t-28 -16.5q-3 0 -3 7v37q0 16 10 24q37 29 85 29q33 0 95.5 -21.5t95.5 -21.5q45 0 80 24q6 4 8 4q4 0 4 -8v-38z" />
    <glyph glyph-name="approxequal" unicode="&#x22f2;" horiz-adv-x="538" 
d="M458 321q0 -17 -12 -27q-31 -21 -80 -21q-34 0 -97.5 22.5t-97.5 22.5q-28 0 -60 -16.5t-28 -16.5q-3 0 -3 7v37q0 16 10 24q37 29 85 29q33 0 95.5 -21.5t95.5 -21.5q45 0 80 24q6 4 8 4q4 0 4 -8v-38zM458 153q0 -17 -12 -27q-31 -21 -80 -21q-34 0 -97.5 22.5
t-97.5 22.5q-28 0 -60 -16.5t-28 -16.5q-3 0 -3 7v37q0 16 10 24q37 29 85 29q33 0 95.5 -21.5t95.5 -21.5q45 0 80 24q6 4 8 4q4 0 4 -8v-38z" />
    <glyph glyph-name="Delta" unicode="&#x394;" horiz-adv-x="648" 
d="M578 12q0 -12 -11 -12h-481q-16 0 -16 16v51q0 3 6 22l151 486l18 58q15 45 25 54q6 5 17 5q5 0 16 -1.5t16 -1.5t16 1t17 1q13 0 19 -5q11 -10 46 -120l154 -482q7 -22 7 -72zM496 73q0 6 -3 15l-145 457q-24 76 -40 76q-4 0 -5 -2q-1 -11 -3 -25q-4 -19 -11 -44
q-142 -471 -142 -474q0 -11 18 -11h314q17 0 17 8z" />
    <glyph glyph-name="Delta" unicode="&#x2206;" horiz-adv-x="648" 
d="M578 12q0 -12 -11 -12h-481q-16 0 -16 16v51q0 3 6 22l151 486l18 58q15 45 25 54q6 5 17 5q5 0 16 -1.5t16 -1.5t16 1t17 1q13 0 19 -5q11 -10 46 -120l154 -482q7 -22 7 -72zM496 73q0 6 -3 15l-145 457q-24 76 -40 76q-4 0 -5 -2q-1 -11 -3 -25q-4 -19 -11 -44
q-142 -471 -142 -474q0 -11 18 -11h314q17 0 17 8z" />
    <glyph glyph-name="lozenge" unicode="&#x25ca;" horiz-adv-x="510" 
d="M440 265q0 -9 -9 -24q-37 -61 -91 -159q-12 -25 -40 -72q-7 -10 -21 -11q12 1 -24 1q-5 0 -14.5 -1t-14.5 -1q-8 0 -15 14q-23 45 -65 114q-63 104 -68 113q-8 14 -8 23q0 10 8 21q75 105 114 168q8 15 26 45q2 3 6 3q5 0 15 -1.5t15 -1.5q6 0 16.5 1t16.5 1q7 0 12 -10
q8 -17 44 -73l90 -133q7 -10 7 -17zM370 257q0 7 -10 22l-79 123q-6 12 -11 23q-9 18 -15 18t-27 -37q-7 -12 -85 -130q-5 -8 -5 -12q0 -8 42 -76l49 -80l12 -27q8 -19 15 -19q3 0 29 45q85 148 85 150z" />
    <glyph glyph-name="fraction" unicode="&#x2044;" horiz-adv-x="566" 
d="M526 601q0 -8 -15 -29l-381 -525l-18 -29q-16 -23 -22 -23q-17 0 -44 6q-6 1 -6 5l407 563q6 11 13 21q11 18 14 18q8 0 24 -1t24 -1q4 0 4 -5z" />
    <glyph glyph-name="fi" unicode="&#xf001;" horiz-adv-x="607" 
d="M513 602q0 -10 -9 -10h-55q-11 0 -11 12q0 5 1 14t1 14q0 4 -1 10.5t-1 10.5q0 13 10 13h55q10 0 10 -11q0 -4 -1.5 -12t-1.5 -12q0 -5 1.5 -14.5t1.5 -14.5zM517 10q0 -10 -7 -10q-5 0 -15 1.5t-15 1.5q-4 0 -13 -1.5t-14 -1.5q-6 0 -7 8q-2 5 -1 16q1 14 1 13v376
q0 16 -19 16h-196q-4 0 -11.5 1.5t-11.5 1.5q-5 0 -5 -23v-348q0 -89 -47 -142q-50 -56 -137 -56q-19 0 -19 9q0 4 2.5 12.5t2.5 11.5v12q-1 9 -1 12q0 8 7 8q8 0 25 -1.5t25 -1.5q35 0 49 9q19 11 25 44q4 22 4 58v375q0 13 -2 15.5t-14 2.5h-44q-12 0 -12 10q0 3 1 9.5
t1 9.5t-1 8.5t-1 8.5q0 9 10 9h45q2 0 5 -2t5 -2q5 0 7 28q5 88 53 144q52 62 137 62q37 0 37 -12q0 -4 -1.5 -11.5t-1.5 -11.5t1 -12.5t1 -12.5q0 -5 -6 -5q-5 0 -16 1.5t-16 1.5q-124 0 -124 -135q0 -23 5 -28t28 -5h220q8 0 23 1.5t22 1.5q12 0 12 -10q0 -3 -1.5 -10
t-1.5 -11v-371q0 -23 3 -46q4 -30 4 -29z" />
    <glyph glyph-name="fl" unicode="&#xf002;" horiz-adv-x="680" 
d="M650 15q0 -13 -33 -20q-24 -5 -44 -5q-61 0 -86 44q-19 33 -19 100v454q0 23 -4 30.5t-23 15.5q-44 18 -114 18q-124 0 -124 -135q0 -23 5 -28t28 -5h117q10 0 10 -8q0 -6 -1 -18t-1 -19q0 -10 -13 -10h-117q-4 0 -11.5 1.5t-11.5 1.5q-5 0 -5 -23v-348q0 -89 -47 -142
q-50 -56 -137 -56q-19 0 -19 9q0 4 2.5 12.5t2.5 11.5v12q-1 9 -1 12q0 8 7 8q8 0 25 -1.5t25 -1.5q35 0 49 9q19 11 25 44q4 22 4 57v376q0 13 -2 15.5t-14 2.5h-44q-12 0 -12 10q0 3 1 9.5t1 9.5t-1 8.5t-1 8.5q0 9 10 9h45q2 0 5 -2t5 -2q5 0 7 28q5 88 53 144
q52 62 137 62q63 0 116 -14q15 -4 30 -4q9 0 29 9t29 9q5 0 5 -9q0 -10 -3.5 -29t-3.5 -29v-515q0 -83 48 -83q23 0 45 8t20 8q6 0 6 -9q0 -4 -1 -11t-1 -10t1 -10t1 -10z" />
    <glyph glyph-name="dotlessi" unicode="&#x131;" horiz-adv-x="269" 
d="M174 10q0 -10 -7 -10q-5 0 -15 1.5t-15 1.5q-4 0 -13 -1.5t-14 -1.5q-6 0 -7.5 6t-0.5 16q1 14 1 13v383q0 10 -1.5 31t-1.5 32q0 15 11 15q6 0 24 -3q15 3 23 3q12 0 12 -10q0 -5 -1.5 -15t-1.5 -15v-371q0 -24 3 -48z" />
    <glyph glyph-name="breve" unicode="&#x2d8;" horiz-adv-x="540" 
d="M432 693q0 -4 -3 -17q-14 -62 -54 -99q-43 -40 -105 -40q-123 0 -159 143l-4 16q0 4 14 4h38q17 0 20 -13q18 -91 91 -91q71 0 92 90q3 14 19 14h42q9 0 9 -7z" />
    <glyph glyph-name="dotaccent" unicode="&#x2d9;" horiz-adv-x="540" 
d="M315 603q0 -15 -12 -15h-66q-12 0 -12 15q0 6 1 16.5t1 16.5q0 5 -1.5 14.5t-1.5 14.5q0 12 12 12h66q12 0 12 -15q0 -5 -1 -13.5t-1 -13.5t1.5 -16t1.5 -16z" />
    <glyph glyph-name="ring" unicode="&#x2da;" horiz-adv-x="540" 
d="M374 637q0 -45 -30.5 -74.5t-75.5 -29.5q-46 0 -76 29t-30 75q0 45 30.5 74t75.5 29q46 0 76 -29t30 -74zM327 637q0 26 -16.5 42.5t-42.5 16.5q-27 0 -43.5 -16.5t-16.5 -42.5t17 -43t43 -17t42.5 17t16.5 43z" />
    <glyph glyph-name="hungarumlaut" unicode="&#x2dd;" horiz-adv-x="540" 
d="M381 695q0 -3 -4 -11l-50 -98q-9 -21 -23 -45q-3 -2 -9 -2h-33q-8 0 -8 6q6 13 13 30l35 109q6 19 13 19h9q7 -1 10 -1h33q14 0 14 -7zM264 695q0 -3 -4 -11l-50 -98q-9 -21 -23 -45q-3 -2 -9 -2h-33q-8 0 -8 6q6 13 13 30l35 109q6 19 13 19h9q7 -1 10 -1h33q14 0 14 -7
z" />
    <glyph glyph-name="ogonek" unicode="&#x2db;" horiz-adv-x="540" 
d="M343 -176q0 -11 -43 -18q-29 -4 -55 -4q-106 0 -106 95q0 69 86 117q11 6 21 6h52q12 0 12 -6q0 -4 -7 -7q-37 -16 -65 -40q-35 -32 -35 -64q0 -49 59 -49q53 0 70 32q3 6 6 6q4 0 4 -7q0 -10 1 -31v-30z" />
    <glyph glyph-name="caron" unicode="&#x2c7;" horiz-adv-x="540" 
d="M438 695q0 -5 -12 -18l-100 -108q-29 -31 -31 -31h-50q-6 0 -11 7l-7 12l-114 122q-11 12 -11 16q0 6 14 6h45q10 0 19 -10t17 -20l53 -59q13 -14 21 -14t21 14l59 62q7 9 15 18t17 9h45q10 0 10 -6z" />
    </font>
</defs>
</svg>
