<?xml version="1.0" standalone="no"?>
<!DOCTYPE svg PUBLIC "-//W3C//DTD SVG 1.1//EN" "http://www.w3.org/Graphics/SVG/1.1/DTD/svg11.dtd" >
<svg>
<metadata>
Created by FontForge 20090622 at Fri May 17 09:04:31 2019
 By deploy user
(r) (c) 2003 [T&#226;&#128;&#144;26] Chicago www.t26.com 773.862.1201 T0943 ID#5134527 designer: Xavier Dupre asst. by Silas Dilworth
</metadata>
<defs>
<font id="SpotkaBlack" horiz-adv-x="500" >
  <font-face 
    font-family="SpotkaBlack"
    font-weight="400"
    font-stretch="normal"
    units-per-em="1000"
    panose-1="0 0 4 0 0 0 0 0 0 0"
    ascent="800"
    descent="-200"
    x-height="496"
    cap-height="693"
    bbox="-23 -202 1005 894"
    underline-thickness="20"
    underline-position="-123"
    unicode-range="U+0020-U+F002"
  />
<missing-glyph 
d="M63 0v750h375v-750h-375zM125 63h250v625h-250v-625z" />
    <glyph glyph-name=".notdef" 
d="M63 0v750h375v-750h-375zM125 63h250v625h-250v-625z" />
    <glyph glyph-name=".null" horiz-adv-x="0" 
 />
    <glyph glyph-name="nonmarkingreturn" horiz-adv-x="260" 
 />
    <glyph glyph-name="space" unicode=" " horiz-adv-x="260" 
 />
    <glyph glyph-name="exclam" unicode="!" horiz-adv-x="350" 
d="M260 651q0 -8 -4 -52l-28 -311q-3 -33 -3 -61q0 -10 1 -24v-18q0 -14 -11 -14q-8 0 -49 3q-26 -4 -31 -4q-10 0 -14 55l-2 67l-27 319q-2 24 -2 35q0 18 16 18q18 0 57 -1l81 3q16 0 16 -15zM243 22q0 -22 -15 -22h-101q-17 0 -17 25q0 7 1 22.5t1 23.5q0 6 -1.5 19.5
t-1.5 19.5q0 21 17 21h101q16 0 16 -22q0 -8 -2.5 -22t-2.5 -19q0 -7 2.5 -23t2.5 -23z" />
    <glyph glyph-name="quotedbl" unicode="&#x22;" horiz-adv-x="449" 
d="M389 680q0 -3 -9 -48t-11 -65l-7 -83q-1 -12 -18 -12h-63q-15 0 -16 12l-7 83q-2 21 -10 67q-8 43 -8 45q0 12 20 12h107q22 0 22 -11zM209 680q0 -3 -9 -48t-11 -65l-7 -83q-1 -12 -18 -12h-63q-15 0 -16 12l-7 83q-2 21 -10 67q-8 43 -8 45q0 12 20 12h107q22 0 22 -11
z" />
    <glyph glyph-name="numbersign" unicode="#" horiz-adv-x="561" 
d="M521 407q0 -3 -13 -51l-6 -49q0 -10 -5 -10q-3 0 -18 2t-31 2h-16l-22 -99h73q5 0 9.5 1.5t8.5 1.5t4 -4t-13 -52q-7 -46 -7 -49q0 -8 -16 -8q-3 0 -19 1.5t-30 1.5h-34l-9 -34q-6 -21 -10 -52q-2 -10 -9 -10q-3 0 -47 4l-50 -3q-5 0 -5 2q0 -7 7 23l17 70h-77l-9 -34
q-4 -15 -12 -52q-2 -10 -7 -10q-3 0 -53 4q-39 -3 -45 -3q-4 0 -4 4q2 5 7 21l17 70h-47q-10 0 -10 6q0 3 14 49q8 47 8 51t8 4q4 0 17 -1.5t25 -1.5h9l22 99h-77q-9 0 -9 5q0 2 16 56q6 41 6 45t6 4q3 0 16.5 -1.5t26.5 -1.5h39l8 40l4 27q3 21 9 21t55 -3l43 3q4 0 4 -6
q0 -1 -4 -20l-13 -62h77l9 40l4 27q3 21 9 21t55 -3q36 3 42 3q5 0 5 -6q0 -2 -4 -20l-14 -62h44q4 0 9 1.5t7 1.5q5 0 5 -4zM327 301h-78l-22 -99h77z" />
    <glyph glyph-name="dollar" unicode="$" horiz-adv-x="531" 
d="M481 164q0 -133 -137 -164v-63q0 -6 2 -17.5t2 -16.5q0 -6 -13 -6h-39q-7 0 -7 6q0 5 2 17.5t2 18.5v53q-21 -2 -34 -2q-11 0 -28 1v-52q0 -6 1.5 -17.5t1.5 -17.5q0 -7 -10 -7h-36q-9 0 -9 8q0 5 1 17.5t1 17.5v56q-74 13 -119 50q-12 10 -12 20q0 8 29 50q13 55 22 55
q4 0 24 -15q65 -50 149 -50q43 0 43 28q0 22 -65 41q-89 26 -122 47q-65 43 -65 124q0 54 36 95q33 38 87 54v60q0 6 -2.5 21t-2.5 20q0 6 9 6h44q7 0 7 -6q0 -5 -2.5 -19t-2.5 -20v-53q19 2 33 2q12 0 29 -1v54q0 6 -1.5 18t-1.5 18q0 7 9 7h38q9 0 9 -8q0 -5 -1.5 -15
t-1.5 -15v-64q110 -19 110 -50q0 -9 -22 -48l-9 -41q-5 -19 -13 -19q-5 0 -17 10q-50 42 -129 42q-49 0 -49 -26t67 -45q97 -27 126 -44q67 -39 67 -115z" />
    <glyph glyph-name="percent" unicode="%" horiz-adv-x="707" 
d="M667 129q0 -59 -36 -97q-39 -42 -107 -42q-146 0 -146 136q0 64 40 100t108 36q141 0 141 -133zM562 494l-20 -30l-257 -382q-20 -30 -43 -69q-11 -21 -16 -21q-1 0 -11.5 4t-22.5 4h-47q-4 0 -5 3q0 2 6 9q10 10 16 19l272 402q11 16 33 54q8 13 15 13q3 0 40 -2h35
q5 0 5 -4zM329 374q0 -59 -36 -97q-39 -42 -107 -42q-146 0 -146 136q0 64 40 100t108 36q141 0 141 -133zM556 123q0 57 -33 57q-34 0 -34 -55q0 -53 33 -53q34 0 34 51zM218 368q0 57 -33 57q-34 0 -34 -55q0 -53 33 -53q34 0 34 51z" />
    <glyph glyph-name="ampersand" unicode="&#x26;" horiz-adv-x="736" 
d="M696 331q0 -135 -90 -233q-99 -108 -261 -108q-151 0 -228 60.5t-77 172.5q0 47 28 109q34 72 77 72q4 0 16 -7t17 -7q18 0 18 11q0 3 -11 11.5t-15 12.5q-40 43 -40 104q0 69 53 109t142 40q83 0 131.5 -37t48.5 -100q0 -50 -35 -91q-28 -34 -73 -53q-12 -5 -12 -10
q0 -2 17 -20l74 -78q10 -11 10 -18t-58 -46q-46 -51 -53 -51q-5 0 -17 14l-82 98q-21 25 -25 25q-7 0 -12 -5q-26 -24 -26 -74q0 -46 32 -76q36 -33 99 -33q80 0 131 58q44 51 44 114q0 7 6 16.5t6 12.5q0 6 -6 6q-3 0 -11 -2.5t-12 -2.5h-14q-10 0 -10 11q0 10 9 43l-4 50
q0 11 15 11h148q9 0 19.5 2t12.5 2q8 0 10 -10q8 -34 8 -103zM368 537q0 53 -43 53q-50 0 -50 -58q0 -41 24 -64q7 -7 14 -7t17 5q38 19 38 71z" />
    <glyph glyph-name="quotesingle" unicode="'" horiz-adv-x="269" 
d="M209 680q0 -3 -9 -48t-11 -65l-7 -83q-1 -12 -18 -12h-63q-15 0 -16 12l-7 83q-2 21 -10 67q-8 43 -8 45q0 12 20 12h107q22 0 22 -11z" />
    <glyph glyph-name="parenleft" unicode="(" horiz-adv-x="385" 
d="M345 -83q0 -6 -9 -47v-50q0 -6 -8 -6q-278 0 -278 448q0 217 86 332q75 100 189 100q8 0 8 -6v-49q9 -44 9 -51q0 -8 -8 -8q-71 0 -100.5 -75.5t-29.5 -242.5q0 -195 25 -263q27 -71 104 -71q12 0 12 -11z" />
    <glyph glyph-name="parenright" unicode=")" horiz-adv-x="385" 
d="M335 246q0 -217 -86 -332q-75 -100 -189 -100q-8 0 -8 6v49q-9 44 -9 51q0 8 8 8q71 0 101 77q29 74 29 241q0 195 -26 264.5t-103 69.5q-12 0 -12 11q0 6 9 47v50q0 6 8 6q278 0 278 -448z" />
    <glyph glyph-name="asterisk" unicode="*" horiz-adv-x="478" 
d="M438 511q0 -8 -14 -10l-59 -8q-6 -1 -7.5 -3t-3 -8.5t-6 -19t-4.5 -16.5t7 -11l37 -38q8 -8 8 -15q0 -9 -46 -35q-33 -35 -42 -35t-13 9l-29 61q-3 7 -9 7h-8q-5 -1 -8 -1q-4 0 -12 1t-12 1q-5 0 -9 -9l-22 -54q-5 -13 -12 -13t-48 38q-51 24 -51 32q0 6 5 11l49 46
q3 3 3 7q0 5 -3 13q-2 4 -4.5 15t-4 13.5t-11.5 3.5l-54 8q-15 2 -15 10t22 54q13 52 20 52t11 -2l48 -27q7 -4 8 -4q2 0 10 8q6 5 18 12.5t12 16.5v4l-9 50l-1 6q0 14 13 14q10 0 47 -2l48 2q14 0 14 -10q0 -3 -1 -7l-12 -51q-1 -4 -1 -7q0 -6 11 -12q6 -3 16 -12t13 -9
q1 0 8 3l50 23q9 4 17 4q6 0 17 -56q19 -45 19 -50zM279 505q0 41 -40 41q-42 0 -42 -41q0 -40 42 -40q40 0 40 40z" />
    <glyph glyph-name="plus" unicode="+" horiz-adv-x="511" 
d="M471 199q0 -13 -2 -15.5t-14 -2.5h-122q-16 0 -16 -20v-133q0 -19 -18 -19h-89q-16 0 -16 18v135q0 13 -4 16t-14 3h-118q-13 0 -15.5 3t-2.5 16v84q0 15 20 15h122q12 0 12 18v131q0 13 3 16t14 3h88q12 0 15 -3.5t3 -16.5v-130q0 -18 20 -18h116q12 0 15 -2.5t3 -14.5
v-83z" />
    <glyph glyph-name="comma" unicode="," horiz-adv-x="286" 
d="M226 130q0 -7 -2 -22t-2 -20q0 -40 -2.5 -52t-17.5 -42l-34 -68q-35 -70 -62 -98l-66 21q0 20 32 111q23 66 23 129q0 6 -1.5 20t-1.5 20q0 19 14 19h107q13 0 13 -18z" />
    <glyph glyph-name="hyphen" unicode="-" horiz-adv-x="326" 
d="M276 233q0 -13 -25 -13h-121q-18 0 -39.5 -2t-24.5 -2q-16 0 -16 17v104q0 13 19 13h128q20 0 41 1h24q14 0 14 -14v-104z" />
    <glyph glyph-name="hyphen" unicode="&#x2010;" horiz-adv-x="326" 
d="M276 233q0 -13 -25 -13h-121q-18 0 -39.5 -2t-24.5 -2q-16 0 -16 17v104q0 13 19 13h128q20 0 41 1h24q14 0 14 -14v-104z" />
    <glyph glyph-name="period" unicode="." horiz-adv-x="253" 
d="M193 25q0 -25 -15 -25h-100q-17 0 -17 28q0 7 1 25t1 27q0 7 -1.5 22.5t-1.5 22.5q0 23 17 23h100q16 0 16 -25q0 -9 -2.5 -25t-2.5 -21q0 -8 2.5 -26t2.5 -26z" />
    <glyph glyph-name="slash" unicode="/" horiz-adv-x="436" 
d="M416 684q0 -3 -7 -16q-9 -16 -12 -26l-177 -529q-41 -124 -54 -124q-1 0 -10.5 5.5t-20.5 5.5h-111q-3 0 -4 4q0 3 7.5 13.5t12.5 25.5l189 556q32 93 44 93q3 0 104 -3h34q5 0 5 -5z" />
    <glyph glyph-name="zero" unicode="0" horiz-adv-x="576" 
d="M526 237q0 -117 -63.5 -182t-171.5 -65q-130 0 -188 70q-53 63 -53 192q0 255 244 255q113 0 169 -58q63 -66 63 -212zM354 240q0 153 -67 153q-68 0 -68 -146q0 -142 67 -142q68 0 68 135z" />
    <glyph glyph-name="one" unicode="1" horiz-adv-x="517" 
d="M457 12q0 -12 -9 -12q-10 0 -167 4l-206 -4q-13 0 -13 14q0 8 4 50q-6 40 -6 49t14 9h8q7 -1 11 -1h96q26 0 26 7q0 2 -2.5 8.5t-2.5 13.5v190q0 20 -9 20q-5 0 -12 -2l-106 -29q-4 -1 -7 -1q-5 0 -5 6q0 10 5 57q-4 38 -4 49q0 10 8 12l148 36q5 1 10 4.5t12 3.5
q10 0 48 -3q58 3 69 3q8 0 8 -8q0 -3 -2 -14.5t-2 -16.5v-309q0 -26 22 -26h44q20 0 20 -11q0 -8 -5 -49q5 -43 5 -50z" />
    <glyph glyph-name="two" unicode="2" horiz-adv-x="549" 
d="M499 136q0 -5 -5 -57q4 -57 4 -67q0 -12 -18 -12q-9 0 -210 5l-205 -5q-13 0 -13 15q0 7 5 43q-7 46 -7 53q0 11 16 15q91 25 153 68q69 50 69 104q0 71 -82 71q-66 0 -111 -32q-6 -4 -13 -4t-7 9q0 7 4 75l-4 52q0 7 7 10q75 28 177 28q87 0 141 -44q58 -46 58 -127
q0 -111 -128 -167q-20 -9 -20 -18q0 -10 19 -10l46 9h112q12 0 12 -14z" />
    <glyph glyph-name="three" unicode="3" horiz-adv-x="577" 
d="M517 67q0 -86 -64 -134t-171 -48t-164.5 49t-57.5 131q0 20 1 36.5t10 16.5h62q57 8 63 8q4 0 4 -7q0 -3 -1 -12t-1 -13q0 -80 74 -80q71 0 71 73q0 68 -70 68h-20q-16 0 -16 12q0 7 6 50q-5 50 -5 56q0 10 7 10h15q11 -1 15 -1q58 0 58 45q0 48 -70 48q-65 0 -111 -29
q-5 -3 -11 -3q-7 0 -7 8q0 6 5 68q-6 43 -6 51q0 6 6 9q57 28 163 28q84 0 138 -37q58 -41 58 -111q0 -79 -66 -108q-16 -4 -45 -12q-14 -5 -14 -13q0 -12 12 -13q64 -6 99 -49q33 -39 33 -97z" />
    <glyph glyph-name="four" unicode="4" horiz-adv-x="552" 
d="M502 13q0 -9 -18 -9h-28q-17 0 -17 -20v-59q0 -9 1 -16.5t1 -9.5q0 -4 -5 -4t-66 3l-65 -3q-11 0 -11 8q0 3 1 10t1 11v60q0 4 2 8.5t2 7.5q0 4 -21 4h-112q-61 0 -94 37t-33 95q0 71 55 152l140 206q4 6 11 6q8 0 76 -8h71q12 0 12 -8q0 -6 -8 -17l-200 -276
q-22 -30 -22 -41q0 -22 47 -22h56q18 0 18 15v143q0 16 13 16q10 0 46 -6q66 7 74 7q12 0 12 -6q0 -3 -1 -9t-1 -11v-127q0 -12 18 -12h30q13 0 13 -9t-4 -79q6 -30 6 -37z" />
    <glyph glyph-name="five" unicode="5" horiz-adv-x="533" 
d="M483 77q0 -85 -70 -140q-66 -52 -158 -52q-136 0 -187 31q-8 5 -8 19q0 6 7 69v63q0 7 6 7q5 0 8 -4q15 -18 53.5 -31.5t79.5 -13.5q102 0 102 68q0 63 -100 63h-143q-10 2 -10 9v151q0 191 206 191q122 0 172 -27q6 -3 6 -10q0 -6 -3 -47l3 -88q0 -9 -6 -9q-4 0 -11 5
q-21 14 -64 26q-46 12 -87 12q-71 0 -71 -82v-28q0 -26 22 -26q15 0 39 11t53 11q71 0 116 -47.5t45 -130.5z" />
    <glyph glyph-name="six" unicode="6" horiz-adv-x="570" 
d="M515 198q0 -102 -67 -157q-61 -51 -161 -51q-105 0 -165 64q-67 70 -67 208q0 172 73 263q70 87 198 87q112 0 168 -34q9 -5 9 -13q0 -6 -7 -47l-4 -83q0 -7 -6 -7q-7 0 -11 4q-16 18 -56.5 30.5t-77.5 12.5q-91 0 -100 -107q0 -4 -6 -19t-6 -17q0 -10 14 -10q4 0 8 3
l42.5 40t54.5 20q72 0 116 -42q51 -49 51 -145zM345 191q0 98 -61 98q-60 0 -60 -94q0 -98 60 -98q61 0 61 94z" />
    <glyph glyph-name="seven" unicode="7" horiz-adv-x="541" 
d="M501 390q0 -48 -44 -129l-203 -376q-4 -7 -8 -7q-9 0 -73 10l-95 -3q-6 0 -6 5q0 4 3 10l198 366q7 13 36 40q26 24 26 27q0 12 -56 12h-207q-12 0 -12 11q0 8 6 60l-6 71q0 9 14 9h313q51 0 82.5 -27t31.5 -79z" />
    <glyph glyph-name="eight" unicode="8" horiz-adv-x="594" 
d="M534 162q0 -172 -246 -172q-228 0 -228 172q0 112 105 147q9 3 9 10q0 9 -10 12q-82 25 -82 129q0 73 58.5 112.5t158.5 39.5q212 0 212 -154q0 -96 -79 -122q-13 -4 -13 -12q0 -7 13 -11q102 -34 102 -151zM347 449q0 69 -52 69q-53 0 -53 -67q0 -80 52 -80
q24 0 38.5 21.5t14.5 56.5zM354 182q0 84 -59 84q-60 0 -60 -83q0 -85 60 -85q59 0 59 84z" />
    <glyph glyph-name="nine" unicode="9" horiz-adv-x="580" 
d="M520 235q0 -172 -73 -263q-70 -87 -198 -87q-115 0 -171 34q-9 5 -9 15q0 6 10 60l4 68q0 7 6 7q7 0 11 -4q16 -18 58 -31q39 -12 76 -12q91 0 100 107q0 4 6 19t6 17q0 10 -14 10q-6 0 -37 -31.5t-68 -31.5q-72 0 -116 42q-51 49 -51 145q0 102 67 157q61 51 161 51
q105 0 165 -64q67 -70 67 -208zM351 302q0 98 -60 98q-61 0 -61 -94q0 -98 61 -98q60 0 60 94z" />
    <glyph glyph-name="colon" unicode=":" horiz-adv-x="273" 
d="M203 373q0 -25 -15 -25h-100q-17 0 -17 28q0 7 1 25t1 27q0 7 -1.5 22.5t-1.5 22.5q0 23 17 23h100q16 0 16 -25q0 -9 -2.5 -25t-2.5 -21q0 -8 2.5 -26t2.5 -26zM203 25q0 -25 -15 -25h-100q-17 0 -17 28q0 7 1 25t1 27q0 7 -1.5 22.5t-1.5 22.5q0 23 17 23h100
q16 0 16 -25q0 -9 -2.5 -25t-2.5 -21q0 -8 2.5 -26t2.5 -26z" />
    <glyph glyph-name="semicolon" unicode=";" horiz-adv-x="306" 
d="M236 373q0 -25 -15 -25h-100q-17 0 -17 28q0 7 1 25t1 27q0 7 -1.5 22.5t-1.5 22.5q0 23 17 23h100q16 0 16 -25q0 -9 -2.5 -25t-2.5 -21q0 -8 2.5 -26t2.5 -26zM236 130q0 -7 -2 -22t-2 -20q0 -40 -2.5 -52t-17.5 -42l-34 -68q-35 -70 -62 -98l-66 21q0 20 32 111
q23 66 23 129q0 6 -1.5 20t-1.5 20q0 19 14 19h107q13 0 13 -18z" />
    <glyph glyph-name="less" unicode="&#x3c;" horiz-adv-x="409" 
d="M349 55q0 -8 -12 -8h-116q-19 0 -29 14l-124 171q-8 11 -8 15t7 14l125 170q10 14 32 14h114q10 0 10 -6q0 -5 -4 -10l-127 -166q-7 -9 -7 -13q0 -5 7 -14l126 -170q6 -8 6 -11z" />
    <glyph glyph-name="equal" unicode="=" horiz-adv-x="491" 
d="M431 324q0 -19 -19 -19h-332q-12 0 -16 3.5t-4 17.5v82q0 12 3.5 15t18.5 3h327q13 0 17.5 -2.5t4.5 -15.5v-84zM431 102q0 -19 -19 -19h-332q-12 0 -16 3.5t-4 17.5v82q0 12 3.5 15t18.5 3h327q13 0 17.5 -2.5t4.5 -15.5v-84z" />
    <glyph glyph-name="greater" unicode="&#x3e;" horiz-adv-x="409" 
d="M349 245q0 -4 -7 -14l-125 -170q-10 -14 -32 -14h-114q-10 0 -10 6q0 5 4 10l127 166q7 9 7 13q0 5 -7 14l-126 170q-6 8 -6 11q0 8 12 8h116q19 0 29 -14l124 -171q8 -11 8 -15z" />
    <glyph glyph-name="question" unicode="?" horiz-adv-x="490" 
d="M430 522q0 -67 -58 -116q-25 -22 -106 -65q-58 -30 -58 -52q0 -20 25 -20q19 0 41 10t31.5 22.5t11.5 12.5q6 0 10 -12l13 -43q19 -26 19 -35q0 -10 -10 -19q-51 -46 -130 -46q-143 0 -143 124q0 60 49 104q11 10 92 60q49 31 49 60q0 38 -49 38q-56 0 -97 -32
q-10 -8 -16 -8t-19 57q-25 38 -25 46q0 11 15 20q70 41 171 41q84 0 134 -38t50 -109zM283 22q0 -22 -15 -22h-101q-17 0 -17 25q0 7 1 22.5t1 23.5q0 6 -1.5 19.5t-1.5 19.5q0 21 17 21h101q16 0 16 -22q0 -8 -2.5 -22t-2.5 -19q0 -7 2.5 -23t2.5 -23z" />
    <glyph glyph-name="at" unicode="@" horiz-adv-x="823" 
d="M793 256q0 -102 -44 -172q-45 -73 -116 -73q-59 0 -106 32q-13 9 -21 9q-10 0 -22 -8q-48 -33 -101 -33q-88 0 -134 56q-44 52 -44 143q0 99 56 166q59 71 156 71q105 0 157 -85q5 -8 11 -8q2 0 5.5 1t5.5 1q7 0 7 -15v-216q0 -53 35 -53q39 0 62 47.5t23 135.5
q0 140 -84 216q-79 72 -214 72q-147 0 -235.5 -91t-88.5 -249q0 -143 79.5 -224t225.5 -81q88 0 162 29q10 4 12 4q4 0 4 -6q0 -8 -5 -29v-23q0 -13 -17 -18q-72 -23 -163 -23q-174 0 -274 105q-95 101 -95 264q0 187 117 299q112 107 284 107q160 0 261 -97.5t101 -253.5z
M467 232q0 63 -11 88.5t-38 25.5q-63 0 -63 -126q0 -113 62 -113q34 0 42 20t8 105z" />
    <glyph glyph-name="A" unicode="A" horiz-adv-x="684" 
d="M664 15q0 -14 -13 -14h-93q-53 -8 -66 -8q-12 0 -15.5 19.5l-6.5 37.5l-30 102q-3 13 -5 26q-6 18 -19 18q-4 0 -24 -7.5t-28 -7.5l-82 -1q-19 0 -25.5 -4.5t-11.5 -21.5l-29 -99l-10 -46q-3 -16 -16 -16q-10 0 -70 8h-88q-12 0 -12 11q0 5 7 22q9 24 12 34l169 555
l12 54q6 14 40 14q9 0 75 -4l83 4q25 0 33 -6.5t18 -38.5l176 -561q19 -61 19 -70zM404 323q0 5 -2 12l-34 117q-22 74 -40 74q-4 0 -5 -18q-1 -29 -9 -58l-32 -117q-1 -4 -1 -8q0 -9 14 -9h96q13 0 13 7z" />
    <glyph glyph-name="B" unicode="B" horiz-adv-x="634" 
d="M594 202q0 -102 -68.5 -157t-183.5 -55q-124 0 -184 68q-15 17 -30 17h-49q-14 0 -14 18v573q0 24 6 24q2 0 8 -1.5t8 -1.5q-1 0 90 5.5t150 5.5q229 0 229 -171q0 -41 -19.5 -78t-49.5 -55q-12 -7 -12 -16q0 -10 14 -14q48 -14 76.5 -58.5t28.5 -103.5zM384 509
q0 73 -72 73q-34 0 -66 -4q-10 -1 -10 -19v-118q0 -14 13 -14h60q75 0 75 82zM406 213q0 94 -101 94h-56q-3 0 -6 4t-5 4t-2 -21v-81q0 -100 87 -100q39 0 61 26.5t22 73.5z" />
    <glyph glyph-name="C" unicode="C" horiz-adv-x="633" 
d="M583 47q0 -11 -12 -11q-5 0 -39.5 1.5t-39.5 1.5q-11 0 -23 -8q-64 -41 -157 -41q-272 0 -272 353q0 178 83 274q74 85 190 85q104 0 165 -43q13 -9 26 -9q6 0 30 1h27q9 0 9 -12q0 -14 -2 -77l2 -97q0 -14 -11 -14q-6 0 -55 4q-50 -4 -57 -4q-11 0 -11 11q0 94 -93 94
q-113 0 -113 -206q0 -117 31 -166q27 -42 84 -42q44 0 72 25t28 72q0 10 10 10q7 0 60 -4q53 4 60 4q8 0 8 -13q0 -19 -3 -78z" />
    <glyph glyph-name="D" unicode="D" horiz-adv-x="672" 
d="M632 343q0 -174 -86 -268q-78 -85 -204 -85q-124 0 -180 85q-12 18 -37 18h-41q-16 0 -16 18v525q0 7 -4 14.5t-4 10.5q0 8 19 13q34 9 118 18q88 9 144 9q291 0 291 -358zM442 345q0 130 -40 182q-28 38 -83 38q-40 0 -67 -8q-12 -4 -12 -22v-297q0 -109 85 -109
q117 0 117 216z" />
    <glyph glyph-name="E" unicode="E" horiz-adv-x="613" 
d="M568 9q0 -12 -13 -12q-9 0 -69.5 1.5t-86.5 1.5h-307q-27 0 -27 8q0 2 3.5 18.5t3.5 33.5v584q0 47 46 47h392q12 0 12 -11t-4 -63l3 -68q0 -11 -12 -11q-11 0 -38.5 3t-48.5 3h-152q-26 0 -26 -8q0 -3 1.5 -9t1.5 -11v-67q0 -21 22 -21h157q16 0 16 -16q0 -6 -3 -60
q3 -52 3 -61q0 -13 -15 -13h-154q-26 0 -26 -28v-73q0 -21 7.5 -26t30.5 -5h131q17 0 18 20l2 27q1 15 10 15q10 0 56 -3l56 3q10 0 10 -14t-3 -85z" />
    <glyph glyph-name="F" unicode="F" horiz-adv-x="548" 
d="M518 682q0 -11 -5 -57q4 -66 4 -76q0 -11 -12 -11q-17 0 -42 3t-45 3h-153q-26 0 -26 -8q0 -3 1.5 -9t1.5 -11v-118q0 -21 22 -21h211q15 0 15 -13t-4 -63q5 -53 5 -65t-14 -12h-209q-26 0 -26 -28v-142q0 -11 2 -26.5t2 -19.5q0 -8 -8 -8q-13 0 -86 5q-60 -5 -71 -5
q-12 0 -15 8q-1 3 -1 19v619q0 45 44 45h397q12 0 12 -9z" />
    <glyph glyph-name="G" unicode="G" horiz-adv-x="663" 
d="M608 346q0 -3 -6 -18t-6 -24v-135q2 -54 2 -82q0 -13 -12 -13q-4 0 -20 1.5t-24 1.5q-14 0 -22 -8q-76 -79 -216 -79q-264 0 -264 355q0 180 80 273q72 84 197 84q102 0 168 -38q19 -11 28 -11q5 0 27.5 1t26.5 1q11 0 11 -13q0 -14 -3 -90l3 -86q0 -14 -11 -14h-56
l-60 -1q-9 0 -9 14q0 44 -30 70q-27 22 -66 22q-116 0 -116 -209q0 -126 36 -174q26 -36 79 -36q87 0 87 62v14q0 18 -16 18h-35q-5 0 -13 -1.5t-9 -1.5q-8 0 -8 6q0 13 4 59q-2 41 -2 51t16 10h222q17 0 17 -9z" />
    <glyph glyph-name="H" unicode="H" horiz-adv-x="703" 
d="M638 17q0 -17 -10 -17q-12 0 -77 5q-69 -7 -76 -7q-17 0 -17 44v213q0 44 -18 44q-6 0 -23 -8t-26 -8h-126q-22 0 -22 -31v-172q0 -22 2.5 -44t2.5 -25q0 -6 -1.5 -8.5t-5.5 -2.5q-13 0 -84 5l-70 -5q-17 0 -20 32q-1 5 -1 44v544v28q-1 17 -1 22q0 21 12 21q10 0 73 -3
l81 5q14 0 14 -15q0 -3 -1 -22.5t-1 -37.5v-164q0 -25 22 -25h169q24 0 24 26v165q0 5 -1 25t-1 24q0 22 16 22q8 0 77 -4q64 4 74 4q13 0 13 -18v-23q-1 -19 -1 -32v-505q0 -16 1.5 -48t1.5 -48z" />
    <glyph glyph-name="I" unicode="I" horiz-adv-x="343" 
d="M263 10q0 -10 -7 -10q-9 0 -81 5q-76 -10 -88 -10q-7 0 -7 15v643q0 23 2.5 30.5t13.5 7.5q7 0 77 -3q65 5 73 5q13 0 13 -14q0 -3 -1 -22.5t-1 -38.5v-505q0 -37 3 -70z" />
    <glyph glyph-name="J" unicode="J" horiz-adv-x="391" 
d="M321 676q0 -4 -1 -22.5t-1 -35.5v-441q0 -85 -48 -136t-124 -51q-61 0 -96 13q-11 4 -11 19q0 7 8 47l2 84q0 8 6 8q3 0 30 -11.5t50 -11.5q19 0 19 16q0 5 -6.5 31.5t-6.5 54.5v385q0 4 -2 20t-2 24q0 22 16 22q9 0 73 -4l81 5q13 0 13 -16z" />
    <glyph glyph-name="K" unicode="K" horiz-adv-x="689" 
d="M659 9q0 -9 -13 -9q-7 0 -88 3l-124 -3q-9 0 -9 11q0 3 2 16.5t2 19.5q0 8 -3 14l-100 208q-9 18 -16.5 22.5t-26.5 4.5h-23q-17 0 -17 -21v-162q0 -27 1 -57v-34q0 -22 -9 -22q-10 0 -82 5q-72 -8 -80 -8t-8 15q0 -1 1 34.5t1 70.5v545q0 29 16 29q7 0 68 -3l81 4
q12 0 12 -16v-22q-1 -19 -1 -36v-169q0 -24 22 -24h24q25 0 35 21l106 231q10 21 21 21q4 0 89 -15l79 -5q11 -1 11 -8q0 1 -17 -31l-127 -236q-15 -28 -15 -41q0 -14 15 -39q36 -72 96 -176q19 -26 55 -26h15q7 0 7 -13q0 -4 -4 -52q4 -36 4 -47z" />
    <glyph glyph-name="L" unicode="L" horiz-adv-x="589" 
d="M559 10q0 -12 -14 -12q-5 0 -56 4l-51 4q-5 0 -23 -3t-26 -3h-302q-27 0 -27 10q0 3 3.5 20.5t3.5 35.5v593q0 21 2.5 26.5t13.5 5.5q7 0 65 -4l86 4q13 0 13 -17q0 -3 -1.5 -26.5t-1.5 -39.5v-431q0 -34 38 -34h95q29 0 30 16l5 65q1 15 13 15q6 0 61 -3l57 3
q15 0 15 -14q0 -16 -2 -88z" />
    <glyph glyph-name="M" unicode="M" horiz-adv-x="901" 
d="M836 12q0 -11 -8 -11q-11 0 -67 3q-75 -8 -85 -8q-14 0 -14 21v267q0 17 1 50.5t1 43.5q0 30 -12 30q-5 0 -15 -32q-16 -58 -39 -115l-51 -128q-11 -28 -11 -69q0 -9 1 -25t1 -21q0 -18 -14 -18q-7 0 -73 4l-74 -4q-10 0 -12 2t-2 12v6q0 6 1 20t1 21q0 36 -10 60
l-61 146l-23 80q-19 60 -30 60q-12 0 -12 -27q0 -12 2.5 -43.5t2.5 -48.5v-207q0 -13 1 -36.5t1 -28.5q0 -12 -2.5 -14t-12.5 -2q-6 0 -73 4q-63 -4 -73 -4t-10 11q0 -4 3.5 26.5t3.5 69.5v566q0 18 18 18q15 0 111 -4q75 4 89 4q16 0 21 -15q13 -46 56 -168l72 -185
q6 -15 14 -15q10 0 16 15l72 184q10 25 54 168q5 17 21 17q14 0 87 -5l103 4q23 0 23 -22v-558q0 -17 3.5 -50t3.5 -49z" />
    <glyph glyph-name="N" unicode="N" horiz-adv-x="698" 
d="M633 13q0 -13 -12 -13q-8 0 -60 4q-60 -7 -67 -7q-10 0 -10 12v5q0 54 -31 92l-213 264q-3 3 -9 27q-5 20 -9 20q-7 0 -7 -41v-263q0 -39 2.5 -72.5t2.5 -31.5q0 -9 -8 -9q-9 0 -71 3l-59 -3q-15 0 -15 18v602q0 8 -1 29.5t-1 26.5q0 15 11 15q9 0 61 -3l67 3
q8 0 14.5 -10.5l12.5 -20.5l213 -266q5 -7 17 -36q10 -25 16 -25q7 0 7 62v225v26q-1 21 -1 25q0 20 12 20q9 0 63 -4l62 4q13 0 13 -22v-21q-1 -16 -1 -30v-505q0 -26 1 -60v-40z" />
    <glyph glyph-name="O" unicode="O" horiz-adv-x="665" 
d="M635 350q0 -188 -99 -282q-82 -78 -212 -78q-294 0 -294 350q0 89 29.5 167.5t82.5 125.5q31 1 87.5 35t117.5 34q288 0 288 -352zM443 342q0 218 -109 218q-112 0 -112 -216q0 -210 110 -210q48 0 78 48q33 55 33 160z" />
    <glyph glyph-name="P" unicode="P" horiz-adv-x="605" 
d="M575 467q0 -119 -65.5 -186.5t-168.5 -67.5q-28 0 -51 22.5t-38 22.5q-13 0 -13 -15q0 -3 1 -11v-11v-118q0 -21 1.5 -47t1.5 -28q0 -5 3 -11t3 -8q0 -9 -13 -9q-10 0 -75 4l-83 -4q-13 0 -13 18v643q0 16 11 18q99 19 260 19q96 0 159 -47q80 -60 80 -184zM395 462
q0 47 -27 76t-70 29q-14 0 -44 -5q-14 -2 -14 -17v-135q0 -32 9 -44q12 -19 52 -19q94 0 94 115z" />
    <glyph glyph-name="Q" unicode="Q" horiz-adv-x="702" 
d="M692 151q0 -5 -7 -80v-67q0 -10 -10 -10q-1 0 -18 3t-24 3h-137q-35 0 -96 -2.5t-70 -2.5q-290 0 -290 345q0 85 28 162q30 81 84 131q30 0 87 34.5t121 34.5q126 0 200 -72q85 -82 85 -246q0 -88 -28 -136q-8 -13 -19 -25q-69 -73 -69 -88q0 -6 12 -6q8 0 36 16t36 16
h64q15 0 15 -10zM453 342q0 218 -108 218q-49 0 -79 -47q-34 -56 -34 -169q0 -210 111 -210q48 0 77 48q33 55 33 160z" />
    <glyph glyph-name="R" unicode="R" horiz-adv-x="646" 
d="M631 11q0 -11 -11 -11t-81 4l-107 -4q-9 0 -14 13l-40 144q-26 81 -65 92q-56 16 -59 16q-11 0 -11 -20v-228q0 -17 -13 -17q-10 0 -78 4l-79 -4q-8 0 -8 5q0 3 3.5 11t3.5 19v626q0 16 13 18q103 19 264 19q105 0 163 -48q63 -53 63 -157q0 -66 -37 -119
q-33 -47 -77 -62q-9 -3 -9 -10q0 -5 14 -11q47 -20 66 -60l30 -82q11 -27 20 -34q6 -6 21 -6h20q8 0 8 -10q0 -7 -3 -42q3 -38 3 -46zM394 475q0 97 -88 97q-43 0 -58 -7q-9 -4 -9 -17q0 -6 2 -28t2 -34v-69q0 -26 20 -33q15 -5 40 -5q40 0 65.5 25t25.5 71z" />
    <glyph glyph-name="S" unicode="S" horiz-adv-x="621" 
d="M581 213q0 -102 -69.5 -162.5t-187.5 -60.5q-111 0 -180 47q-7 5 -22 5h-51q-16 0 -16 15q0 7 5 91l-1 84q0 14 16 14q5 0 51 -4l48 4q14 0 14 -14q0 -41 28 -69q32 -32 84 -32q92 0 92 69q0 52 -85 78q-142 45 -157 54q-85 47 -85 149q0 104 77 164q72 57 186 57
q125 0 205 -47q18 -11 18 -24q0 -15 -24 -63q-3 -25 -10 -63q-3 -13 -12 -13q-6 0 -10 4q-31 28 -80 46t-95 18q-76 0 -76 -54q0 -44 87 -70q130 -38 163 -58q87 -54 87 -165z" />
    <glyph glyph-name="T" unicode="T" horiz-adv-x="583" 
d="M558 557q0 -12 -12 -12q-3 0 -24 1t-39 1h-73q-32 0 -32 -26v-414q0 -19 4 -54.5t4 -43.5q0 -9 -11 -9q-10 0 -81 4l-83 -4q-14 0 -14 10q0 3 2 15t2 28v460q0 6 3.5 15t3.5 13q0 6 -12 6h-120q-13 0 -26 -3t-16 -3q-7 0 -7 9q0 8 2 72q-4 45 -4 52q0 17 19 17h441
q26 0 44.5 7t20.5 7q7 0 7 -6q0 -11 -3 -65z" />
    <glyph glyph-name="U" unicode="U" horiz-adv-x="672" 
d="M617 681q0 -4 -1.5 -15.5t-1.5 -18.5v-340q0 -317 -282 -317q-134 0 -197 59q-77 72 -77 248v332q0 17 -1.5 32.5t-1.5 16.5q0 13 13 13q5 0 90 -4l70 4q10 0 10 -10q0 -24 -1.5 -55t-1.5 -53v-220q0 -115 17 -157q22 -53 86 -53q57 0 80 54q19 47 19 155v292
q0 13 -4 25.5t-4 14.5q0 7 11 7q7 0 87 -4l82 4q8 0 8 -10z" />
    <glyph glyph-name="V" unicode="V" horiz-adv-x="680" 
d="M655 679q0 -4 -9 -29q-14 -36 -23 -66l-149 -482q-23 -75 -32 -88.5t-35 -13.5q-11 0 -67 6q-58 -6 -67 -6q-25 0 -35.5 15t-32.5 85l-165 521q-15 47 -15 56q0 11 13 11h92l69 6q10 0 14 -13q8 -34 17 -68l75 -290q5 -20 22 -107q7 -34 19 -34q13 0 16 40q4 67 13 101
l83 329q3 14 7 28.5t17 14.5q12 0 86 -7h75q12 0 12 -9z" />
    <glyph glyph-name="W" unicode="W" horiz-adv-x="1000" 
d="M970 682q-7 -16 -30 -100l-101 -453q-21 -96 -27.5 -112.5t-21.5 -16.5q-12 0 -56 5l-68 -5q-21 0 -32 16.5t-42 99.5l-74 198q-3 11 -7 22t-12 11q-10 0 -20 -28l-1 -3l-69 -198q-29 -84 -41 -103q-9 -15 -29 -15q-8 0 -60 5q-49 -5 -60 -5q-22 0 -31 16q-10 20 -31 111
l-102 450q-12 42 -25 98q0 13 13 13h66l95 7q7 0 11 -15l12 -66l49 -250l19 -99q6 -24 18 -24t22 46q14 66 17 75l57 152q10 27 10 60q0 17 -1.5 36t-1.5 29q0 12 12 12q6 0 75 -5q64 5 71 5q13 0 13 -12v-28q-1 -26 -1 -35q0 -29 12 -64l51 -148l23 -76t23 -39q13 0 16 21
l12 91l44 249l8 47q8 38 22 38q34 0 96 -7h66q11 0 11 -6z" />
    <glyph glyph-name="X" unicode="X" horiz-adv-x="717" 
d="M697 18q0 -12 -19 -12h-74q-80 -14 -92 -14q-6 6 -27 35l-87 138q-11 17 -24 47q-7 16 -15 16q-9 0 -15 -15q-11 -29 -21 -44l-91 -142q-3 -5 -14 -27q-4 -8 -11 -8q-11 0 -94 14h-80q-13 0 -13 10q0 3 26 42l153 229q38 57 38 73q0 15 -24 51l-165 249q-4 6 -4 15t9 9
h84l92 13q6 0 15 -16l93 -164l14 -25q5 -8 14 -8q7 0 25 32l92 165q8 15 15 15q6 0 81 -13h88q12 0 12 -8q0 -13 -15 -35l-167 -247q-14 -21 -14 -32q0 -14 36 -68l147 -221q32 -48 32 -54z" />
    <glyph glyph-name="Y" unicode="Y" horiz-adv-x="625" 
d="M605 677q0 -1 -29 -68l-143 -328q-31 -71 -31 -124v-29q0 -16 1 -63.5t1 -53.5q0 -14 -10 -14q-9 0 -78 7l-83 -4q-13 0 -13 7q5 13 5 23v105q0 44 -5 66q-6 30 -30 83l-144 321q-26 58 -26 73q0 10 10 10h80q78 9 86 9q5 0 13 -30q4 -18 9 -36l53 -144q7 -19 26 -87
q9 -33 20 -33q7 0 12 32q9 50 20 83l50 148q8 23 13 51q3 16 6 16q15 0 90 -9h86q11 0 11 -11z" />
    <glyph glyph-name="Z" unicode="Z" horiz-adv-x="655" 
d="M605 198q0 -16 -4 -75l3 -104q0 -10 -11 -11q-88 -8 -105 -8h-316q-63 0 -97.5 35.5t-34.5 97.5q0 63 52 127l192 236q12 15 36 33q19 14 19 18q0 7 -9 7q-4 0 -24.5 -4t-31.5 -4h-99q-32 0 -57 -5t-22 -5q-3 0 -3 5q0 7 4 75q-5 52 -5 61q0 15 19 15h34q29 -1 51 -1h353
q52 0 52 -46q0 -26 -16 -46l-306 -382q-17 -21 -50 -41q-27 -15 -27 -21q0 -10 49 -10h155q18 0 35.5 -5t19.5 -5q11 0 14 20l6 39q3 17 8 17q8 0 60 -2l44 2q12 0 12 -13z" />
    <glyph glyph-name="bracketleft" unicode="[" horiz-adv-x="326" 
d="M311 580q0 -9 -5 -9q-1 0 -3 1h-3h-54q-6 0 -11.5 5t-6.5 5q-8 0 -8 -29v-597q0 -26 27 -26h53q11 0 10 -10l-3 -48l3 -48q1 -15 -5 -15q-4 0 -12.5 2t-11.5 2h-183q-13 0 -15.5 2t-2.5 13v844q0 13 3.5 16t17.5 3h192l4.5 1.5t7.5 1.5q6 0 6 -12q0 -6 -3 -46
q3 -47 3 -56z" />
    <glyph glyph-name="backslash" unicode="\" horiz-adv-x="426" 
d="M411 4q-1 -4 -4 -4h-111q-11 0 -20.5 -5.5t-10.5 -5.5q-13 0 -54 124l-177 529q-3 10 -12 26q-7 13 -7 16q0 5 5 5h34l104 3q12 0 44 -93l189 -556q5 -15 12.5 -25.5t7.5 -13.5z" />
    <glyph glyph-name="bracketright" unicode="]" horiz-adv-x="326" 
d="M246 -168q0 -13 -3.5 -16t-17.5 -3h-192l-4.5 -1.5t-7.5 -1.5q-6 0 -6 12q0 6 3 46q-3 47 -3 56t5 9q1 0 3 -1h3h54q6 0 11.5 -5t6.5 -5q8 0 8 29v597q0 26 -27 26h-53q-11 0 -10 10l3 48l-3 48q-1 15 5 15q4 0 12.5 -2t11.5 -2h183q13 0 15.5 -1.5t2.5 -11.5v-846z" />
    <glyph glyph-name="asciicircum" unicode="^" horiz-adv-x="490" 
d="M445 175q0 -5 -12 -5h-96q-22 0 -30 20l-50 130q-8 21 -16 21q-6 0 -14 -21l-50 -129q-8 -21 -24 -21h-84q-24 0 -24 5q0 2 7.5 11t12.5 20l85 192q8 17 25 17h142q11 0 13.5 -2.5t8.5 -14.5l93 -202q2 -5 7.5 -11.5t5.5 -9.5z" />
    <glyph glyph-name="underscore" unicode="_" horiz-adv-x="503" 
d="M503 -99q0 -9 -5.5 -11t-30.5 -2h-442q-5 0 -11 -1h-7q-4 0 -4 14v85q0 3 -1.5 6t-1.5 4q0 4 44 4h432q5 0 13.5 2.5t9.5 2.5q4 0 4 -19v-85z" />
    <glyph glyph-name="grave" unicode="`" horiz-adv-x="315" 
d="M250 544q0 -5 -10 -5h-87q-9 0 -13 7l-20 40l-50 92q-5 9 -5 16q0 8 13 8h114q5 0 13 1h10q4 0 9 -32l14 -92q2 -14 7 -23.5t5 -11.5z" />
    <glyph glyph-name="a" unicode="a" horiz-adv-x="555" 
d="M493 315q0 -39 -2.5 -110t-2.5 -83v-86q0 -13 -10 -13q-5 0 -17.5 1t-17.5 1q-1 0 -82 -17.5t-150 -17.5q-159 0 -159 137q0 71 38.5 111t111.5 40q30 0 66 -9t49 -9q28 0 28 33q0 35 -31 55t-82 20q-81 0 -132 -35q-3 -2 -6 -2q-7 0 -7 9t3 66q-3 48 -3 60q0 10 10 14
q62 27 175 27q221 0 221 -192zM346 164q0 14 -1.5 18.5t-12.5 4.5h-62q-61 0 -61 -53q0 -52 65 -52q72 0 72 82z" />
    <glyph glyph-name="b" unicode="b" horiz-adv-x="595" 
d="M553 256q0 -135 -73 -204q-66 -62 -181 -62q-235 0 -235 244v397q0 13 -1 38t-1 33q0 12 10 12q7 0 71 -3l74 3q11 0 11 -15q0 -3 -1 -25.5t-1 -42.5v-149q0 -19 21 -19q11 0 44.5 22t69.5 22q93 0 142.5 -65.5t49.5 -185.5zM381 256q0 147 -79 147q-80 0 -80 -151
q0 -148 79 -148q80 0 80 152z" />
    <glyph glyph-name="c" unicode="c" horiz-adv-x="547" 
d="M485 171q0 -6 -5 -65v-45q0 -18 -16 -28q-70 -43 -177 -43q-245 0 -245 257q0 128 74 197q66 63 174 63q125 0 185 -64q8 -9 8 -17q0 -3 -5 -8q-11 -11 -36 -47l-25 -49q-6 -11 -12 -11q-9 0 -13 9q-29 71 -87 71q-90 0 -90 -134q0 -131 114 -131q41 0 81 17q36 14 54 34
q6 7 12 7q9 0 9 -13z" />
    <glyph glyph-name="d" unicode="d" horiz-adv-x="603" 
d="M571 33q0 -5 -8 -9l-66 -30q-9 -4 -14 -4q-11 0 -18 8l-32 35q-10 11 -19 11q-7 0 -15 -8q-46 -46 -160 -46q-88 0 -142.5 69t-54.5 183q0 124 50.5 194.5t143.5 70.5q42 0 74 -20.5t42 -20.5q16 0 16 19v145q0 23 -3.5 46.5t-3.5 25.5q0 12 16 12q6 0 75 -3l74 3
q7 0 7 -15q0 -6 -1.5 -31t-1.5 -38v-367q0 -62 -10.5 -100t-10.5 -39q0 -8 13 -25l40 -51q9 -11 9 -15zM373 252q0 69 -22 109.5t-60 40.5q-37 0 -58 -47q-20 -43 -20 -111t20.5 -104t53.5 -36q86 0 86 148z" />
    <glyph glyph-name="e" unicode="e" horiz-adv-x="548" 
d="M491 330q0 -43 -7 -73q-5 -20 -28 -20h-222q-22 0 -22 -17q0 -47 36 -72q32 -22 80 -22q35 0 76.5 14t60.5 33q5 5 11 5q9 0 9 -11q0 -9 -5 -63v-56q0 -14 -9 -20q-54 -38 -183 -38q-246 0 -246 256q0 115 68.5 188t179.5 73q90 0 145.5 -46t55.5 -131zM350 344
q0 32 -19.5 51t-48.5 19q-30 0 -50.5 -23.5t-20.5 -58.5q0 -20 15 -20q4 0 16 3t16 3h72q20 0 20 26z" />
    <glyph glyph-name="f" unicode="f" horiz-adv-x="407" 
d="M375 699q0 -7 -6 -43v-62q0 -9 -7 -9q-5 0 -15 3t-21 3q-63 0 -63 -54q0 -14 2 -31t25 -17h72q10 0 10 -9q0 -5 -2 -38v-40q0 -15 -17 -15h-60q-7 0 -13.5 1.5t-9.5 1.5t-4 -4.5t-1 -18.5v-287q0 -103 -78 -172q-71 -63 -162 -63q-43 0 -43 14q0 5 6 56q-3 43 -3 51
q0 9 7 9q2 0 27 -3t37 -3q31 0 36 2q14 4 14 26q0 4 -1.5 21.5t-1.5 31.5v316q0 15 -2.5 18t-13.5 3h-52q-12 0 -12 11q0 7 2 42q-2 32 -2 40q0 9 10 9h53q1 0 4 -2t5 -2q6 0 8 23q9 92 79 150q66 55 150 55q27 0 35 -2.5t8 -11.5z" />
    <glyph glyph-name="g" unicode="g" horiz-adv-x="535" 
d="M523 -11q0 -83 -69 -132t-187 -49q-235 0 -235 148q0 33 13 51q6 8 12 8q5 0 51 -8q47 3 67 3q13 0 13 -6q0 -2 -4.5 -11t-4.5 -16q0 -58 103 -58q86 0 86 50q0 39 -68 48l-170 23h-6h-9q-9 0 -9 11q0 10 3 19q4 13 29 112q3 12 3 22q0 12 -8 18q-59 41 -59 125
q0 72 57 115q54 40 140 40q26 0 104 -3t87 -3q14 0 14 -8q0 -2 -8 -15.5t-8 -27.5q0 -12 8.5 -44t8.5 -54q0 -72 -57.5 -115t-139.5 -43q-7 0 -19.5 1t-19.5 1t-12 -16q-1 -4 -1 -9q0 -12 28 -15l105 -13q162 -20 162 -149zM335 345q0 79 -55 79q-23 0 -39 -21.5t-16 -57.5
q0 -32 15 -52t40 -20t40 20t15 52z" />
    <glyph glyph-name="h" unicode="h" horiz-adv-x="615" 
d="M553 14q0 -14 -12 -14q-6 0 -76 3l-61 -3q-15 0 -15 13v1q0 4 1 14t1 15v206q0 64 -16 93q-19 35 -64 35q-41 0 -58 -29t-17 -94v-207q0 -5 1 -17t1 -14q0 -16 -15 -16q-5 0 -80 2l-61 -2q-7 0 -7 16q0 3 1 11v11v221q0 32 4 69.5t4 57.5q0 25 -6 77.5t-6 82.5v151
q0 17 13 17q7 0 66 -3l77 3q8 0 8 -12q0 -2 -2 -18t-2 -28v-111q0 -15 -3 -41t-3 -33q0 -18 8 -18t22.5 15.5t22.5 19.5q36 19 94 19q78 0 125 -55q53 -62 53 -183v-205q0 -13 1 -29.5t1 -20.5z" />
    <glyph glyph-name="i" unicode="i" horiz-adv-x="315" 
d="M206 595q0 -17 -12 -17h-76q-14 0 -14 19q0 5 1 17t1 18q0 5 -1 15.5t-1 15.5q0 16 13 16h76q13 0 13 -17q0 -6 -2 -17t-2 -15q0 -5 2 -17.5t2 -17.5zM243 6q0 -7 -7 -7q-12 0 -76 4l-72 -3q-15 0 -15 10q0 2 1 10.5t1 16.5v376q0 14 -1.5 36t-1.5 28q0 19 17 19
q7 0 67 -4q64 5 71 5q9 0 9 -15v-18q-1 -12 -1 -15v-364q0 -26 4 -51t4 -28z" />
    <glyph glyph-name="j" unicode="j" horiz-adv-x="314" 
d="M213 595q0 -17 -12 -17h-76q-14 0 -14 19q0 5 1 17t1 18q0 5 -1 15.5t-1 15.5q0 16 13 16h76q13 0 13 -17q0 -6 -2 -17t-2 -15q0 -5 2 -17.5t2 -17.5zM242 21q0 -98 -46 -155q-43 -53 -114 -53q-65 0 -86 16q-5 4 -4 12l3 50l-3 50q0 8 8 8l19 -8t38 -8q43 0 43 23
q0 6 -9.5 31.5t-9.5 49.5v387q0 8 -1 29t-1 28q0 15 8 15q7 0 63 -2l79 2q13 0 13 -24v-451z" />
    <glyph glyph-name="k" unicode="k" horiz-adv-x="604" 
d="M572 109q0 -8 -38 -49l-33 -52q-5 -7 -13 -7q-14 0 -42 22l-166 129q-17 13 -30 13q-17 0 -17 -39v-45q0 -19 1 -40v-25q0 -16 -13 -16q-7 0 -69 3l-66 -3q-14 0 -14 19q0 7 2 29.5t2 36.5v579v22q-1 12 -1 14q0 12 9 12q7 0 61 -2l77 4q8 0 10 -3.5t2 -11.5v-16
q-1 -13 -1 -19v-295q0 -28 19 -41l27 -19q16 -11 25 -11q10 0 10 25v24q0 160 172 160q22 0 35 -2t13 -12q0 -6 -5 -53l3 -62q0 -8 -4 -8q-2 0 -10 1.5t-16 1.5q-23 0 -39 -21.5t-16 -59.5v-39q0 -42 27 -64l38 -31q26 -22 45 -33q15 -9 15 -16z" />
    <glyph glyph-name="l" unicode="l" horiz-adv-x="331" 
d="M319 23q0 -8 -6 -12q-34 -21 -113 -21q-128 0 -128 148v560q0 16 16 16q8 0 68 -3q63 3 77 3q5 0 5 -9q0 -6 -3 -26t-3 -32v-479q0 -46 35 -46q15 0 29 6.5t16 6.5q7 0 7 -9q0 -7 -5 -53q5 -45 5 -50z" />
    <glyph glyph-name="m" unicode="m" horiz-adv-x="887" 
d="M835 13q0 -13 -12 -13q-6 0 -71 4l-70 -4q-11 0 -11 15q0 4 1 14v14v185q0 65 -8 94q-14 55 -60 55q-44 0 -57 -37q-10 -27 -10 -107v-169q0 -13 1 -30t1 -18q0 -16 -12 -16q-6 0 -74 3l-64 -3q-14 0 -14 18q0 4 1 12v13v185q0 78 -9 106q-13 43 -56 43q-46 0 -60 -40
q-10 -28 -10 -104v-193q0 -4 1 -13v-12q0 -15 -12 -15q-7 0 -75 3l-67 -3q-8 0 -8 12q0 4 1 13v13v221q0 59 16 93q5 11 5 18q0 9 -12 23l-38 45q-10 12 -10 16q0 5 5 9l55 40q6 4 11 4q7 0 13 -5l41 -35q8 -7 18 -7q7 0 23 11q53 36 124 36q41 0 86 -27.5t57 -27.5
q13 0 67.5 27.5t102.5 27.5q81 0 130 -55q57 -63 57 -183v-205q0 -13 1.5 -30t1.5 -21z" />
    <glyph glyph-name="n" unicode="n" horiz-adv-x="600" 
d="M548 14q0 -14 -12 -14q-6 0 -72 4l-65 -4q-14 0 -14 16q0 4 1 13v14v185q0 64 -9 94q-16 55 -63 55q-49 0 -65 -51q-8 -27 -8 -93v-193q0 -4 1 -14v-12q0 -14 -12 -14q-5 0 -72 3l-69 -3q-9 0 -9 11q0 4 1 13v14v221q0 58 15 91q6 13 6 19q0 10 -13 25l-39 46q-8 9 -8 16
q0 4 10 11l50 36q6 4 12 4t11 -4l42 -36q8 -7 18 -7q5 0 24 11q62 36 145 36q84 0 134 -54q58 -62 58 -184v-205q0 -13 1 -29.5t1 -20.5z" />
    <glyph glyph-name="o" unicode="o" horiz-adv-x="564" 
d="M532 248q0 -258 -248 -258q-252 0 -252 262q0 65 26 122q23 50 57 79q28 0 78 27t108 27q108 0 168 -63q63 -67 63 -196zM360 250q0 143 -79 143q-76 0 -76 -140q0 -146 78 -146q77 0 77 143z" />
    <glyph glyph-name="p" unicode="p" horiz-adv-x="589" 
d="M547 261q0 -123 -53 -195q-55 -76 -155 -76q-38 0 -66.5 20t-39.5 20q-16 0 -16 -19v-126q0 -21 2 -40t2 -21q0 -11 -12 -11q-4 0 -64 3l-78 -5q-10 0 -10 16q0 8 1 33t1 35v340q0 78 26 127q5 9 5 16q0 6 -15 25l-34 44q-9 12 -9 14q0 5 4 8l66 42q6 4 9 4q5 0 13 -6
l47 -37q9 -7 18 -7q5 0 19 7q62 30 134 30q86 0 141 -55q64 -64 64 -186zM376 242q0 146 -79 146q-80 0 -80 -154q0 -145 80 -145q79 0 79 153z" />
    <glyph glyph-name="q" unicode="q" horiz-adv-x="595" 
d="M533 -169q0 -18 -9 -18q-8 0 -76 4l-67 -4q-11 0 -11 15q0 5 1 27.5t1 41.5v111q0 19 -21 19q-6 0 -34 -18.5t-69 -18.5q-94 0 -150 66.5t-56 184.5q0 138 73 207q64 59 174 59q149 0 200 -114q3 -6 8 -6q4 0 13 2.5t12 2.5q9 0 9 -11v-11q-1 -9 -1 -16v-457
q0 -13 1.5 -35.5t1.5 -30.5zM373 253q0 68 -21 108.5t-59 40.5q-37 0 -58.5 -40.5t-21.5 -111.5q0 -146 74 -146q86 0 86 149z" />
    <glyph glyph-name="r" unicode="r" horiz-adv-x="461" 
d="M429 473q0 -6 -17 -56l-11 -63q-3 -15 -15 -15q-11 0 -32 16.5t-49 16.5q-43 0 -57 -41q-7 -22 -7 -77v-183q0 -12 2 -32.5t2 -21.5q0 -17 -15 -17q-5 0 -66 3l-75 -3q-9 0 -9 13q0 4 1 35v35v176q0 57 15 91q6 14 6 20q0 9 -13 24l-37 44q-10 12 -10 16q0 5 5 9l56 40
q6 4 10 4q6 0 12 -5l42 -35q8 -7 17 -7q10 0 24 11q44 36 127 36q48 0 78 -15q16 -8 16 -19z" />
    <glyph glyph-name="s" unicode="s" horiz-adv-x="515" 
d="M473 164q0 -85 -58.5 -129.5t-166.5 -44.5q-126 0 -194 56q-12 10 -12 20q0 8 28 45q5 19 13 46q5 14 11 14q5 0 20 -13q62 -52 153 -52q42 0 42 28q0 24 -65 42q-90 25 -122 45q-65 42 -65 124q0 73 58 117.5t148 44.5q110 0 173 -38q16 -10 16 -19q0 -4 -22 -49
q-12 -59 -19 -59q-9 0 -18 9q-17 16 -55 29.5t-73 13.5q-52 0 -52 -28q0 -22 67 -43q94 -29 126 -48q67 -41 67 -111z" />
    <glyph glyph-name="t" unicode="t" horiz-adv-x="450" 
d="M423 476q0 2 -6 -70q-2 -19 -19 -19h-63q-31 0 -35 -10q-2 -4 -2 -12q0 -3 1.5 -13t1.5 -17v-282q0 -9 1 -22.5t1 -17.5q0 -13 -10 -13q-7 0 -68 3l-76 -3q-13 0 -13 9q0 4 2.5 20t2.5 26v289q0 22 -4 31q-7 12 -27 12h-68q-15 0 -15 17q0 8 2 35l-2 34q0 16 17 16h57
q28 0 42 31q8 22 25 63q4 9 13 9h111q9 0 9 -8q0 -2 -1 -12t-1 -22v-31q0 -30 26 -30h75q23 0 23 -13z" />
    <glyph glyph-name="u" unicode="u" horiz-adv-x="592" 
d="M560 34q0 -7 -5 -9l-73 -31q-9 -4 -12 -4q-7 0 -11 4l-30 31q-7 7 -18 7q-4 0 -23 -11q-55 -31 -132 -31q-84 0 -134 54q-58 62 -58 184v205q0 13 -1 29.5t-1 20.5q0 14 12 14q6 0 71 -4l66 4q14 0 14 -16v-13q-1 -10 -1 -14v-185q0 -64 9 -94q16 -55 63 -55q49 0 65 51
q8 27 8 93v193v13q-1 9 -1 11q0 16 12 16q5 0 67 -3l75 3q8 0 8 -13v-12q-1 -9 -1 -13v-221q0 -52 -24 -98q-6 -12 -6 -19q0 -9 13 -25l39 -47q9 -11 9 -15z" />
    <glyph glyph-name="v" unicode="v" horiz-adv-x="572" 
d="M540 484q0 -7 -7 -24q-11 -26 -17 -45l-93 -293q-30 -94 -41.5 -110.5t-49.5 -16.5h-94q-35 0 -47.5 17.5t-43.5 111.5l-93 287q-22 68 -22 74q0 8 9 8h52q82 8 95 8q14 0 18 -16q4 -25 9 -50l47 -204l10 -47q10 -35 25 -35q8 0 8 21q0 30 6 56l48 208q4 25 16 60
q4 7 16 7t86 -8h53q10 0 10 -9z" />
    <glyph glyph-name="w" unicode="w" horiz-adv-x="850" 
d="M818 484q-10 -23 -24 -69l-60 -289q-20 -95 -32 -116q-9 -16 -40 -16h-107q-32 0 -46 18q-18 24 -44 117l-34 120q-4 13 -9 13q-4 0 -8 -13l-34 -123q-25 -90 -42 -114q-13 -18 -41 -18h-113q-24 0 -34 18q-11 22 -33 117l-64 282q-2 9 -12 39q-9 25 -9 33q0 10 10 10h57
l89 8q15 0 20 -27l4 -39l23 -163l10 -77q4 -21 15 -21q7 0 8.5 13l3 27t13.5 53l45 141q3 9 16 9q7 0 79 -4l78 4q12 0 15 -10l46 -135q14 -41 16 -59q0 -39 9 -39q11 0 14 20l8 73l28 167q2 18 8 49q4 18 16 18q16 0 85 -8h60q10 0 10 -9z" />
    <glyph glyph-name="x" unicode="x" horiz-adv-x="596" 
d="M564 25q0 -7 -83 -16q-72 -19 -79 -19q-9 0 -19 15.5t-19 31.5l-28 41l-25 38q-8 13 -13 13q-11 0 -39 -49l-30 -52q-15 -25 -18 -29q-7 -9 -18 -9q-5 0 -75 18q-86 9 -86 16q0 6 13 24l126 172q25 34 25 43q0 10 -20 36l-108 141q-17 22 -17 25q0 7 10 9q17 3 81 13
q60 20 64 20q10 0 19 -14l56 -87q25 -39 27 -39q8 0 28 38l49 91q6 11 19 11q2 0 64 -20l78 -12q11 -2 11 -9q0 -4 -13 -22l-113 -153q-25 -34 -25 -39q0 -9 33 -53l112 -149q13 -17 13 -25z" />
    <glyph glyph-name="y" unicode="y" horiz-adv-x="579" 
d="M547 484q0 -6 -9 -31q-14 -34 -15 -38l-105 -320q-16 -47 -30.5 -94.5t-14.5 -96.5v-72q0 -19 -15 -19q-4 0 -70 3q-61 -7 -68 -7q-9 0 -9 12q0 4 1 13.5t1 14.5v55q0 49 -18 98l-36 96l-105 313q-11 28 -22 72q4 10 9 10h85q49 9 55 9q20 0 24 -16l10 -51l45 -190
l20 -95q9 -41 19 -41q9 0 9 23v11q0 54 11 97l50 194q4 23 9 45.5t24 22.5q7 0 57 -9h79q9 0 9 -9z" />
    <glyph glyph-name="z" unicode="z" horiz-adv-x="518" 
d="M476 409q0 -52 -42 -83l-186 -137q-10 -8 -49 -24q-29 -13 -29 -22q0 -15 101 -15h114q22 0 44 5.5t24 5.5q9 0 9 -15q0 -8 -3 -47q3 -46 3 -55q0 -22 -23 -22h-275q-58 0 -90 35t-32 95q0 90 82 144l134 88q10 7 10 14q0 3 -5 3q-6 0 -38.5 -5.5t-42.5 -5.5h-43
q-19 0 -37 -4t-19 -4q-7 5 -7 13q0 11 2 67q-1 30 -1 43t15 13h306q34 0 56 -24t22 -63z" />
    <glyph glyph-name="braceleft" unicode="{" horiz-adv-x="367" 
d="M332 -94q0 -6 -11 -43q-3 -32 -3 -38q0 -9 -7 -10q-17 -3 -66 -3q-78 0 -123 35q-48 39 -48 114q0 41 23 89q13 27 42 72q23 34 23 43q0 12 -17 18l-74 26q-11 4 -11 21v50q0 15 11 19l69 24q22 8 22 20q0 8 -23 43q-29 45 -42 73q-23 49 -23 91q0 75 54 114
q45 32 113 32q49 0 71 -2q6 -1 7 -9l4 -39q9 -36 9 -42q0 -8 -8 -8q-3 0 -16.5 1t-17.5 1q-70 0 -70 -66q0 -45 45 -117.5t45 -86.5q0 -19 -15 -24l-122 -38q-15 -5 -15 -12t15 -12l120 -37q17 -5 17 -21q0 -20 -45 -90t-45 -122q0 -59 68 -59q7 0 20.5 1t17.5 1q6 0 6 -9z
" />
    <glyph glyph-name="bar" unicode="|" horiz-adv-x="329" 
d="M239 8q0 -8 -7 -8h-102q-11 0 -23 -3t-13 -3q-4 0 -4 15q0 5 1.5 39t1.5 65v530v26q-1 15 -1 17q0 5 7 5q3 0 67 -2l64 2q6 0 6 -16q0 -4 -1 -28t-1 -47v-557q0 -12 2.5 -23t2.5 -12z" />
    <glyph glyph-name="braceright" unicode="}" horiz-adv-x="367" 
d="M307 229q0 -15 -11 -19l-69 -24q-22 -8 -22 -20q0 -8 23 -43q29 -45 42 -73q23 -49 23 -91q0 -75 -54 -114q-45 -32 -113 -32q-45 0 -71 2q-6 0 -7 9l-4 39q-9 36 -9 42q0 8 8 8q3 0 16.5 -1t17.5 -1q70 0 70 66q0 45 -45 117.5t-45 86.5q0 19 15 24l122 38q15 5 15 12
t-15 12l-120 37q-17 5 -17 21q0 20 45 90t45 122q0 59 -68 59q-7 0 -20.5 -1t-17.5 -1q-6 0 -6 9q0 6 11 43q3 32 3 39.5t7 8.5q17 3 66 3q78 0 123 -35q48 -39 48 -114q0 -41 -23 -89q-13 -27 -42 -72q-23 -34 -23 -43q0 -12 17 -18l74 -26q11 -4 11 -21v-50z" />
    <glyph glyph-name="asciitilde" unicode="~" horiz-adv-x="464" 
d="M404 333q0 -129 -98 -129q-30 0 -80.5 29.5t-69.5 29.5q-34 0 -34 -45q0 -15 -11 -15q-3 0 -9 1t-9 1h-12q-9 -1 -13 -1q-8 0 -8 19q0 69 33 101q26 26 67 26q29 0 79 -30t69 -30q34 0 34 41q0 20 9 20q7 0 22 -2q14 2 19 2q12 0 12 -18z" />
    <glyph glyph-name="Adieresis" unicode="&#xc4;" horiz-adv-x="684" 
d="M483 746q0 -16 -14 -16h-83q-16 0 -16 22q0 7 1 20t1 19t-1.5 17t-1.5 17q0 17 16 17h82q15 0 15 -18q0 -6 -2 -17.5t-2 -17.5q0 -7 2.5 -21.5t2.5 -21.5zM302 746q0 -16 -14 -16h-83q-16 0 -16 20q0 7 1.5 20.5t1.5 20.5q0 6 -1.5 17.5t-1.5 17.5q0 16 15 16h83
q14 0 14 -16q0 -6 -2 -18.5t-2 -18.5q0 -7 2.5 -21.5t2.5 -21.5zM664 15q0 -14 -13 -14h-93q-53 -8 -66 -8q-12 0 -15.5 19.5l-6.5 37.5l-30 102q-3 13 -5 26q-6 18 -19 18q-4 0 -24 -7.5t-28 -7.5l-82 -1q-19 0 -25.5 -4.5t-11.5 -21.5l-29 -99l-10 -46q-3 -16 -16 -16
q-10 0 -70 8h-88q-12 0 -12 11q0 5 7 22q9 24 12 34l169 555l12 54q6 14 40 14q9 0 75 -4l83 4q25 0 33 -6.5t18 -38.5l176 -561q19 -61 19 -70zM404 323q0 5 -2 12l-34 117q-22 74 -40 74q-4 0 -5 -18q-1 -29 -9 -58l-32 -117q-1 -4 -1 -8q0 -9 14 -9h96q13 0 13 7z" />
    <glyph glyph-name="Aring" unicode="&#xc5;" horiz-adv-x="684" 
d="M664 15q0 -14 -13 -14h-93q-53 -8 -66 -8q-12 0 -15.5 19.5l-6.5 37.5l-30 102q-3 13 -5 26q-6 18 -19 18q-4 0 -24 -7.5t-28 -7.5l-82 -1q-19 0 -25.5 -4.5t-11.5 -21.5l-29 -99l-10 -46q-3 -16 -16 -16q-10 0 -70 8h-88q-12 0 -12 11q0 5 7 22q9 24 12 34l169 555
q4 24 14 58q-16 26 -16 60q0 50 35 80.5t97 30.5t97 -29.5t35 -81.5q0 -34 -16 -60q7 -9 15 -35l176 -561q19 -61 19 -70zM376 741q0 43 -38 43q-39 0 -39 -43t39 -43q38 0 38 43zM404 323q0 5 -2 12l-34 117q-22 74 -40 74q-4 0 -5 -18q-1 -29 -9 -58l-32 -117q-1 -4 -1 -8
q0 -9 14 -9h96q13 0 13 7z" />
    <glyph glyph-name="Ccedilla" unicode="&#xc7;" horiz-adv-x="643" 
d="M588 47q0 -11 -12 -11q-5 0 -39.5 1.5t-39.5 1.5q-11 0 -23 -8q-54 -35 -131 -40q-1 -8 -1 -10q0 -14 19 -14q94 0 94 -72q0 -93 -129 -93q-69 0 -107 13q-12 4 -12 18v73q0 9 4 9t7 -3q25 -22 73 -22q39 0 39 21q0 24 -56 24q-3 0 -10 -1h-10q-7 0 -7 7v4q0 2 6 50
q-208 37 -208 348q0 178 83 274q74 85 190 85q104 0 165 -43q13 -9 26 -9q6 0 30 1h27q9 0 9 -12q0 -14 -2 -77l2 -97q0 -14 -11 -14q-6 0 -55 4q-50 -4 -57 -4q-11 0 -11 11q0 94 -93 94q-113 0 -113 -206q0 -117 31 -166q27 -42 84 -42q44 0 72 25t28 72q0 10 10 10
q7 0 60 -4q53 4 60 4q8 0 8 -13q0 -19 -3 -78z" />
    <glyph glyph-name="Eacute" unicode="&#xc9;" horiz-adv-x="613" 
d="M470 848q-2 -7 -8 -18l-76 -66q-3 -2 -33 -31q-6 -5 -15 -5h-97q-10 0 -8 3q6 5 23 28l42 71q15 25 19 25q2 0 10 -1h13h120q13 0 10 -6zM568 9q0 -12 -13 -12q-9 0 -69.5 1.5t-86.5 1.5h-307q-27 0 -27 8q0 2 3.5 18.5t3.5 33.5v584q0 47 46 47h392q12 0 12 -11t-4 -63
l3 -68q0 -11 -12 -11q-11 0 -38.5 3t-48.5 3h-152q-26 0 -26 -8q0 -3 1.5 -9t1.5 -11v-67q0 -21 22 -21h157q16 0 16 -16q0 -6 -3 -60q3 -52 3 -61q0 -13 -15 -13h-154q-26 0 -26 -28v-73q0 -21 7.5 -26t30.5 -5h131q17 0 18 20l2 27q1 15 10 15q10 0 56 -3l56 3
q10 0 10 -14t-3 -85z" />
    <glyph glyph-name="Ntilde" unicode="&#xd1;" horiz-adv-x="698" 
d="M525 867q0 -64 -26.5 -102.5t-71.5 -38.5q-31 0 -81.5 20.5t-68.5 20.5q-34 0 -34 -29q0 -13 -10 -13q-7 0 -22 2q-16 -1 -22 -1q-8 0 -8 19q0 69 33 107q28 32 67 32q29 0 79 -20.5t69 -20.5q34 0 34 26q0 15 8 15q6 0 22 -2q13 3 20 3q12 0 12 -18zM633 13
q0 -13 -12 -13q-8 0 -60 4q-60 -7 -67 -7q-10 0 -10 12v5q0 54 -31 92l-213 264q-3 3 -9 27q-5 20 -9 20q-7 0 -7 -41v-263q0 -39 2.5 -72.5t2.5 -31.5q0 -9 -8 -9q-9 0 -71 3l-59 -3q-15 0 -15 18v602q0 8 -1 29.5t-1 26.5q0 15 11 15q9 0 61 -3l67 3q8 0 14.5 -10.5
l12.5 -20.5l213 -266q5 -7 17 -36q10 -25 16 -25q7 0 7 62v225v26q-1 21 -1 25q0 20 12 20q9 0 63 -4l62 4q13 0 13 -22v-21q-1 -16 -1 -30v-505q0 -26 1 -60v-40z" />
    <glyph glyph-name="Odieresis" unicode="&#xd6;" horiz-adv-x="665" 
d="M483 746q0 -16 -14 -16h-83q-16 0 -16 22q0 7 1 20t1 19t-1.5 17t-1.5 17q0 17 16 17h82q15 0 15 -18q0 -6 -2 -17.5t-2 -17.5q0 -7 2.5 -21.5t2.5 -21.5zM302 746q0 -16 -14 -16h-83q-16 0 -16 20q0 7 1.5 20.5t1.5 20.5q0 6 -1.5 17.5t-1.5 17.5q0 16 15 16h83
q14 0 14 -16q0 -6 -2 -18.5t-2 -18.5q0 -7 2.5 -21.5t2.5 -21.5zM635 350q0 -188 -99 -282q-82 -78 -212 -78q-294 0 -294 350q0 89 29.5 167.5t82.5 125.5q31 1 87.5 35t117.5 34q288 0 288 -352zM443 342q0 218 -109 218q-112 0 -112 -216q0 -210 110 -210q48 0 78 48
q33 55 33 160z" />
    <glyph glyph-name="Udieresis" unicode="&#xdc;" horiz-adv-x="672" 
d="M480 746q0 -16 -14 -16h-83q-16 0 -16 22q0 7 1 20t1 19t-1.5 17t-1.5 17q0 17 16 17h82q15 0 15 -18q0 -6 -2 -17.5t-2 -17.5q0 -7 2.5 -21.5t2.5 -21.5zM299 746q0 -16 -14 -16h-83q-16 0 -16 20q0 7 1.5 20.5t1.5 20.5q0 6 -1.5 17.5t-1.5 17.5q0 16 15 16h83
q14 0 14 -16q0 -6 -2 -18.5t-2 -18.5q0 -7 2.5 -21.5t2.5 -21.5zM617 681q0 -4 -1.5 -15.5t-1.5 -18.5v-340q0 -317 -282 -317q-134 0 -197 59q-77 72 -77 248v332q0 17 -1.5 32.5t-1.5 16.5q0 13 13 13q5 0 90 -4l70 4q10 0 10 -10q0 -24 -1.5 -55t-1.5 -53v-220
q0 -115 17 -157q22 -53 86 -53q57 0 80 54q19 47 19 155v292q0 13 -4 25.5t-4 14.5q0 7 11 7q7 0 87 -4l82 4q8 0 8 -10z" />
    <glyph glyph-name="aacute" unicode="&#xe1;" horiz-adv-x="555" 
d="M404 694q0 -7 -5 -16l-50 -92l-20 -40q-4 -7 -13 -7h-87q-10 0 -10 5q0 2 5 11.5t7 23.5l14 92q5 32 9 32h10q8 -1 13 -1h114q13 0 13 -8zM493 315q0 -39 -2.5 -110t-2.5 -83v-86q0 -13 -10 -13q-5 0 -17.5 1t-17.5 1q-1 0 -82 -17.5t-150 -17.5q-159 0 -159 137
q0 71 38.5 111t111.5 40q30 0 66 -9t49 -9q28 0 28 33q0 35 -31 55t-82 20q-81 0 -132 -35q-3 -2 -6 -2q-7 0 -7 9t3 66q-3 48 -3 60q0 10 10 14q62 27 175 27q221 0 221 -192zM346 164q0 14 -1.5 18.5t-12.5 4.5h-62q-61 0 -61 -53q0 -52 65 -52q72 0 72 82z" />
    <glyph glyph-name="agrave" unicode="&#xe0;" horiz-adv-x="555" 
d="M332 544q0 -5 -10 -5h-87q-9 0 -13 7l-20 40l-50 92q-5 9 -5 16q0 8 13 8h114q5 0 13 1h10q4 0 9 -32l14 -92q2 -14 7 -23.5t5 -11.5zM493 315q0 -39 -2.5 -110t-2.5 -83v-86q0 -13 -10 -13q-5 0 -17.5 1t-17.5 1q-1 0 -82 -17.5t-150 -17.5q-159 0 -159 137
q0 71 38.5 111t111.5 40q30 0 66 -9t49 -9q28 0 28 33q0 35 -31 55t-82 20q-81 0 -132 -35q-3 -2 -6 -2q-7 0 -7 9t3 66q-3 48 -3 60q0 10 10 14q62 27 175 27q221 0 221 -192zM346 164q0 14 -1.5 18.5t-12.5 4.5h-62q-61 0 -61 -53q0 -52 65 -52q72 0 72 82z" />
    <glyph glyph-name="acircumflex" unicode="&#xe2;" horiz-adv-x="555" 
d="M462 546q0 -5 -12 -5h-96q-18 0 -30 20l-31 50q-11 17 -17 17q-4 0 -15 -17l-32 -49q-14 -21 -28 -21h-80q-24 0 -24 5q0 1 20 31l72 108q11 17 25 17h134q11 0 14.5 -5t7.5 -12l79 -118q13 -19 13 -21zM493 315q0 -39 -2.5 -110t-2.5 -83v-86q0 -13 -10 -13
q-5 0 -17.5 1t-17.5 1q-1 0 -82 -17.5t-150 -17.5q-159 0 -159 137q0 71 38.5 111t111.5 40q30 0 66 -9t49 -9q28 0 28 33q0 35 -31 55t-82 20q-81 0 -132 -35q-3 -2 -6 -2q-7 0 -7 9t3 66q-3 48 -3 60q0 10 10 14q62 27 175 27q221 0 221 -192zM346 164q0 14 -1.5 18.5
t-12.5 4.5h-62q-61 0 -61 -53q0 -52 65 -52q72 0 72 82z" />
    <glyph glyph-name="adieresis" unicode="&#xe4;" horiz-adv-x="555" 
d="M414 585q0 -16 -14 -16h-83q-16 0 -16 22q0 7 1 19.5t1 19.5q0 6 -1.5 17t-1.5 17q0 17 16 17h82q15 0 15 -18q0 -6 -2 -17.5t-2 -17.5q0 -7 2.5 -21.5t2.5 -21.5zM233 585q0 -16 -14 -16h-83q-16 0 -16 20q0 7 1.5 20.5t1.5 20.5q0 6 -1.5 17.5t-1.5 17.5q0 16 15 16h83
q14 0 14 -16q0 -6 -2 -18.5t-2 -18.5q0 -7 2.5 -21.5t2.5 -21.5zM493 315q0 -39 -2.5 -110t-2.5 -83v-86q0 -13 -10 -13q-5 0 -17.5 1t-17.5 1q-1 0 -82 -17.5t-150 -17.5q-159 0 -159 137q0 71 38.5 111t111.5 40q30 0 66 -9t49 -9q28 0 28 33q0 35 -31 55t-82 20
q-81 0 -132 -35q-3 -2 -6 -2q-7 0 -7 9t3 66q-3 48 -3 60q0 10 10 14q62 27 175 27q221 0 221 -192zM346 164q0 14 -1.5 18.5t-12.5 4.5h-62q-61 0 -61 -53q0 -52 65 -52q72 0 72 82z" />
    <glyph glyph-name="atilde" unicode="&#xe3;" horiz-adv-x="555" 
d="M454 695q0 -64 -26.5 -102.5t-71.5 -38.5q-30 0 -80.5 20.5t-69.5 20.5q-34 0 -34 -29q0 -13 -10 -13q-7 0 -22 2q-15 -1 -22 -1q-8 0 -8 19q0 69 33 107q28 32 67 32q29 0 79 -20.5t69 -20.5q34 0 34 26q0 15 8 15q6 0 22 -2q14 3 20 3q12 0 12 -18zM493 315
q0 -39 -2.5 -110t-2.5 -83v-86q0 -13 -10 -13q-5 0 -17.5 1t-17.5 1q-1 0 -82 -17.5t-150 -17.5q-159 0 -159 137q0 71 38.5 111t111.5 40q30 0 66 -9t49 -9q28 0 28 33q0 35 -31 55t-82 20q-81 0 -132 -35q-3 -2 -6 -2q-7 0 -7 9t3 66q-3 48 -3 60q0 10 10 14q62 27 175 27
q221 0 221 -192zM346 164q0 14 -1.5 18.5t-12.5 4.5h-62q-61 0 -61 -53q0 -52 65 -52q72 0 72 82z" />
    <glyph glyph-name="aring" unicode="&#xe5;" horiz-adv-x="555" 
d="M402 647q0 -52 -34.5 -82.5t-97.5 -30.5q-62 0 -97 30.5t-35 82.5q0 50 35 80.5t97 30.5t97 -29.5t35 -81.5zM493 315q0 -39 -2.5 -110t-2.5 -83v-86q0 -13 -10 -13q-5 0 -17.5 1t-17.5 1q-1 0 -82 -17.5t-150 -17.5q-159 0 -159 137q0 71 38.5 111t111.5 40q30 0 66 -9
t49 -9q28 0 28 33q0 35 -31 55t-82 20q-81 0 -132 -35q-3 -2 -6 -2q-7 0 -7 9t3 66q-3 48 -3 60q0 10 10 14q62 27 175 27q221 0 221 -192zM308 647q0 43 -38 43q-39 0 -39 -43t39 -43q38 0 38 43zM346 164q0 14 -1.5 18.5t-12.5 4.5h-62q-61 0 -61 -53q0 -52 65 -52
q72 0 72 82z" />
    <glyph glyph-name="ccedilla" unicode="&#xe7;" horiz-adv-x="547" 
d="M485 171q0 -11 -2.5 -32.5t-2.5 -32.5v-45q0 -18 -16 -28q-61 -39 -165 -43q-1 -7 -1 -13q0 -14 19 -14q94 0 94 -72q0 -93 -129 -93q-74 0 -107 13q-12 5 -12 18v73q0 9 4 9q3 0 7 -3q29 -22 73 -22q39 0 39 21q0 23 -76 23q-7 0 -7 9q0 1 7 59q-168 39 -168 249
q0 118 65.5 189t182.5 71q130 0 185 -64q8 -9 8 -17q0 -3 -5 -8q-22 -23 -36 -47q-8 -17 -25 -49q-7 -11 -12 -11q-9 0 -13 9q-34 71 -87 71q-90 0 -90 -134q0 -131 114 -131q83 0 135 51q7 7 12 7q9 0 9 -13z" />
    <glyph glyph-name="eacute" unicode="&#xe9;" horiz-adv-x="548" 
d="M404 694q0 -7 -5 -16l-50 -92l-20 -40q-4 -7 -13 -7h-87q-10 0 -10 5q0 2 5 11.5t7 23.5l14 92q5 32 9 32h10q8 -1 13 -1h114q13 0 13 -8zM491 330q0 -43 -7 -73q-5 -20 -28 -20h-222q-22 0 -22 -17q0 -47 36 -72q32 -22 80 -22q35 0 76.5 14t60.5 33q5 5 11 5q9 0 9 -11
q0 -9 -5 -63v-56q0 -14 -9 -20q-54 -38 -183 -38q-246 0 -246 256q0 115 68.5 188t179.5 73q90 0 145.5 -46t55.5 -131zM350 344q0 32 -19.5 51t-48.5 19q-30 0 -50.5 -23.5t-20.5 -58.5q0 -20 15 -20q4 0 16 3t16 3h72q20 0 20 26z" />
    <glyph glyph-name="egrave" unicode="&#xe8;" horiz-adv-x="548" 
d="M352 544q0 -5 -10 -5h-87q-9 0 -13 7l-20 40l-50 92q-5 9 -5 16q0 8 13 8h114q5 0 13 1h10q4 0 9 -32l14 -92q2 -14 7 -23.5t5 -11.5zM491 330q0 -43 -7 -73q-5 -20 -28 -20h-222q-22 0 -22 -17q0 -47 36 -72q32 -22 80 -22q35 0 76.5 14t60.5 33q5 5 11 5q9 0 9 -11
q0 -9 -5 -63v-56q0 -14 -9 -20q-54 -38 -183 -38q-246 0 -246 256q0 115 68.5 188t179.5 73q90 0 145.5 -46t55.5 -131zM350 344q0 32 -19.5 51t-48.5 19q-30 0 -50.5 -23.5t-20.5 -58.5q0 -20 15 -20q4 0 16 3t16 3h72q20 0 20 26z" />
    <glyph glyph-name="ecircumflex" unicode="&#xea;" horiz-adv-x="548" 
d="M472 546q0 -5 -12 -5h-96q-18 0 -30 20l-31 50q-11 17 -17 17q-4 0 -15 -17l-32 -49q-14 -21 -28 -21h-80q-24 0 -24 5q0 1 20 31l72 108q11 17 25 17h134q11 0 14.5 -5t7.5 -12l79 -118q13 -19 13 -21zM491 330q0 -43 -7 -73q-5 -20 -28 -20h-222q-22 0 -22 -17
q0 -47 36 -72q32 -22 80 -22q35 0 76.5 14t60.5 33q5 5 11 5q9 0 9 -11q0 -9 -5 -63v-56q0 -14 -9 -20q-54 -38 -183 -38q-246 0 -246 256q0 115 68.5 188t179.5 73q90 0 145.5 -46t55.5 -131zM350 344q0 32 -19.5 51t-48.5 19q-30 0 -50.5 -23.5t-20.5 -58.5q0 -20 15 -20
q4 0 16 3t16 3h72q20 0 20 26z" />
    <glyph glyph-name="edieresis" unicode="&#xeb;" horiz-adv-x="548" 
d="M434 585q0 -16 -14 -16h-83q-16 0 -16 22q0 7 1 19.5t1 19.5q0 6 -1.5 17t-1.5 17q0 17 16 17h82q15 0 15 -18q0 -6 -2 -17.5t-2 -17.5q0 -7 2.5 -21.5t2.5 -21.5zM253 585q0 -16 -14 -16h-83q-16 0 -16 20q0 7 1.5 20.5t1.5 20.5q0 6 -1.5 17.5t-1.5 17.5q0 16 15 16h83
q14 0 14 -16q0 -6 -2 -18.5t-2 -18.5q0 -7 2.5 -21.5t2.5 -21.5zM491 330q0 -43 -7 -73q-5 -20 -28 -20h-222q-22 0 -22 -17q0 -47 36 -72q32 -22 80 -22q35 0 76.5 14t60.5 33q5 5 11 5q9 0 9 -11q0 -9 -5 -63v-56q0 -14 -9 -20q-54 -38 -183 -38q-246 0 -246 256
q0 115 68.5 188t179.5 73q90 0 145.5 -46t55.5 -131zM350 344q0 32 -19.5 51t-48.5 19q-30 0 -50.5 -23.5t-20.5 -58.5q0 -20 15 -20q4 0 16 3t16 3h72q20 0 20 26z" />
    <glyph glyph-name="iacute" unicode="&#xed;" horiz-adv-x="315" 
d="M264 694q0 -7 -5 -16l-50 -92l-20 -40q-4 -7 -13 -7h-87q-10 0 -10 5q0 2 5 11.5t7 23.5l14 92q5 32 9 32h10q8 -1 13 -1h114q13 0 13 -8zM243 6q0 -7 -7 -7q-12 0 -76 4l-72 -3q-15 0 -15 10q0 2 1 10.5t1 16.5v376q0 14 -1.5 36t-1.5 28q0 19 17 19q7 0 67 -4
q64 5 71 5q9 0 9 -15v-18q-1 -12 -1 -15v-364q0 -26 4 -51t4 -28z" />
    <glyph glyph-name="igrave" unicode="&#xec;" horiz-adv-x="315" 
d="M222 544q0 -5 -10 -5h-87q-9 0 -13 7l-20 40l-50 92q-5 9 -5 16q0 8 13 8h114q5 0 13 1h10q4 0 9 -32l14 -92q2 -14 7 -23.5t5 -11.5zM243 6q0 -7 -7 -7q-12 0 -76 4l-72 -3q-15 0 -15 10q0 2 1 10.5t1 16.5v376q0 14 -1.5 36t-1.5 28q0 19 17 19q7 0 67 -4q64 5 71 5
q9 0 9 -15v-18q-1 -12 -1 -15v-364q0 -26 4 -51t4 -28z" />
    <glyph glyph-name="icircumflex" unicode="&#xee;" horiz-adv-x="315" 
d="M342 546q0 -5 -12 -5h-96q-18 0 -30 20l-31 50q-11 17 -17 17q-4 0 -15 -17l-32 -49q-14 -21 -28 -21h-80q-24 0 -24 5q0 1 20 31l72 108q11 17 25 17h134q11 0 14.5 -5t7.5 -12l79 -118q13 -19 13 -21zM243 6q0 -7 -7 -7q-12 0 -76 4l-72 -3q-15 0 -15 10q0 2 1 10.5
t1 16.5v376q0 14 -1.5 36t-1.5 28q0 19 17 19q7 0 67 -4q64 5 71 5q9 0 9 -15v-18q-1 -12 -1 -15v-364q0 -26 4 -51t4 -28z" />
    <glyph glyph-name="idieresis" unicode="&#xef;" horiz-adv-x="315" 
d="M305 585q0 -16 -14 -16h-83q-16 0 -16 22q0 7 1 19.5t1 19.5q0 6 -1.5 17t-1.5 17q0 17 16 17h82q15 0 15 -18q0 -6 -2 -17.5t-2 -17.5q0 -7 2.5 -21.5t2.5 -21.5zM124 585q0 -16 -14 -16h-83q-16 0 -16 20q0 7 1.5 20.5t1.5 20.5q0 6 -1.5 17.5t-1.5 17.5q0 16 15 16h83
q14 0 14 -16q0 -6 -2 -18.5t-2 -18.5q0 -7 2.5 -21.5t2.5 -21.5zM243 6q0 -7 -7 -7q-12 0 -76 4l-72 -3q-15 0 -15 10q0 2 1 10.5t1 16.5v376q0 14 -1.5 36t-1.5 28q0 19 17 19q7 0 67 -4q64 5 71 5q9 0 9 -15v-18q-1 -12 -1 -15v-364q0 -26 4 -51t4 -28z" />
    <glyph glyph-name="ntilde" unicode="&#xf1;" horiz-adv-x="600" 
d="M484 695q0 -64 -26.5 -102.5t-71.5 -38.5q-30 0 -80.5 20.5t-69.5 20.5q-34 0 -34 -29q0 -13 -10 -13q-7 0 -22 2q-15 -1 -22 -1q-8 0 -8 19q0 69 33 107q28 32 67 32q29 0 79 -20.5t69 -20.5q34 0 34 26q0 15 8 15q6 0 22 -2q14 3 20 3q12 0 12 -18zM548 14
q0 -14 -12 -14q-6 0 -72 4l-65 -4q-14 0 -14 16q0 4 1 13v14v185q0 64 -9 94q-16 55 -63 55q-49 0 -65 -51q-8 -27 -8 -93v-193q0 -4 1 -14v-12q0 -14 -12 -14q-5 0 -72 3l-69 -3q-9 0 -9 11q0 4 1 13v14v221q0 58 15 91q6 13 6 19q0 10 -13 25l-39 46q-8 9 -8 16q0 4 10 11
l50 36q6 4 12 4t11 -4l42 -36q8 -7 18 -7q5 0 24 11q62 36 145 36q84 0 134 -54q58 -62 58 -184v-205q0 -13 1 -29.5t1 -20.5z" />
    <glyph glyph-name="oacute" unicode="&#xf3;" horiz-adv-x="564" 
d="M404 694q0 -7 -5 -16l-50 -92l-20 -40q-4 -7 -13 -7h-87q-10 0 -10 5q0 2 5 11.5t7 23.5l14 92q5 32 9 32h10q8 -1 13 -1h114q13 0 13 -8zM532 248q0 -258 -248 -258q-252 0 -252 262q0 65 26 122q23 50 57 79q28 0 78 27t108 27q108 0 168 -63q63 -67 63 -196zM360 250
q0 143 -79 143q-76 0 -76 -140q0 -146 78 -146q77 0 77 143z" />
    <glyph glyph-name="ograve" unicode="&#xf2;" horiz-adv-x="564" 
d="M352 544q0 -5 -10 -5h-87q-9 0 -13 7l-20 40l-50 92q-5 9 -5 16q0 8 13 8h114q5 0 13 1h10q4 0 9 -32l14 -92q2 -14 7 -23.5t5 -11.5zM532 248q0 -258 -248 -258q-252 0 -252 262q0 65 26 122q23 50 57 79q28 0 78 27t108 27q108 0 168 -63q63 -67 63 -196zM360 250
q0 143 -79 143q-76 0 -76 -140q0 -146 78 -146q77 0 77 143z" />
    <glyph glyph-name="ocircumflex" unicode="&#xf4;" horiz-adv-x="564" 
d="M472 546q0 -5 -12 -5h-96q-18 0 -30 20l-31 50q-11 17 -17 17q-4 0 -15 -17l-32 -49q-14 -21 -28 -21h-80q-24 0 -24 5q0 1 20 31l72 108q11 17 25 17h134q11 0 14.5 -5t7.5 -12l79 -118q13 -19 13 -21zM532 248q0 -258 -248 -258q-252 0 -252 262q0 65 26 122
q23 50 57 79q28 0 78 27t108 27q108 0 168 -63q63 -67 63 -196zM360 250q0 143 -79 143q-76 0 -76 -140q0 -146 78 -146q77 0 77 143z" />
    <glyph glyph-name="odieresis" unicode="&#xf6;" horiz-adv-x="564" 
d="M434 585q0 -16 -14 -16h-83q-16 0 -16 22q0 7 1 19.5t1 19.5q0 6 -1.5 17t-1.5 17q0 17 16 17h82q15 0 15 -18q0 -6 -2 -17.5t-2 -17.5q0 -7 2.5 -21.5t2.5 -21.5zM253 585q0 -16 -14 -16h-83q-16 0 -16 20q0 7 1.5 20.5t1.5 20.5q0 6 -1.5 17.5t-1.5 17.5q0 16 15 16h83
q14 0 14 -16q0 -6 -2 -18.5t-2 -18.5q0 -7 2.5 -21.5t2.5 -21.5zM532 248q0 -258 -248 -258q-252 0 -252 262q0 65 26 122q23 50 57 79q28 0 78 27t108 27q108 0 168 -63q63 -67 63 -196zM360 250q0 143 -79 143q-76 0 -76 -140q0 -146 78 -146q77 0 77 143z" />
    <glyph glyph-name="otilde" unicode="&#xf5;" horiz-adv-x="564" 
d="M464 695q0 -64 -26.5 -102.5t-71.5 -38.5q-30 0 -80.5 20.5t-69.5 20.5q-34 0 -34 -29q0 -13 -10 -13q-7 0 -22 2q-15 -1 -22 -1q-8 0 -8 19q0 69 33 107q28 32 67 32q29 0 79 -20.5t69 -20.5q34 0 34 26q0 15 8 15q6 0 22 -2q14 3 20 3q12 0 12 -18zM532 248
q0 -258 -248 -258q-252 0 -252 262q0 65 26 122q23 50 57 79q28 0 78 27t108 27q108 0 168 -63q63 -67 63 -196zM360 250q0 143 -79 143q-76 0 -76 -140q0 -146 78 -146q77 0 77 143z" />
    <glyph glyph-name="uacute" unicode="&#xfa;" horiz-adv-x="592" 
d="M404 694q0 -7 -5 -16l-50 -92l-20 -40q-4 -7 -13 -7h-87q-10 0 -10 5q0 2 5 11.5t7 23.5l14 92q5 32 9 32h10q8 -1 13 -1h114q13 0 13 -8zM560 34q0 -7 -5 -9l-73 -31q-9 -4 -12 -4q-7 0 -11 4l-30 31q-7 7 -18 7q-4 0 -23 -11q-55 -31 -132 -31q-84 0 -134 54
q-58 62 -58 184v205q0 13 -1 29.5t-1 20.5q0 14 12 14q6 0 71 -4l66 4q14 0 14 -16v-13q-1 -10 -1 -14v-185q0 -64 9 -94q16 -55 63 -55q49 0 65 51q8 27 8 93v193v13q-1 9 -1 11q0 16 12 16q5 0 67 -3l75 3q8 0 8 -13v-12q-1 -9 -1 -13v-221q0 -52 -24 -98q-6 -12 -6 -19
q0 -9 13 -25l39 -47q9 -11 9 -15z" />
    <glyph glyph-name="ugrave" unicode="&#xf9;" horiz-adv-x="592" 
d="M362 544q0 -5 -10 -5h-87q-9 0 -13 7l-20 40l-50 92q-5 9 -5 16q0 8 13 8h114q5 0 13 1h10q4 0 9 -32l14 -92q2 -14 7 -23.5t5 -11.5zM560 34q0 -7 -5 -9l-73 -31q-9 -4 -12 -4q-7 0 -11 4l-30 31q-7 7 -18 7q-4 0 -23 -11q-55 -31 -132 -31q-84 0 -134 54
q-58 62 -58 184v205q0 13 -1 29.5t-1 20.5q0 14 12 14q6 0 71 -4l66 4q14 0 14 -16v-13q-1 -10 -1 -14v-185q0 -64 9 -94q16 -55 63 -55q49 0 65 51q8 27 8 93v193v13q-1 9 -1 11q0 16 12 16q5 0 67 -3l75 3q8 0 8 -13v-12q-1 -9 -1 -13v-221q0 -52 -24 -98q-6 -12 -6 -19
q0 -9 13 -25l39 -47q9 -11 9 -15z" />
    <glyph glyph-name="ucircumflex" unicode="&#xfb;" horiz-adv-x="592" 
d="M482 546q0 -5 -12 -5h-96q-18 0 -30 20l-31 50q-11 17 -17 17q-4 0 -15 -17l-32 -49q-14 -21 -28 -21h-80q-24 0 -24 5q0 1 20 31l72 108q11 17 25 17h134q11 0 14.5 -5t7.5 -12l79 -118q13 -19 13 -21zM560 34q0 -7 -5 -9l-73 -31q-9 -4 -12 -4q-7 0 -11 4l-30 31
q-7 7 -18 7q-4 0 -23 -11q-55 -31 -132 -31q-84 0 -134 54q-58 62 -58 184v205q0 13 -1 29.5t-1 20.5q0 14 12 14q6 0 71 -4l66 4q14 0 14 -16v-13q-1 -10 -1 -14v-185q0 -64 9 -94q16 -55 63 -55q49 0 65 51q8 27 8 93v193v13q-1 9 -1 11q0 16 12 16q5 0 67 -3l75 3
q8 0 8 -13v-12q-1 -9 -1 -13v-221q0 -52 -24 -98q-6 -12 -6 -19q0 -9 13 -25l39 -47q9 -11 9 -15z" />
    <glyph glyph-name="udieresis" unicode="&#xfc;" horiz-adv-x="592" 
d="M444 585q0 -16 -14 -16h-83q-16 0 -16 22q0 7 1 19.5t1 19.5q0 6 -1.5 17t-1.5 17q0 17 16 17h82q15 0 15 -18q0 -6 -2 -17.5t-2 -17.5q0 -7 2.5 -21.5t2.5 -21.5zM263 585q0 -16 -14 -16h-83q-16 0 -16 20q0 7 1.5 20.5t1.5 20.5q0 6 -1.5 17.5t-1.5 17.5q0 16 15 16h83
q14 0 14 -16q0 -6 -2 -18.5t-2 -18.5q0 -7 2.5 -21.5t2.5 -21.5zM560 34q0 -7 -5 -9l-73 -31q-9 -4 -12 -4q-7 0 -11 4l-30 31q-7 7 -18 7q-4 0 -23 -11q-55 -31 -132 -31q-84 0 -134 54q-58 62 -58 184v205q0 13 -1 29.5t-1 20.5q0 14 12 14q6 0 71 -4l66 4q14 0 14 -16
v-13q-1 -10 -1 -14v-185q0 -64 9 -94q16 -55 63 -55q49 0 65 51q8 27 8 93v193v13q-1 9 -1 11q0 16 12 16q5 0 67 -3l75 3q8 0 8 -13v-12q-1 -9 -1 -13v-221q0 -52 -24 -98q-6 -12 -6 -19q0 -9 13 -25l39 -47q9 -11 9 -15z" />
    <glyph glyph-name="dagger" unicode="&#x2020;" horiz-adv-x="512" 
d="M462 218q0 -10 -10 -10q-5 0 -58.5 5t-56.5 5q-13 0 -13 -18q0 19 10 -266q1 -28 1 -37q0 -16 -5 -16q-1 0 -5.5 2t-8.5 2h-137q-7 0 -7 4q0 2 2.5 12.5t2.5 20.5l10 276q0 20 -14 20q-2 0 -56 -4.5t-57 -4.5q-10 0 -10 9v132q0 10 12 10q-12 0 95 -8q5 0 12.5 -6.5
t10.5 -6.5q8 0 8 16q0 9 -6.5 64t-6.5 59q0 18 12 18h137q12 0 12 -19q0 -2 -6.5 -55.5t-6.5 -56.5q0 -13 18 -13q4 0 55 3.5t53 3.5q13 0 13 -9v-132z" />
    <glyph glyph-name="degree" unicode="&#xb0;" horiz-adv-x="390" 
d="M340 481q0 -62 -41 -103t-104 -41q-64 0 -104.5 40.5t-40.5 103.5q0 62 42 103t103 41t103 -39.5t42 -104.5zM250 481q0 26 -15.5 42.5t-39.5 16.5t-40 -16.5t-16 -42.5q0 -25 16 -41.5t40 -16.5q25 0 40 16.5t15 41.5z" />
    <glyph glyph-name="cent" unicode="&#xa2;" horiz-adv-x="553" 
d="M493 171q0 -6 -5 -65v-45q0 -18 -16 -28q-56 -35 -147 -42v-59q0 -10 1.5 -20t1.5 -12q0 -6 -8 -6h-61q-7 0 -7 6l2 11t2 26v55q-206 21 -206 255q0 115 60 183q54 62 146 74v56q0 9 -1.5 21t-1.5 14q0 7 8 7h60q7 0 7 -5q0 -2 -1.5 -14t-1.5 -24v-53q106 -7 158 -63
q8 -9 8 -17q0 -7 -41 -55q-30 -60 -37 -60q-9 0 -13 9q-30 71 -87 71q-90 0 -90 -134q0 -131 114 -131q41 0 81 17q36 14 54 34q6 7 12 7q9 0 9 -13z" />
    <glyph glyph-name="sterling" unicode="&#xa3;" horiz-adv-x="577" 
d="M517 11q0 -11 -14 -11h-404q-1 0 -8.5 -1t-10.5 -1q-11 0 -11 13q0 9 3 42l-1 51q0 9 8 9q3 0 10 -1.5t12 -1.5q49 0 49 48q0 11 -3 30h-79q-8 0 -8 8v34q0 4 3 4t7 -1.5t5 -1.5h62l-14 48h-55q-8 0 -8 8v34q0 3 3 3t7 -1t5 -1h38q-2 14 -2 27q0 74 55 116t153 42
q119 0 172 -23q4 -2 4 -7t-15 -77v-38q0 -7 -7 -7q-4 0 -7 2q-44 29 -116 29q-80 0 -80 -59v-5h168q4 0 9 1.5t7 1.5t2 -4v-4q-2 -15 -3 -26.5t-16 -11.5h-156q2 -5 16 -48h141q4 0 9 2t7 2t2 -4v-4q-2 -13 -3 -26t-16 -13h-129v-3q0 -39 -44 -54q-4 -1 -4 -13q0 -8 4 -8
q6 0 19 3t17 3h89q11 0 19 -6t10 -6q6 0 8 21l2 18q1 12 12 12q2 0 31 -2l37 2q9 0 9 -11t-2 -63z" />
    <glyph glyph-name="section" unicode="&#xa7;" horiz-adv-x="575" 
d="M515 204q0 -39 -20.5 -67.5t-54.5 -37.5h-3q-2 0 -7 1h-7q-9 0 -9 -6q0 -7 8 -8q5 -2 11 -3q38 -24 38 -75q0 -55 -46 -87q-50 -36 -146 -36q-111 0 -174 24q-16 7 -16 15q0 7 11 58q1 22 3 50q1 10 7 10q3 0 16 -9q20 -14 65 -25.5t79 -11.5q47 0 47 18q0 14 -67 29
q-86 19 -123 40q-67 37 -67 106q0 80 78 103q3 1 11 1t8 6q0 4 -6 6q-10 5 -11 5q-36 24 -36 72q0 55 45 88q51 37 147 37q40 0 104 -9q86 -12 86 -29q0 -5 -12 -52q-5 -48 -5 -54q0 -11 -8 -11l-15 9q-22 13 -65.5 23.5t-78.5 10.5q-43 0 -43 -18q0 -13 66 -28
q86 -19 124 -40q66 -37 66 -105zM365 186q0 22 -44 36q-35 11 -64 11q-26 0 -36 -5.5t-10 -22.5q0 -23 46 -37q34 -10 65 -10q43 0 43 28z" />
    <glyph glyph-name="bullet" unicode="&#x2022;" horiz-adv-x="369" 
d="M309 167q0 -38 -29 -38h-186q-33 0 -33 50q0 27 5 82q-6 56 -6 79q0 42 32 42h186q30 0 30 -40q0 -25 -9 -81q10 -65 10 -94z" />
    <glyph glyph-name="paragraph" unicode="&#xb6;" horiz-adv-x="572" 
d="M492 -93q0 -15 -11 -15q-7 0 -91 4l-89 -4q-14 0 -14 12q0 3 2 24t2 40v73q0 3 1 8v7q0 12 -9 12q-11 0 -29 -10t-38 -10q-69 0 -114 50q-52 56 -52 155q0 128 77 197q64 57 153 57q112 0 171 -21q8 -3 14 -3q3 0 8 1t6 1q9 0 9 -23v-494q0 -10 2 -32t2 -29zM410 1
q0 3 -2 30.5t-2 51.5v275q0 5 1 11v9q0 6 -8 8l-17 5q-7 0 -7 -12q0 -1 1.5 -22.5t1.5 -39.5v-298q0 -7 -1 -14.5t-1 -9.5q0 -5 5 -5h20q9 0 9 11zM291 192v194q0 15 -18 15q-20 0 -37 -35q-19 -39 -19 -94q0 -120 52 -120q22 0 22 40z" />
    <glyph glyph-name="germandbls" unicode="&#xdf;" horiz-adv-x="664" 
d="M614 161q0 -70 -53 -118q-56 -53 -147 -53t-150 46q-13 10 -13 19q0 11 26 50q3 13 11 41q5 14 11 14q5 0 17 -14q34 -40 94 -40q40 0 40 33q0 23 -46 48q-67 35 -85 52q-46 41 -46 105q0 40 46 105.5t46 95.5q0 21 -14 35.5t-35 14.5q-82 0 -82 -106v-467q0 -22 -10 -22
q-11 0 -69 4l-75 -4q-10 0 -10 12q0 1 1 7.5t1 12.5v457q0 102 64.5 163.5t184.5 61.5q95 0 155 -38.5t60 -104.5q0 -43 -48 -103.5t-48 -87.5q0 -30 45 -59q73 -46 84 -55q45 -42 45 -105z" />
    <glyph glyph-name="registered" unicode="&#xae;" horiz-adv-x="738" 
d="M688 339q0 -143 -90.5 -233t-228.5 -90q-137 0 -228 90.5t-91 232.5q0 139 91 229t228 90q135 0 226 -88q93 -91 93 -231zM634 336q0 121 -75 198.5t-190 77.5q-122 0 -193.5 -77t-71.5 -199q0 -119 74 -196.5t191 -77.5q119 0 192 75.5t73 198.5zM539 166q0 -7 -8 -7
h-104q-8 0 -11 9l-26 83q-11 27 -32 35.5t-27 8.5q-4 0 -4 -8v-121q0 -8 -6 -8h-87q-7 0 -7 9v335q0 8 7 9q66 7 155 7q120 0 120 -105q0 -34 -21 -60q-17 -22 -42 -30q-5 -2 -5 -4q0 -3 8 -6q27 -11 39 -39l14 -42q7 -15 24 -15h8q5 0 5 -7v-44zM407 404q0 47 -48 47
q-14 0 -23.5 -1.5t-9.5 -17.5v-54q0 -13 10 -17t23 -4q48 0 48 47z" />
    <glyph glyph-name="copyright" unicode="&#xa9;" horiz-adv-x="738" 
d="M688 339q0 -143 -90.5 -233t-228.5 -90q-137 0 -228 90.5t-91 232.5q0 139 91 229t228 90q135 0 226 -88q93 -91 93 -231zM634 336q0 121 -75 198.5t-190 77.5q-122 0 -193.5 -77t-71.5 -199q0 -119 74 -196.5t191 -77.5q119 0 192 75.5t73 198.5zM508 192q0 -7 -7 -7
q-2 0 -16 1t-17 1q-5 0 -10 -4q-39 -29 -99 -29q-162 0 -162 184q0 94 52 142q43 40 113 40q57 0 90 -24q7 -5 17 -5q3 0 15 1h13q5 0 5 -8v-91q0 -6 -5 -6h-66q-6 0 -6 5q0 21 -15 36.5t-37 15.5q-68 0 -68 -105q0 -106 69 -106q24 0 40 15.5t16 35.5q0 6 5 6h67q6 0 6 -6
v-92z" />
    <glyph glyph-name="trademark" unicode="&#x2122;" horiz-adv-x="849" 
d="M779 319q0 -8 -9 -8q-6 0 -27 2q-37 -3 -47 -3q-12 0 -12 15v107q0 9 1 24t1 20v17q0 14 -4 14q-5 0 -9 -16q-6 -24 -15 -40l-39 -70q-6 -11 -6 -28v-33q0 -9 -7 -9q-4 0 -37 3l-39 -3q-8 0 -8 9q0 4 1 16v17q-1 14 -5 22l-42 79q-6 11 -14 37q-5 16 -11 16q-4 0 -4 -10
t1.5 -31t1.5 -32v-110q0 -15 -11 -15q-8 0 -35 3h-41q-6 0 -6 5l2.5 15.5t2.5 34.5v296q0 10 11 10h52q37 3 43 3q7 0 9 -5q8 -23 34 -85l52 -107q4 -8 8 -8q5 0 8 7l47 108q20 46 33 85q2 6 9 6t41 -4h56q10 0 10 -10v-294q0 -17 2 -33t2 -17zM334 585q0 -7 -8 -7
q-2 0 -12 1t-20 1h-43q-14 0 -14 -14v-199q0 -7 2 -26.5t2 -22.5q0 -7 -7 -7q-5 0 -45 3q-40 -3 -46 -3q-8 0 -8 9v246q0 3 1 5.5t1 4.5q0 4 -5 4h-65q-5 0 -11.5 -1.5t-10.5 -1.5t-4 6t2 46q-3 31 -3 34q0 11 11 11h244q13 0 23 4t11 4q4 0 4 -7q0 -14 -2 -40z" />
    <glyph glyph-name="acute" unicode="&#xb4;" horiz-adv-x="305" 
d="M245 694q0 -7 -5 -16l-50 -92l-20 -40q-4 -7 -13 -7h-87q-10 0 -10 5q0 2 5 11.5t7 23.5l14 92q5 32 9 32h10q8 -1 13 -1h114q13 0 13 -8z" />
    <glyph glyph-name="dieresis" unicode="&#xa8;" horiz-adv-x="414" 
d="M354 595q0 -16 -14 -16h-83q-16 0 -16 22q0 7 1 19.5t1 19.5q0 6 -1.5 17t-1.5 17q0 17 16 17h82q15 0 15 -18q0 -6 -2 -17.5t-2 -17.5q0 -7 2.5 -21.5t2.5 -21.5zM173 595q0 -16 -14 -16h-83q-16 0 -16 20q0 7 1.5 20.5t1.5 20.5q0 6 -1.5 17.5t-1.5 17.5q0 16 15 16h83
q14 0 14 -16q0 -6 -2 -18.5t-2 -18.5q0 -7 2.5 -21.5t2.5 -21.5z" />
    <glyph glyph-name="AE" unicode="&#xc6;" horiz-adv-x="971" 
d="M931 9q0 -12 -14 -12q-9 0 -69 1.5t-86 1.5h-214q-31 -7 -43 -7t-12 9q0 3 1 9t1 9q0 10 -3 30l-15 102q-1 13 -1 26q-3 18 -16 18q-4 0 -25.5 -8t-29.5 -8h-98q-18 0 -25.5 -4.5t-15.5 -21.5l-44 -99l-16 -46q-6 -16 -19 -16q-10 0 -69 8h-87q-11 0 -11 9q0 -1 27 58
l252 555l20 54q8 14 42 14h513q11 0 11 -9q0 -11 -4 -61l3 -71q0 -12 -12 -12q-11 0 -38.5 3t-48.5 3h-182q-24 0 -24 -10q0 -4 2.5 -11l3.5 -10l12 -68q3 -17 25 -17h168q15 0 15 -15q0 -6 -3 -61q3 -53 3 -62q0 -12 -14 -12h-143q-23 0 -23 -14q0 -4 1 -10l12 -77
q3 -20 11.5 -25.5t32.5 -5.5h93q21 0 22 18l1 29q1 15 10 15q10 0 65 -3q41 3 47 3q11 0 11 -14t-3 -85zM451 323q0 5 -1 12l-17 117q-6 40 -6 42q-8 32 -23 32q-4 0 -7 -18q-6 -29 -18 -58l-49 -117q-2 -5 -2 -8q0 -9 12 -9h96q15 0 15 7z" />
    <glyph glyph-name="Oslash" unicode="&#xd8;" horiz-adv-x="705" 
d="M655 350q0 -188 -99 -282q-82 -78 -212 -78q-90 0 -151 31l-22 -40q-8 -15 -17 -36q-5 -11 -8 -11q-1 0 -34 7h-11q-11 0 -11 4q0 3 8 10.5t13 17.5q1 1 42 74q-103 83 -103 293q0 89 29.5 167.5t82.5 125.5q31 1 87.5 35t117.5 34q81 0 138 -26l17 31l10 23q9 19 13 19
q7 0 31 -3h18q4 0 4 -4q0 -2 -16 -30l-35 -62q108 -83 108 -300zM421 527q-25 33 -67 33q-110 0 -110 -216q0 -70 11 -115zM461 342q0 80 -14 130l-168 -299q26 -39 73 -39q48 0 77 48q32 55 32 160z" />
    <glyph glyph-name="plusminus" unicode="&#xb1;" horiz-adv-x="498" 
d="M438 281q0 -18 -10 -18h-103q-16 0 -16 -20v-89q0 -19 -17 -19h-84q-16 0 -16 18v91q0 13 -4 16t-14 3h-96q-13 0 -15.5 3t-2.5 16v78q0 15 20 15h100q12 0 12 18v87q0 13 3 16t14 3h82q12 0 15 -3.5t3 -16.5v-86q0 -18 20 -18h91q12 0 15 -2.5t3 -14.5v-77zM438 19
q0 -19 -19 -19h-339q-12 0 -16 3.5t-4 17.5v69q0 12 3.5 15t18.5 3h334q13 0 17.5 -2.5t4.5 -15.5v-71z" />
    <glyph glyph-name="yen" unicode="&#xa5;" horiz-adv-x="565" 
d="M525 486q0 -4 -35 -69l-84 -157q-3 -6 -3 -8q0 -5 9 -5h90q9 0 9 -9v-26q0 -9 -9 -9q-2 0 -13 1t-19 1h-73q-15 0 -22 -13q-12 -22 -12 -31q0 -4 12 -4q33 0 74 1h44h10q8 0 8 -7v-34q0 -6 -4 -6q-2 0 -13.5 2t-22.5 2h-94q-18 0 -18 -26v-70q0 -19 -8 -19q-5 0 -68 4
l-67 -4q-13 0 -13 9q0 2 1 9t1 12v63q0 22 -16 22l-131 -1q-8 1 -8 5v31q0 9 10 9q2 0 12.5 -1t18.5 -1h104q7 0 7 5t-15 34q-5 9 -15 9q-4 0 -56.5 -1t-55.5 -1q-10 0 -10 8v34q0 6 5 6q1 0 12 -2t23 -2h63q7 0 7 4q0 2 -2 6l-94 174q-24 44 -24 55q0 8 13 8h64q10 0 37 2
t31 2q20 0 40 -62l33 -100q4 -22 8.5 -43.5t20.5 -21.5q9 0 9 22v12q0 13 5 26l39 105q16 42 23 52t17 10t71 -4h60q14 0 14 -8z" />
    <glyph glyph-name="mu" unicode="&#xb5;" horiz-adv-x="599" 
d="M569 34q0 -7 -5 -9l-73 -31q-9 -4 -12 -4q-7 0 -11 4l-30 31q-7 7 -18 7q-8 0 -23 -11q-41 -31 -100 -31q-27 0 -46 10q-3 2 -8.5 7t-9.5 5q-3 0 -3 -8q0 -4 1 -12.5t1 -10.5v-104q0 -10 2 -25t2 -19q0 -20 -19 -20q-15 0 -65 5q-50 -5 -69 -5q-13 0 -13 22q0 8 1.5 35.5
t1.5 39.5v523q0 13 -1 29.5t-1 20.5q0 14 12 14q6 0 71 -4l66 4q14 0 14 -16v-13q-1 -10 -1 -14v-185q0 -64 9 -94q16 -55 63 -55q49 0 65 51q8 27 8 93v193v13q-1 9 -1 11q0 16 12 16q5 0 67 -3l75 3q8 0 8 -13v-12q-1 -9 -1 -13v-221q0 -52 -24 -98q-6 -12 -6 -19
q0 -9 13 -25l39 -47q9 -11 9 -15z" />
    <glyph glyph-name="mu" unicode="&#x3bc;" horiz-adv-x="599" 
d="M569 34q0 -7 -5 -9l-73 -31q-9 -4 -12 -4q-7 0 -11 4l-30 31q-7 7 -18 7q-8 0 -23 -11q-41 -31 -100 -31q-27 0 -46 10q-3 2 -8.5 7t-9.5 5q-3 0 -3 -8q0 -4 1 -12.5t1 -10.5v-104q0 -10 2 -25t2 -19q0 -20 -19 -20q-15 0 -65 5q-50 -5 -69 -5q-13 0 -13 22q0 8 1.5 35.5
t1.5 39.5v523q0 13 -1 29.5t-1 20.5q0 14 12 14q6 0 71 -4l66 4q14 0 14 -16v-13q-1 -10 -1 -14v-185q0 -64 9 -94q16 -55 63 -55q49 0 65 51q8 27 8 93v193v13q-1 9 -1 11q0 16 12 16q5 0 67 -3l75 3q8 0 8 -13v-12q-1 -9 -1 -13v-221q0 -52 -24 -98q-6 -12 -6 -19
q0 -9 13 -25l39 -47q9 -11 9 -15z" />
    <glyph glyph-name="ordfeminine" unicode="&#xaa;" horiz-adv-x="354" 
d="M294 593q0 -20 -1.5 -57t-1.5 -43v-45q0 -7 -5 -7q-3 0 -12 1h-13l-40.5 -9t-77.5 -9q-93 0 -93 75t81 75q16 0 35.5 -5t26.5 -5q15 0 15 17q0 33 -61 33q-45 0 -70 -17q-3 -2 -6 -2q-2 2 -2 4v72q0 5 5 7q33 14 95 14q125 0 125 -99zM208 514q0 12 -7 12h-30
q-30 0 -30 -27t32 -27q35 0 35 42z" />
    <glyph glyph-name="ordmasculine" unicode="&#xba;" horiz-adv-x="373" 
d="M323 558q0 -134 -135 -134q-138 0 -138 136q0 68 45 104q15 0 42.5 14t59.5 14q126 0 126 -134zM224 559q0 72 -38 72q-37 0 -37 -70q0 -74 38 -74q37 0 37 72z" />
    <glyph glyph-name="ae" unicode="&#xe6;" horiz-adv-x="857" 
d="M795 331q0 -54 -7 -76q-6 -18 -26 -18h-214q-24 0 -27.5 -4.5t-3.5 -12.5q0 -47 36 -72q31 -22 79 -22q37 0 79 15q39 14 58 32q5 5 11 5q9 0 9 -11q0 -9 -5 -65v-53q0 -13 -9 -20q-53 -39 -183 -39q-81 0 -137 35q-10 6 -18 6q-7 0 -23 -6q-92 -35 -203 -35
q-159 0 -159 137q0 71 38.5 111t111.5 40q30 0 66 -9t49 -9q28 0 28 33q0 35 -31 55t-82 20q-67 0 -132 -35q-4 -2 -7 -2q-6 0 -6 9t3 66q-3 48 -3 60q0 10 10 14q62 27 175 27q106 0 156 -48q3 -3 9 -7q4 2 10 6q58 49 150 49q90 0 144 -47.5t54 -128.5zM655 342
q0 31 -19 51.5t-48 20.5q-31 0 -51.5 -23.5t-20.5 -59.5q0 -19 14 -19q5 0 16.5 3t16.5 3h68q24 0 24 24zM346 164q0 14 -1.5 18.5t-12.5 4.5h-62q-61 0 -61 -53q0 -52 65 -52q72 0 72 82z" />
    <glyph glyph-name="oslash" unicode="&#xf8;" horiz-adv-x="624" 
d="M562 248q0 -258 -248 -258q-70 0 -121 21l-28 -47q-6 -11 -18 -36q-6 -12 -11 -12q-2 0 -32 7h-4q-17 0 -17 4q0 3 8 10.5t14 17.5l47 78q-90 64 -90 219q0 65 26 122q23 50 57 79q28 0 78 27t108 27q53 0 96 -16l13 22q12 20 28 52q8 16 12 16q5 0 19 -3h26q5 0 5 -2
q0 -3 -17 -32l-44 -74q93 -63 93 -222zM357 375q-18 18 -46 18q-76 0 -76 -140q0 -42 6 -71zM390 250q0 44 -8 76l-118 -197q19 -22 49 -22q77 0 77 143z" />
    <glyph glyph-name="questiondown" unicode="&#xbf;" horiz-adv-x="480" 
d="M331 386q0 -20 -17 -20h-101q-16 0 -16 22q0 8 2.5 21.5t2.5 18.5q0 7 -2.5 23t-2.5 23q0 22 15 22h101q17 0 17 -24q0 -7 -1 -22.5t-1 -23.5q0 -6 1.5 -20t1.5 -20zM420 -112q0 -11 -15 -20q-70 -41 -171 -41q-84 0 -134 38t-50 109q0 67 58 116q25 22 106 65
q58 30 58 52q0 20 -25 20q-19 0 -41 -10t-31.5 -22.5t-11.5 -12.5q-6 0 -10 12l-13 43q-19 26 -19 35q0 10 10 19q51 46 130 46q143 0 143 -124q0 -60 -49 -104q-11 -10 -92 -60q-49 -31 -49 -60q0 -38 49 -38q56 0 97 32q10 8 16 8t19 -57q25 -38 25 -46z" />
    <glyph glyph-name="exclamdown" unicode="&#xa1;" horiz-adv-x="330" 
d="M231 385q0 -20 -17 -20h-101q-16 0 -16 22q0 8 2.5 21.5t2.5 18.5q0 7 -2.5 23t-2.5 23q0 22 15 22h101q17 0 17 -24q0 -7 -1 -22.5t-1 -23.5q0 -6 1.5 -20t1.5 -20zM250 -151q0 -18 -16 -18q-18 0 -57 1l-81 -3q-16 0 -16 15q0 8 4 52l28 311q3 33 3 61v24q-1 14 -1 18
q0 14 11 14q8 0 49 -3q26 4 31 4q10 0 14 -55l2 -67l27 -319q2 -24 2 -35z" />
    <glyph glyph-name="logicalnot" unicode="&#xac;" horiz-adv-x="583" 
d="M513 131q0 -13 -2.5 -17.5t-15.5 -4.5h-84q-19 0 -19 19v100q0 19 -21 19h-301q-12 0 -16 3.5t-4 17.5v82q0 12 3.5 15t18.5 3h423q18 0 18 -18v-219z" />
    <glyph glyph-name="florin" unicode="&#x192;" horiz-adv-x="543" 
d="M503 268q0 -4 -3 -18v-26q0 -11 -13 -11h-129q-16 0 -18.5 -2.5t-2.5 -17.5v-95q0 -93 -75 -155q-70 -57 -165 -57q-26 0 -48 8q-9 3 -9 12q0 8 6 56v43q0 10 8 10q-1 0 20 -5.5t48 -5.5q35 0 46 8t11 41v142q0 13 -2 15.5t-14 2.5h-97q-9 0 -9 8q0 5 2 27q-3 13 -3 17
q0 5 10 5h96q3 0 7 -3t5 -3q3 0 5 30q9 103 75 161q60 52 147 52q53 0 79 -7q10 -3 10 -15q0 -7 -5 -54v-53q0 -8 -6 -8q-2 0 -10 3l-4 1q-27 9 -59 9q-69 0 -69 -84q0 -20 5 -24.5t28 -4.5h115q3 0 7.5 1t5.5 1q5 0 5 -4z" />
    <glyph glyph-name="guillemotleft" unicode="&#xab;" horiz-adv-x="619" 
d="M559 471q0 1 -13 -21l-104 -177q-1 -2 -5.5 -6.5t-4.5 -7.5t4.5 -8t5.5 -6l101 -182q2 -4 8.5 -11t6.5 -10q0 -5 -9 -5h-96q-4 0 -7.5 -2.5t-5.5 -2.5q-8 0 -20 17l-127 179l-10 14v26q0 6 7 15l144 189q5 7 10 7t69 -5q33 2 39 2q7 0 7 -5zM336 471q0 1 -13 -21
l-104 -177q-1 -2 -5.5 -6.5t-4.5 -7.5t4.5 -8t5.5 -6l101 -182q2 -4 8.5 -11t6.5 -10q0 -5 -9 -5h-96q-4 0 -7.5 -2.5t-5.5 -2.5q-8 0 -20 17l-127 179l-10 14v26q0 6 7 15l144 189q5 7 10 7t69 -5q33 2 39 2q7 0 7 -5z" />
    <glyph glyph-name="guillemotright" unicode="&#xbb;" horiz-adv-x="619" 
d="M559 242q0 -6 -7 -15l-144 -189q-5 -7 -10 -7t-69 5q-33 -2 -39 -2q-7 0 -7 5q0 -1 13 21l104 177q1 2 5.5 6.5t4.5 7.5t-4.5 8t-5.5 6l-101 182q-2 4 -8.5 11t-6.5 10q0 5 9 5h96q4 0 7.5 2.5t5.5 2.5q8 0 20 -17l127 -179l10 -14v-26zM336 242q0 -6 -7 -15l-144 -189
q-5 -7 -10 -7t-69 5q-33 -2 -39 -2q-7 0 -7 5q0 -1 13 21l104 177q1 2 5.5 6.5t4.5 7.5t-4.5 8t-5.5 6l-101 182q-2 4 -8.5 11t-6.5 10q0 5 9 5h96q4 0 7.5 2.5t5.5 2.5q8 0 20 -17l127 -179l10 -14v-26z" />
    <glyph glyph-name="ellipsis" unicode="&#x2026;" horiz-adv-x="704" 
d="M644 25q0 -25 -15 -25h-100q-17 0 -17 28q0 7 1 25t1 27q0 7 -1.5 22.5t-1.5 22.5q0 23 17 23h100q16 0 16 -25q0 -9 -2.5 -25t-2.5 -21q0 -8 2.5 -26t2.5 -26zM419 25q0 -25 -15 -25h-100q-17 0 -17 28q0 7 1 25t1 27q0 7 -1.5 22.5t-1.5 22.5q0 23 17 23h100
q16 0 16 -25q0 -9 -2.5 -25t-2.5 -21q0 -8 2.5 -26t2.5 -26zM193 25q0 -25 -15 -25h-100q-17 0 -17 28q0 7 1 25t1 27q0 7 -1.5 22.5t-1.5 22.5q0 23 17 23h100q16 0 16 -25q0 -9 -2.5 -25t-2.5 -21q0 -8 2.5 -26t2.5 -26z" />
    <glyph glyph-name="nonbreakingspace" unicode="&#xa0;" horiz-adv-x="130" 
 />
    <glyph glyph-name="Agrave" unicode="&#xc0;" horiz-adv-x="684" 
d="M440 731q1 -3 -9 -3h-97q-9 0 -15 5l-32 31l-77 66q-1 2 -8 18q-2 6 11 6h120h12q8 1 10 1q5 0 19 -25l43 -71zM664 15q0 -14 -13 -14h-93q-53 -8 -66 -8q-12 0 -15.5 19.5l-6.5 37.5l-30 102q-3 13 -5 26q-6 18 -19 18q-4 0 -24 -7.5t-28 -7.5l-82 -1q-19 0 -25.5 -4.5
t-11.5 -21.5l-29 -99l-10 -46q-3 -16 -16 -16q-10 0 -70 8h-88q-12 0 -12 11q0 5 7 22q9 24 12 34l169 555l12 54q6 14 40 14q9 0 75 -4l83 4q25 0 33 -6.5t18 -38.5l176 -561q19 -61 19 -70zM404 323q0 5 -2 12l-34 117q-22 74 -40 74q-4 0 -5 -18q-1 -29 -9 -58l-32 -117
q-1 -4 -1 -8q0 -9 14 -9h96q13 0 13 7z" />
    <glyph glyph-name="Atilde" unicode="&#xc3;" horiz-adv-x="684" 
d="M519 871q0 -64 -26.5 -102.5t-71.5 -38.5q-31 0 -81.5 20.5t-68.5 20.5q-34 0 -34 -29q0 -13 -10 -13q-7 0 -22 2q-16 -1 -22 -1q-8 0 -8 19q0 69 33 107q28 32 67 32q29 0 79 -20.5t69 -20.5q34 0 34 26q0 15 8 15q6 0 22 -2q13 3 20 3q12 0 12 -18zM664 15
q0 -14 -13 -14h-93q-53 -8 -66 -8q-12 0 -15.5 19.5l-6.5 37.5l-30 102q-3 13 -5 26q-6 18 -19 18q-4 0 -24 -7.5t-28 -7.5l-82 -1q-19 0 -25.5 -4.5t-11.5 -21.5l-29 -99l-10 -46q-3 -16 -16 -16q-10 0 -70 8h-88q-12 0 -12 11q0 5 7 22q9 24 12 34l169 555l12 54
q6 14 40 14q9 0 75 -4l83 4q25 0 33 -6.5t18 -38.5l176 -561q19 -61 19 -70zM404 323q0 5 -2 12l-34 117q-22 74 -40 74q-4 0 -5 -18q-1 -29 -9 -58l-32 -117q-1 -4 -1 -8q0 -9 14 -9h96q13 0 13 7z" />
    <glyph glyph-name="Otilde" unicode="&#xd5;" horiz-adv-x="665" 
d="M519 871q0 -64 -26.5 -102.5t-71.5 -38.5q-31 0 -81.5 20.5t-68.5 20.5q-34 0 -34 -29q0 -13 -10 -13q-7 0 -22 2q-16 -1 -22 -1q-8 0 -8 19q0 69 33 107q28 32 67 32q29 0 79 -20.5t69 -20.5q34 0 34 26q0 15 8 15q6 0 22 -2q13 3 20 3q12 0 12 -18zM635 350
q0 -188 -99 -282q-82 -78 -212 -78q-294 0 -294 350q0 89 29.5 167.5t82.5 125.5q31 1 87.5 35t117.5 34q288 0 288 -352zM443 342q0 218 -109 218q-112 0 -112 -216q0 -210 110 -210q48 0 78 48q33 55 33 160z" />
    <glyph glyph-name="OE" unicode="&#x152;" horiz-adv-x="965" 
d="M915 9q0 -12 -14 -12q-9 0 -69 1.5t-86 1.5h-337q-16 0 -47.5 -3t-48.5 -3q-137 0 -206 76q-77 85 -77 270q0 170 80.5 264t224.5 94q22 0 65 -3.5t66 -3.5h392q11 0 11 -7q0 -11 -4 -67l3 -69q0 -10 -12 -10q-11 0 -38.5 3t-48.5 3h-152q-26 0 -26 -8q0 -3 1.5 -9
t1.5 -11v-67q0 -21 22 -21h158q15 0 15 -15q0 -6 -3 -61q3 -53 3 -62q0 -12 -14 -12h-155q-26 0 -26 -27v-74q0 -21 7.5 -26t30.5 -5h124q24 0 25 18l2 29q1 15 11 15t63 -3q41 3 47 3q11 0 11 -14t-4 -86q4 -83 4 -99zM420 241v214q0 60 -19.5 80.5t-70.5 20.5
q-53 0 -79 -45q-29 -51 -29 -167q0 -117 28 -164q25 -42 80 -42t74 24q16 20 16 79z" />
    <glyph glyph-name="oe" unicode="&#x153;" horiz-adv-x="880" 
d="M818 332q0 -44 -7 -76q-4 -19 -28 -19h-220q-23 0 -23 -17q0 -47 36 -72q31 -22 81 -22q33 0 75 14.5t60 32.5q5 5 11 5q9 0 9 -11q0 -9 -5 -57v-61q0 -15 -9 -21q-55 -38 -181 -38q-93 0 -145 42l-14 11l-16 -12q-55 -41 -148 -41q-252 0 -252 262q0 65 26 122
q23 50 57 79q28 0 78 27t108 27q87 0 137 -42q13 -11 16 -11q2 0 16 11q53 42 142 42q83 0 137 -44q59 -48 59 -131zM677 344q0 32 -19 51t-48 19q-30 0 -50.5 -23.5t-20.5 -55.5q0 -23 14 -23q3 0 16.5 3t18.5 3h68q21 0 21 26zM370 250q0 143 -79 143q-76 0 -76 -140
q0 -146 78 -146q77 0 77 143z" />
    <glyph glyph-name="endash" unicode="&#x2013;" horiz-adv-x="550" 
d="M500 233q0 -9 -5.5 -11t-30.5 -2h-389q-4 0 -9 -1t-6 -1q-7 0 -7 15v103q0 3 -1.5 6t-1.5 4q0 4 44 4h379q7 0 14 2.5t8 2.5q5 0 5 -19v-103z" />
    <glyph glyph-name="emdash" unicode="&#x2014;" horiz-adv-x="1055" 
d="M1005 233q0 -9 -5.5 -11t-30.5 -2h-894q-4 0 -9 -1t-6 -1q-7 0 -7 15v103q0 3 -1.5 6t-1.5 4q0 4 44 4h884q7 0 14 2.5t8 2.5q5 0 5 -19v-103z" />
    <glyph glyph-name="quotedblleft" unicode="&#x201c;" horiz-adv-x="441" 
d="M391 537q0 -5 -12 -44q-5 -15 -9.5 -18.5t-19.5 -3.5h-104q-17 0 -17 10v61q0 15 11 38l47 99q5 11 21 11h66q14 0 14 -7q0 -3 -3 -10l-27 -66q-3 -7 -3 -16q0 -12 18 -26.5t18 -27.5zM212 537q0 -5 -12 -44q-5 -15 -9.5 -18.5t-19.5 -3.5h-104q-17 0 -17 10v61
q0 15 11 38l47 99q5 11 21 11h66q14 0 14 -7q0 -3 -3 -10l-27 -66q-3 -7 -3 -16q0 -12 18 -26.5t18 -27.5z" />
    <glyph glyph-name="quotedblright" unicode="&#x201d;" horiz-adv-x="441" 
d="M391 620q0 -15 -11 -38l-47 -99q-5 -11 -21 -11h-66q-14 0 -14 7q0 3 3 10l27 66q3 7 3 16q0 12 -18 26.5t-18 27.5q0 5 12 44q5 15 9.5 18.5t19.5 3.5h104q17 0 17 -10v-61zM212 620q0 -15 -11 -38l-47 -99q-5 -11 -21 -11h-66q-14 0 -14 7q0 3 3 10l27 66q3 7 3 16
q0 12 -18 26.5t-18 27.5q0 5 12 44q5 15 9.5 18.5t19.5 3.5h104q17 0 17 -10v-61z" />
    <glyph glyph-name="quoteleft" unicode="&#x2018;" horiz-adv-x="262" 
d="M212 537q0 -5 -12 -44q-5 -15 -9.5 -18.5t-19.5 -3.5h-104q-17 0 -17 10v61q0 15 11 38l47 99q5 11 21 11h66q14 0 14 -7q0 -3 -3 -10l-27 -66q-3 -7 -3 -16q0 -12 18 -26.5t18 -27.5z" />
    <glyph glyph-name="quoteright" unicode="&#x2019;" horiz-adv-x="262" 
d="M212 620q0 -15 -11 -38l-47 -99q-5 -11 -21 -11h-66q-14 0 -14 7q0 3 3 10l27 66q3 7 3 16q0 12 -18 26.5t-18 27.5q0 5 12 44q5 15 9.5 18.5t19.5 3.5h104q17 0 17 -10v-61z" />
    <glyph glyph-name="divide" unicode="&#xf7;" horiz-adv-x="428" 
d="M280 373q0 -25 -15 -25h-100q-17 0 -17 28q0 7 1 25t1 27q0 7 -1.5 22.5t-1.5 22.5q0 23 17 23h100q16 0 16 -25q0 -9 -2.5 -25t-2.5 -21q0 -8 2.5 -26t2.5 -26zM368 216q0 -19 -19 -19h-269q-12 0 -16 3.5t-4 17.5v65q0 12 3.5 15t18.5 3h264q13 0 17.5 -2.5t4.5 -15.5
v-67zM280 25q0 -25 -15 -25h-100q-17 0 -17 28q0 7 1 25t1 27q0 7 -1.5 22.5t-1.5 22.5q0 23 17 23h100q16 0 16 -25q0 -9 -2.5 -25t-2.5 -21q0 -8 2.5 -26t2.5 -26z" />
    <glyph glyph-name="ydieresis" unicode="&#xff;" horiz-adv-x="579" 
d="M434 585q0 -16 -14 -16h-83q-16 0 -16 22q0 7 1 19.5t1 19.5q0 6 -1.5 17t-1.5 17q0 17 16 17h82q15 0 15 -18q0 -6 -2 -17.5t-2 -17.5q0 -7 2.5 -21.5t2.5 -21.5zM253 585q0 -16 -14 -16h-83q-16 0 -16 20q0 7 1.5 20.5t1.5 20.5q0 6 -1.5 17.5t-1.5 17.5q0 16 15 16h83
q14 0 14 -16q0 -6 -2 -18.5t-2 -18.5q0 -7 2.5 -21.5t2.5 -21.5zM547 484q0 -6 -9 -31q-14 -34 -15 -38l-105 -320q-16 -47 -30.5 -94.5t-14.5 -96.5v-72q0 -19 -15 -19q-4 0 -70 3q-61 -7 -68 -7q-9 0 -9 12q0 4 1 13.5t1 14.5v55q0 49 -18 98l-36 96l-105 313
q-11 28 -22 72q4 10 9 10h85q49 9 55 9q20 0 24 -16l10 -51l45 -190l20 -95q9 -41 19 -41q9 0 9 23v11q0 54 11 97l50 194q4 23 9 45.5t24 22.5q7 0 57 -9h79q9 0 9 -9z" />
    <glyph glyph-name="Ydieresis" unicode="&#x178;" horiz-adv-x="625" 
d="M457 746q0 -16 -14 -16h-83q-16 0 -16 22q0 7 1 20t1 19t-1.5 17t-1.5 17q0 17 16 17h82q15 0 15 -18q0 -6 -2 -17.5t-2 -17.5q0 -7 2.5 -21.5t2.5 -21.5zM276 746q0 -16 -14 -16h-83q-16 0 -16 20q0 7 1.5 20.5t1.5 20.5q0 6 -1.5 17.5t-1.5 17.5q0 16 15 16h83
q14 0 14 -16q0 -6 -2 -18.5t-2 -18.5q0 -7 2.5 -21.5t2.5 -21.5zM605 677q0 -1 -29 -68l-143 -328q-31 -71 -31 -124v-29q0 -16 1 -63.5t1 -53.5q0 -14 -10 -14q-9 0 -78 7l-83 -4q-13 0 -13 7q5 13 5 23v105q0 44 -5 66q-6 30 -30 83l-144 321q-26 58 -26 73q0 10 10 10h80
q78 9 86 9q5 0 13 -30q4 -18 9 -36l53 -144q7 -19 26 -87q9 -33 20 -33q7 0 12 32q9 50 20 83l50 148q8 23 13 51q3 16 6 16q15 0 90 -9h86q11 0 11 -11z" />
    <glyph glyph-name="currency" unicode="&#xa4;" horiz-adv-x="550" 
d="M510 37q0 -10 -10 -16q-56 -31 -168 -31q-205 0 -232 178h-32q-20 -1 -23 -1q-6 0 -5 7l2 25v21q0 4 5 4q2 0 10 -1t15 -1h22q-1 21 -1 25q0 20 1 33h-19q-13 -1 -19 -1q-5 0 -6.5 1.5t-1.5 5.5q0 5 4 24q-1 14 -1 18q0 8 7 8q2 0 18.5 -1t26.5 -1q20 89 88 134
q59 39 143 39q112 0 158 -23q7 -4 7 -10q0 -4 -21 -53l-7 -51q-1 -10 -5 -10q-1 0 -7 4q-41 26 -106 26q-83 0 -98 -56h151q10 0 22 1h14q11 0 11 -5q0 -6 -2 -23v-20q0 -6 -2 -7.5t-8 -1.5q-2 0 -10.5 1t-14.5 1h-170q-1 -14 -1 -33q0 -8 1 -25h137q17 0 39 1.5t26 1.5
q13 0 13 -7q0 -6 -1 -21q1 -14 1 -23q0 -6 -6 -6h-201q14 -59 108 -59q82 0 124 41q3 3 7 3q6 0 6 -7t-2 -49q13 -51 13 -60z" />
    <glyph glyph-name="guilsinglleft" unicode="&#x2039;" horiz-adv-x="396" 
d="M336 471q0 1 -13 -21l-104 -177q-1 -2 -5.5 -6.5t-4.5 -7.5t4.5 -8t5.5 -6l101 -182q2 -4 8.5 -11t6.5 -10q0 -5 -9 -5h-96q-4 0 -7.5 -2.5t-5.5 -2.5q-8 0 -20 17l-127 179l-10 14v26q0 6 7 15l144 189q5 7 10 7t69 -5q33 2 39 2q7 0 7 -5z" />
    <glyph glyph-name="guilsinglright" unicode="&#x203a;" horiz-adv-x="396" 
d="M336 241q0 -6 -7 -15l-144 -189q-5 -7 -10 -7t-69 5q-33 -2 -39 -2q-7 0 -7 5q0 -1 13 21l104 177q1 2 5.5 6.5t4.5 7.5t-4.5 8t-5.5 6l-101 182q-2 4 -8.5 11t-6.5 10q0 5 9 5h96q4 0 7.5 2.5t5.5 2.5q8 0 20 -17l127 -179l10 -14v-26z" />
    <glyph glyph-name="daggerdbl" unicode="&#x2021;" horiz-adv-x="514" 
d="M464 11q0 -10 -12 -10l-41.5 3t-56.5 3q-5 0 -12.5 6.5t-10.5 6.5q-8 0 -8 -16q0 -9 6.5 -53t6.5 -48q0 -18 -12 -18h-137q-12 0 -12 19q0 2 7 45t7 46q0 13 -18 13q-4 0 -54.5 -4t-52.5 -4q-13 0 -13 9v127q0 10 10 10q5 0 59 -4.5t57 -4.5q14 0 14 5q0 3 -1.5 8t-1.5 8
v65q0 20 -14 20q-2 0 -56.5 -4.5t-57.5 -4.5q-10 0 -10 9v127q0 10 12 10q-11 0 96 -8q5 0 12.5 -6.5t10.5 -6.5q8 0 8 16q0 9 -6 54t-6 49q0 18 12 18h136q12 0 12 -19q0 -2 -7 -45.5t-7 -46.5q0 -13 18 -13q4 0 55.5 4t53.5 4q13 0 13 -9v-127q0 -10 -10 -10
q-5 0 -58.5 4.5t-56.5 4.5q-14 0 -14 -20v-66q0 -20 14 -20q11 0 63 5t53 5q10 0 10 -9v-127z" />
    <glyph glyph-name="periodcentered" unicode="&#xb7;" horiz-adv-x="253" 
d="M193 224q0 -25 -15 -25h-100q-17 0 -17 28q0 7 1 25t1 27q0 7 -1.5 22.5t-1.5 22.5q0 23 17 23h100q16 0 16 -25q0 -9 -2.5 -25t-2.5 -21q0 -8 2.5 -26t2.5 -26z" />
    <glyph glyph-name="periodcentered" unicode="&#x2219;" horiz-adv-x="253" 
d="M193 224q0 -25 -15 -25h-100q-17 0 -17 28q0 7 1 25t1 27q0 7 -1.5 22.5t-1.5 22.5q0 23 17 23h100q16 0 16 -25q0 -9 -2.5 -25t-2.5 -21q0 -8 2.5 -26t2.5 -26z" />
    <glyph glyph-name="quotesinglbase" unicode="&#x201a;" horiz-adv-x="282" 
d="M222 140q0 -15 -11 -38l-47 -99q-5 -11 -21 -11h-66q-14 0 -14 7q0 3 3 10l27 66q3 7 3 16q0 12 -18 26.5t-18 27.5q0 5 12 44q5 15 9.5 18.5t19.5 3.5h104q17 0 17 -10v-61z" />
    <glyph glyph-name="quotedblbase" unicode="&#x201e;" horiz-adv-x="461" 
d="M401 140q0 -15 -11 -38l-47 -99q-5 -11 -21 -11h-66q-14 0 -14 7q0 3 3 10l27 66q3 7 3 16q0 12 -18 26.5t-18 27.5q0 5 12 44q5 15 9.5 18.5t19.5 3.5h104q17 0 17 -10v-61zM222 140q0 -15 -11 -38l-47 -99q-5 -11 -21 -11h-66q-14 0 -14 7q0 3 3 10l27 66q3 7 3 16
q0 12 -18 26.5t-18 27.5q0 5 12 44q5 15 9.5 18.5t19.5 3.5h104q17 0 17 -10v-61z" />
    <glyph glyph-name="perthousand" unicode="&#x2030;" horiz-adv-x="1041" 
d="M991 129q0 -59 -36 -97q-39 -42 -107 -42q-146 0 -146 136q0 64 40 100t108 36q141 0 141 -133zM677 129q0 -59 -36 -97q-39 -42 -107 -42q-146 0 -146 136q0 64 40 100t108 36q141 0 141 -133zM572 494l-20 -30l-257 -382q-20 -30 -43 -69q-11 -21 -16 -21q-1 0 -11.5 4
t-22.5 4h-47q-4 0 -5 3q0 2 6 9q10 10 16 19l272 402q11 16 33 54q8 13 15 13q3 0 40 -2h35q5 0 5 -4zM339 374q0 -59 -36 -97q-39 -42 -107 -42q-146 0 -146 136q0 64 40 100t108 36q141 0 141 -133zM880 123q0 57 -33 57q-34 0 -34 -55q0 -53 33 -53q34 0 34 51zM566 123
q0 57 -33 57q-34 0 -34 -55q0 -53 33 -53q34 0 34 51zM228 368q0 57 -33 57q-34 0 -34 -55q0 -53 33 -53q34 0 34 51z" />
    <glyph glyph-name="Acircumflex" unicode="&#xc2;" horiz-adv-x="684" 
d="M522 738q0 -5 -12 -5h-96q-18 0 -30 20l-31 50q-10 17 -17 17q-4 0 -15 -17l-32 -49q-14 -21 -28 -21h-80q-24 0 -24 5q0 1 20 31l72 108q11 17 25 17h134q11 0 14.5 -5t7.5 -12l79 -118q13 -19 13 -21zM664 15q0 -14 -13 -14h-93q-53 -8 -66 -8q-12 0 -15.5 19.5
l-6.5 37.5l-30 102q-3 13 -5 26q-6 18 -19 18q-4 0 -24 -7.5t-28 -7.5l-82 -1q-19 0 -25.5 -4.5t-11.5 -21.5l-29 -99l-10 -46q-3 -16 -16 -16q-10 0 -70 8h-88q-12 0 -12 11q0 5 7 22q9 24 12 34l169 555l12 54q6 14 40 14q9 0 75 -4l83 4q25 0 33 -6.5t18 -38.5l176 -561
q19 -61 19 -70zM404 323q0 5 -2 12l-34 117q-22 74 -40 74q-4 0 -5 -18q-1 -29 -9 -58l-32 -117q-1 -4 -1 -8q0 -9 14 -9h96q13 0 13 7z" />
    <glyph glyph-name="Ecircumflex" unicode="&#xca;" horiz-adv-x="613" 
d="M520 738q0 -5 -12 -5h-96q-18 0 -30 20l-31 50q-11 17 -17 17q-4 0 -15 -17l-32 -49q-14 -21 -28 -21h-80q-24 0 -24 5q0 1 20 31l72 108q11 17 25 17h134q10 0 14 -5t8 -12l79 -118q13 -19 13 -21zM568 9q0 -12 -13 -12q-9 0 -69.5 1.5t-86.5 1.5h-307q-27 0 -27 8
q0 2 3.5 18.5t3.5 33.5v584q0 47 46 47h392q12 0 12 -11t-4 -63l3 -68q0 -11 -12 -11q-11 0 -38.5 3t-48.5 3h-152q-26 0 -26 -8q0 -3 1.5 -9t1.5 -11v-67q0 -21 22 -21h157q16 0 16 -16q0 -6 -3 -60q3 -52 3 -61q0 -13 -15 -13h-154q-26 0 -26 -28v-73q0 -21 7.5 -26
t30.5 -5h131q17 0 18 20l2 27q1 15 10 15q10 0 56 -3l56 3q10 0 10 -14t-3 -85z" />
    <glyph glyph-name="Aacute" unicode="&#xc1;" horiz-adv-x="684" 
d="M470 848q-2 -7 -8 -18l-77 -66l-32 -31q-6 -5 -15 -5h-97q-10 0 -9 3q6 5 23 28l43 71q14 25 18 25q3 0 11 -1h12h120q13 0 11 -6zM664 15q0 -14 -13 -14h-93q-53 -8 -66 -8q-12 0 -15.5 19.5l-6.5 37.5l-30 102q-3 13 -5 26q-6 18 -19 18q-4 0 -24 -7.5t-28 -7.5l-82 -1
q-19 0 -25.5 -4.5t-11.5 -21.5l-29 -99l-10 -46q-3 -16 -16 -16q-10 0 -70 8h-88q-12 0 -12 11q0 5 7 22q9 24 12 34l169 555l12 54q6 14 40 14q9 0 75 -4l83 4q25 0 33 -6.5t18 -38.5l176 -561q19 -61 19 -70zM404 323q0 5 -2 12l-34 117q-22 74 -40 74q-4 0 -5 -18
q-1 -29 -9 -58l-32 -117q-1 -4 -1 -8q0 -9 14 -9h96q13 0 13 7z" />
    <glyph glyph-name="Edieresis" unicode="&#xcb;" horiz-adv-x="613" 
d="M470 746q0 -16 -14 -16h-83q-16 0 -16 22q0 7 1 20t1 19t-1.5 17t-1.5 17q0 17 16 17h82q15 0 15 -18q0 -6 -2 -17.5t-2 -17.5q0 -7 2.5 -21.5t2.5 -21.5zM289 746q0 -16 -14 -16h-83q-16 0 -16 20q0 7 1.5 20.5t1.5 20.5q0 6 -1.5 17.5t-1.5 17.5q0 16 15 16h83
q14 0 14 -16q0 -6 -2 -18.5t-2 -18.5q0 -7 2.5 -21.5t2.5 -21.5zM568 9q0 -12 -13 -12q-9 0 -69.5 1.5t-86.5 1.5h-307q-27 0 -27 8q0 2 3.5 18.5t3.5 33.5v584q0 47 46 47h392q12 0 12 -11t-4 -63l3 -68q0 -11 -12 -11q-11 0 -38.5 3t-48.5 3h-152q-26 0 -26 -8
q0 -3 1.5 -9t1.5 -11v-67q0 -21 22 -21h157q16 0 16 -16q0 -6 -3 -60q3 -52 3 -61q0 -13 -15 -13h-154q-26 0 -26 -28v-73q0 -21 7.5 -26t30.5 -5h131q17 0 18 20l2 27q1 15 10 15q10 0 56 -3l56 3q10 0 10 -14t-3 -85z" />
    <glyph glyph-name="Egrave" unicode="&#xc8;" horiz-adv-x="613" 
d="M420 731q1 -3 -9 -3h-97q-9 0 -15 5l-32 31l-77 66q-1 2 -8 18q-2 6 11 6h120h12q8 1 10 1q5 0 19 -25l43 -71zM568 9q0 -12 -13 -12q-9 0 -69.5 1.5t-86.5 1.5h-307q-27 0 -27 8q0 2 3.5 18.5t3.5 33.5v584q0 47 46 47h392q12 0 12 -11t-4 -63l3 -68q0 -11 -12 -11
q-11 0 -38.5 3t-48.5 3h-152q-26 0 -26 -8q0 -3 1.5 -9t1.5 -11v-67q0 -21 22 -21h157q16 0 16 -16q0 -6 -3 -60q3 -52 3 -61q0 -13 -15 -13h-154q-26 0 -26 -28v-73q0 -21 7.5 -26t30.5 -5h131q17 0 18 20l2 27q1 15 10 15q10 0 56 -3l56 3q10 0 10 -14t-3 -85z" />
    <glyph glyph-name="Iacute" unicode="&#xcd;" horiz-adv-x="343" 
d="M322 848q-1 -7 -8 -18l-76 -66q-3 -2 -33 -31q-6 -5 -15 -5h-97q-10 0 -8 3q6 5 23 28l42 71q15 25 19 25q3 0 10 -1h13h120q13 0 10 -6zM263 10q0 -10 -7 -10q-9 0 -81 5q-76 -10 -88 -10q-7 0 -7 15v643q0 23 2.5 30.5t13.5 7.5q7 0 77 -3q65 5 73 5q13 0 13 -14
q0 -3 -1 -22.5t-1 -38.5v-505q0 -37 3 -70z" />
    <glyph glyph-name="Icircumflex" unicode="&#xce;" horiz-adv-x="343" 
d="M355 738q0 -5 -12 -5h-96q-17 0 -30 20l-31 50q-10 17 -17 17q-4 0 -15 -17l-32 -49q-14 -21 -28 -21h-80q-24 0 -24 5q0 1 20 31l72 108q12 17 25 17h134q11 0 14.5 -5t7.5 -12l79 -118q13 -19 13 -21zM263 10q0 -10 -7 -10q-9 0 -81 5q-76 -10 -88 -10q-7 0 -7 15v643
q0 23 2.5 30.5t13.5 7.5q7 0 77 -3q65 5 73 5q13 0 13 -14q0 -3 -1 -22.5t-1 -38.5v-505q0 -37 3 -70z" />
    <glyph glyph-name="Idieresis" unicode="&#xcf;" horiz-adv-x="343" 
d="M318 746q0 -16 -14 -16h-83q-16 0 -16 22q0 7 1 20t1 19t-1.5 17t-1.5 17q0 17 16 17h82q15 0 15 -18q0 -6 -2 -17.5t-2 -17.5q0 -7 2.5 -21.5t2.5 -21.5zM137 746q0 -16 -14 -16h-83q-16 0 -16 20q0 7 1.5 20.5t1.5 20.5q0 6 -1.5 17.5t-1.5 17.5q0 16 15 16h83
q14 0 14 -16q0 -6 -2 -18.5t-2 -18.5q0 -7 2.5 -21.5t2.5 -21.5zM263 10q0 -10 -7 -10q-9 0 -81 5q-76 -10 -88 -10q-7 0 -7 15v643q0 23 2.5 30.5t13.5 7.5q7 0 77 -3q65 5 73 5q13 0 13 -14q0 -3 -1 -22.5t-1 -38.5v-505q0 -37 3 -70z" />
    <glyph glyph-name="Igrave" unicode="&#xcc;" horiz-adv-x="343" 
d="M273 731q2 -3 -8 -3h-97q-9 0 -15 5q-30 29 -33 31l-76 66q-2 2 -8 18q-3 6 10 6h120h13q8 1 10 1q4 0 19 -25l42 -71q11 -12 23 -28zM263 10q0 -10 -7 -10q-9 0 -81 5q-76 -10 -88 -10q-7 0 -7 15v643q0 23 2.5 30.5t13.5 7.5q7 0 77 -3q65 5 73 5q13 0 13 -14
q0 -3 -1 -22.5t-1 -38.5v-505q0 -37 3 -70z" />
    <glyph glyph-name="Oacute" unicode="&#xd3;" horiz-adv-x="665" 
d="M490 848q-2 -7 -8 -18l-77 -66l-32 -31q-6 -5 -15 -5h-97q-10 0 -9 3q6 5 23 28l43 71q14 25 18 25q3 0 11 -1h12h120q13 0 11 -6zM635 350q0 -188 -99 -282q-82 -78 -212 -78q-294 0 -294 350q0 89 29.5 167.5t82.5 125.5q31 1 87.5 35t117.5 34q288 0 288 -352z
M443 342q0 218 -109 218q-112 0 -112 -216q0 -210 110 -210q48 0 78 48q33 55 33 160z" />
    <glyph glyph-name="Ocircumflex" unicode="&#xd4;" horiz-adv-x="665" 
d="M515 738q0 -5 -12 -5h-96q-18 0 -30 20l-31 50q-10 17 -17 17q-4 0 -15 -17l-32 -49q-14 -21 -28 -21h-80q-24 0 -24 5q0 1 20 31l72 108q11 17 25 17h134q11 0 14.5 -5t7.5 -12l79 -118q13 -19 13 -21zM635 350q0 -188 -99 -282q-82 -78 -212 -78q-294 0 -294 350
q0 89 29.5 167.5t82.5 125.5q31 1 87.5 35t117.5 34q288 0 288 -352zM443 342q0 218 -109 218q-112 0 -112 -216q0 -210 110 -210q48 0 78 48q33 55 33 160z" />
    <glyph glyph-name="Ograve" unicode="&#xd2;" horiz-adv-x="665" 
d="M420 731q1 -3 -9 -3h-97q-9 0 -15 5l-32 31l-77 66q-1 2 -8 18q-2 6 11 6h120h12q8 1 11 1q4 0 18 -25l43 -71zM635 350q0 -188 -99 -282q-82 -78 -212 -78q-294 0 -294 350q0 89 29.5 167.5t82.5 125.5q31 1 87.5 35t117.5 34q288 0 288 -352zM443 342q0 218 -109 218
q-112 0 -112 -216q0 -210 110 -210q48 0 78 48q33 55 33 160z" />
    <glyph glyph-name="Uacute" unicode="&#xda;" horiz-adv-x="672" 
d="M490 848q-2 -7 -8 -18l-77 -66l-32 -31q-6 -5 -15 -5h-97q-10 0 -9 3q6 5 23 28l43 71q14 25 18 25q3 0 11 -1h12h120q13 0 11 -6zM617 681q0 -4 -1.5 -15.5t-1.5 -18.5v-340q0 -317 -282 -317q-134 0 -197 59q-77 72 -77 248v332q0 17 -1.5 32.5t-1.5 16.5q0 13 13 13
q5 0 90 -4l70 4q10 0 10 -10q0 -24 -1.5 -55t-1.5 -53v-220q0 -115 17 -157q22 -53 86 -53q57 0 80 54q19 47 19 155v292q0 13 -4 25.5t-4 14.5q0 7 11 7q7 0 87 -4l82 4q8 0 8 -10z" />
    <glyph glyph-name="Ucircumflex" unicode="&#xdb;" horiz-adv-x="672" 
d="M515 738q0 -5 -12 -5h-96q-18 0 -30 20l-31 50q-10 17 -17 17q-4 0 -15 -17l-32 -49q-14 -21 -28 -21h-80q-24 0 -24 5q0 1 20 31l72 108q11 17 25 17h134q11 0 14.5 -5t7.5 -12l79 -118q13 -19 13 -21zM617 681q0 -4 -1.5 -15.5t-1.5 -18.5v-340q0 -317 -282 -317
q-134 0 -197 59q-77 72 -77 248v332q0 17 -1.5 32.5t-1.5 16.5q0 13 13 13q5 0 90 -4l70 4q10 0 10 -10q0 -24 -1.5 -55t-1.5 -53v-220q0 -115 17 -157q22 -53 86 -53q57 0 80 54q19 47 19 155v292q0 13 -4 25.5t-4 14.5q0 7 11 7q7 0 87 -4l82 4q8 0 8 -10z" />
    <glyph glyph-name="Ugrave" unicode="&#xd9;" horiz-adv-x="672" 
d="M430 731q1 -3 -9 -3h-97q-9 0 -15 5l-32 31l-77 66q-1 2 -8 18q-2 6 11 6h120h12q8 1 11 1q4 0 18 -25l43 -71zM617 681q0 -4 -1.5 -15.5t-1.5 -18.5v-340q0 -317 -282 -317q-134 0 -197 59q-77 72 -77 248v332q0 17 -1.5 32.5t-1.5 16.5q0 13 13 13q5 0 90 -4l70 4
q10 0 10 -10q0 -24 -1.5 -55t-1.5 -53v-220q0 -115 17 -157q22 -53 86 -53q57 0 80 54q19 47 19 155v292q0 13 -4 25.5t-4 14.5q0 7 11 7q7 0 87 -4l82 4q8 0 8 -10z" />
    <glyph glyph-name="circumflex" unicode="&#x2c6;" 
d="M430 546q0 -5 -12 -5h-96q-18 0 -30 20l-31 50q-11 17 -17 17q-4 0 -15 -17l-32 -49q-14 -21 -28 -21h-80q-24 0 -24 5q0 1 20 31l72 108q11 17 25 17h134q11 0 14.5 -5t7.5 -12l79 -118q13 -19 13 -21z" />
    <glyph glyph-name="tilde" unicode="&#x2dc;" 
d="M422 695q0 -64 -26.5 -102.5t-71.5 -38.5q-30 0 -80.5 20.5t-69.5 20.5q-34 0 -34 -29q0 -13 -10 -13q-7 0 -22 2q-15 -1 -22 -1q-8 0 -8 19q0 69 33 107q28 32 67 32q29 0 79 -20.5t69 -20.5q34 0 34 26q0 15 8 15q7 0 22 -2q14 3 20 3q12 0 12 -18z" />
    <glyph glyph-name="macron" unicode="&#xaf;" 
d="M393 601q0 -16 -20 -16h-243q-21 0 -21 17v85q0 15 21 15h243q20 0 20 -14v-87z" />
    <glyph glyph-name="macron" unicode="&#x2c9;" 
d="M393 601q0 -16 -20 -16h-243q-21 0 -21 17v85q0 15 21 15h243q20 0 20 -14v-87z" />
    <glyph glyph-name="cedilla" unicode="&#xb8;" 
d="M389 -105q0 -93 -129 -93q-69 0 -107 13q-12 4 -12 18v73q0 9 4 9t7 -3q25 -22 73 -22q39 0 39 21q0 24 -56 24q-3 0 -10 -1h-10q-7 0 -7 7v4q3 28 8 67q1 8 13 8h63q16 0 16 -7q0 -5 -2.5 -15.5t-2.5 -16.5q0 -14 19 -14q94 0 94 -72z" />
    <glyph glyph-name="notequal" unicode="&#x2260;" horiz-adv-x="491" 
d="M431 102q0 -19 -19 -19h-224l-14 -26q-34 -63 -40 -63t-51 5q-16 3 -16 5t7 10.5t11 16.5l29 52h-34q-12 0 -16 3.5t-4 17.5v82q0 12 3.5 15t18.5 3h99l57 101h-158q-12 0 -16 3.5t-4 17.5v82q0 12 3.5 15t18.5 3h223l20 36q26 47 33 47q2 0 15 -2h48q3 0 3 -4
q-4 -4 -13 -19l-32 -58h30q13 0 17.5 -2.5t4.5 -15.5v-84q0 -19 -19 -19h-100l-56 -101h153q13 0 17.5 -2.5t4.5 -15.5v-84z" />
    <glyph glyph-name="infinity" unicode="&#x221e;" horiz-adv-x="825" 
d="M775 250q0 -103 -52.5 -157.5t-140.5 -54.5q-109 0 -168 97q-8 13 -14 13t-13 -13q-49 -95 -161 -95q-78 0 -125 52q-51 56 -51 158q0 104 58 162q54 55 141 55q98 0 164 -97q6 -9 12 -9q9 0 14 10q22 45 66 70q40 23 86 23q85 0 133 -52q51 -56 51 -162zM637 254
q0 67 -80 67q-28 0 -54.5 -22t-26.5 -40q0 -22 26 -44.5t60 -22.5q75 0 75 62zM348 250q0 19 -21 40q-25 26 -63 26q-75 0 -75 -62q0 -67 82 -67q28 0 54 24q23 22 23 39z" />
    <glyph glyph-name="lessequal" unicode="&#x2264;" horiz-adv-x="498" 
d="M386 146q0 -8 -12 -8h-112q-22 0 -33 14l-124 151q-8 10 -8 15q0 6 7 14l125 150q12 14 32 14h114q10 0 10 -6q0 -5 -4 -10l-127 -146q-7 -8 -7 -13q0 -6 7 -14l126 -150q6 -7 6 -11zM438 19q0 -19 -19 -19h-339q-12 0 -16 3.5t-4 17.5v69q0 12 3.5 15t18.5 3h334
q13 0 17.5 -2.5t4.5 -15.5v-71z" />
    <glyph glyph-name="greaterequal" unicode="&#x2265;" horiz-adv-x="498" 
d="M399 316q0 -6 -7 -14l-125 -150q-12 -14 -32 -14h-114q-10 0 -10 6q0 5 4 10l127 146q7 8 7 13q0 6 -7 14l-126 150q-6 7 -6 11q0 8 12 8h112q22 0 33 -14l124 -151q8 -10 8 -15zM438 19q0 -19 -19 -19h-339q-12 0 -16 3.5t-4 17.5v69q0 12 3.5 15t18.5 3h334
q13 0 17.5 -2.5t4.5 -15.5v-71z" />
    <glyph glyph-name="partialdiff" unicode="&#x2202;" horiz-adv-x="621" 
d="M561 316q0 -152 -68.5 -239t-189.5 -87q-113 0 -178 68t-65 184q0 120 52 185q50 61 139 61q31 0 72.5 -10.5t40.5 -10.5q10 0 10 8q0 34 -38 65q-44 34 -105 34q-59 0 -109 -25h-2q-5 0 -5 6t-6 64q-13 50 -13 64q0 9 18 14q76 23 125 23q322 0 322 -404zM391 252
q0 135 -82 135q-78 0 -78 -143q0 -68 20.5 -104t53.5 -36q86 0 86 148z" />
    <glyph glyph-name="summation" unicode="&#x2211;" horiz-adv-x="692" 
d="M622 9q0 -12 -13 -12q-9 0 -69.5 1.5t-86.5 1.5h-372q-21 0 -21 10q0 3 1.5 9.5t1.5 9.5v55q0 12 9 22l198 212q2 2 14 10q7 5 7 11q0 7 -6.5 12.5l-12.5 10.5l-199 218q-11 12 -11 31v56q0 24 23 24h479q12 0 12 -11t-4 -63l3 -68q0 -11 -12 -11q-11 0 -38.5 3t-48.5 3
h-131q-29 0 -29 -10q0 -6 20 -27l103 -108q17 -18 17 -36v-32q0 -18 -17 -35l-121 -119q-9 -9 -9 -16q0 -15 35 -15h106q20 0 25 2q12 4 13 19l2 26q1 15 10 15q10 0 56 -3l56 3q10 0 10 -14t-3 -85z" />
    <glyph glyph-name="product" unicode="&#x220f;" horiz-adv-x="713" 
d="M643 17q0 -17 -10 -17q-12 0 -77 5q-69 -7 -76 -7q-17 0 -17 44v463q0 44 -18 44q-6 0 -23 -8t-26 -8h-126q-22 0 -22 -31v-422q0 -37 2.5 -53l2.5 -16q0 -6 -1.5 -8.5t-5.5 -2.5q-13 0 -84 5l-70 -5q-17 0 -20 32q-1 5 -1 44v544v28q-1 17 -1 22q0 21 12 21t283 -5
l263 5q13 0 13 -18v-23q-1 -19 -1 -32v-505q0 -16 1.5 -48t1.5 -48z" />
    <glyph glyph-name="pi" unicode="&#x3c0;" horiz-adv-x="655" 
d="M625 431q0 -6 -4 -17q-21 -56 -103 -85q-24 -9 -24 -15q0 -3 2.5 -13.5t2.5 -16.5v-217q0 -12 3 -33t3 -25q0 -9 -7 -9q-8 0 -63 5q-49 -5 -58 -5q-13 0 -13 17v289q0 16 -17 16h-74v-177q0 -151 -146 -151q-42 0 -57 3q-10 2 -10 10q0 15 11 64q-3 39 -3 48q0 11 6 11
q1 0 11.5 -2.5t22.5 -2.5q30 0 30 33v149q0 11 -4.5 13t-11.5 2h-60q-12 0 -12 12q0 8 11 67q-5 64 -5 71q0 14 10 14q3 0 32.5 -3t46.5 -3h280q74 0 103 49q2 4 7 4q7 0 40 -54q50 -35 50 -48z" />
    <glyph glyph-name="integral" unicode="&#x222b;" horiz-adv-x="392" 
d="M352 594q0 -9 -6 -9q-5 0 -37.5 2.5t-43.5 2.5q-34 0 -34 -28q0 -8 5.5 -24t6.5 -24l66 -418q3 -19 3 -36q0 -90 -72 -147q-65 -52 -149 -52q-22 0 -35.5 3t-13.5 11q0 9 5 56q-7 42 -7 51t6 9q2 0 27 -3t37 -3q50 0 50 35q0 6 -4 20t-6 26l-66 419q-3 19 -3 30
q0 85 69 143q66 55 154 55q27 0 36 -2.5t9 -11.5q0 -7 -3 -51q6 -44 6 -54z" />
    <glyph glyph-name="Omega" unicode="&#x3a9;" horiz-adv-x="779" 
d="M719 1q0 -7 -10 -7l-34 3t-71 3h-165q-9 0 -9 14q0 13 3 69q-7 46 -7 58q0 8 11 14q66 33 66 205q0 190 -112 190q-110 0 -110 -190q0 -167 64 -204q5 -3 10 -5q2 -2 2 -10q0 -12 -7 -58q3 -56 3 -69q0 -14 -9 -14h-166q-37 0 -70 -3l-33 -3q-10 0 -10 7q0 9 5 67
q-10 78 -10 90q0 7 15 7q6 0 32.5 -1t31.5 -1h66q4 0 4 8q0 12 -4 14q-49 24 -82.5 87.5t-33.5 141.5q0 151 90 225q78 63 213 63q131 0 210 -62q93 -73 93 -220q0 -77 -32 -142t-85 -95q-4 -2 -4 -11t8 -9h63q6 0 28 1.5t34 1.5t12 -7q0 -10 -7 -75q7 -74 7 -83z" />
    <glyph glyph-name="Omega" unicode="&#x2126;" horiz-adv-x="779" 
d="M719 1q0 -7 -10 -7l-34 3t-71 3h-165q-9 0 -9 14q0 13 3 69q-7 46 -7 58q0 8 11 14q66 33 66 205q0 190 -112 190q-110 0 -110 -190q0 -167 64 -204q5 -3 10 -5q2 -2 2 -10q0 -12 -7 -58q3 -56 3 -69q0 -14 -9 -14h-166q-37 0 -70 -3l-33 -3q-10 0 -10 7q0 9 5 67
q-10 78 -10 90q0 7 15 7q6 0 32.5 -1t31.5 -1h66q4 0 4 8q0 12 -4 14q-49 24 -82.5 87.5t-33.5 141.5q0 151 90 225q78 63 213 63q131 0 210 -62q93 -73 93 -220q0 -77 -32 -142t-85 -95q-4 -2 -4 -11t8 -9h63q6 0 28 1.5t34 1.5t12 -7q0 -10 -7 -75q7 -74 7 -83z" />
    <glyph glyph-name="radical" unicode="&#x221a;" horiz-adv-x="615" 
d="M565 557q0 -11 -9 -11h-42q-14 0 -17.5 -3.5t-7.5 -21.5l-89 -451q-11 -55 -17 -63q-9 -12 -49 -12h-83q-30 0 -38 12l-20 58l-121 346q-22 63 -22 74q0 8 9 8h52q79 8 92 8q14 0 18 -17q4 -24 9 -49l44 -178l10 -47q11 -35 25 -35q8 0 8 20.5t6 56.5l64 380q1 6 1 12
t-1 17t-1 15q0 19 13 19q12 0 75 -4h81q10 0 10 -9v-125z" />
    <glyph glyph-name="approxequal" unicode="&#x2248;" horiz-adv-x="498" 
d="M438 329q0 -17 -9 -24q-31 -24 -83 -24q-33 0 -97 22.5t-98 22.5q-40 0 -81 -29q-4 -3 -7 -3t-3 6v92q0 16 10 24q38 29 85 29q34 0 96.5 -21.5t94.5 -21.5q45 0 80 24q6 4 8 4q4 0 4 -8v-93zM438 120q0 -17 -9 -24q-31 -24 -83 -24q-33 0 -97 22.5t-98 22.5
q-41 0 -79 -28q-7 -5 -9 -5q-3 0 -3 7v92q0 16 10 24q38 29 85 29q34 0 96.5 -21.5t94.5 -21.5q23 0 43.5 8.5t39.5 17.5q3 1 5 1q4 0 4 -7v-93z" />
    <glyph glyph-name="approxequal" unicode="&#x22f2;" horiz-adv-x="498" 
d="M438 329q0 -17 -9 -24q-31 -24 -83 -24q-33 0 -97 22.5t-98 22.5q-40 0 -81 -29q-4 -3 -7 -3t-3 6v92q0 16 10 24q38 29 85 29q34 0 96.5 -21.5t94.5 -21.5q45 0 80 24q6 4 8 4q4 0 4 -8v-93zM438 120q0 -17 -9 -24q-31 -24 -83 -24q-33 0 -97 22.5t-98 22.5
q-41 0 -79 -28q-7 -5 -9 -5q-3 0 -3 7v92q0 16 10 24q38 29 85 29q34 0 96.5 -21.5t94.5 -21.5q23 0 43.5 8.5t39.5 17.5q3 1 5 1q4 0 4 -7v-93z" />
    <glyph glyph-name="Delta" unicode="&#x394;" horiz-adv-x="744" 
d="M694 25q0 -16 -5 -20.5t-21 -4.5h-595q-13 0 -18 4.5t-5 21.5v40q0 15 9 41l179 516q6 27 13 54q5 14 39 14q9 0 75 -4l83 4q25 0 32.5 -6.5t18.5 -38.5l183 -531q12 -35 12 -55v-35zM488 161q0 6 -2 12l-88 279q-7 21 -13 42q-13 32 -27 32q-4 0 -4 -18q-1 -28 -10 -58
l-88 -279q-1 -3 -1 -8q0 -9 14 -9h206q13 0 13 7z" />
    <glyph glyph-name="Delta" unicode="&#x2206;" horiz-adv-x="744" 
d="M694 25q0 -16 -5 -20.5t-21 -4.5h-595q-13 0 -18 4.5t-5 21.5v40q0 15 9 41l179 516q6 27 13 54q5 14 39 14q9 0 75 -4l83 4q25 0 32.5 -6.5t18.5 -38.5l183 -531q12 -35 12 -55v-35zM488 161q0 6 -2 12l-88 279q-7 21 -13 42q-13 32 -27 32q-4 0 -4 -18q-1 -28 -10 -58
l-88 -279q-1 -3 -1 -8q0 -9 14 -9h206q13 0 13 7z" />
    <glyph glyph-name="lozenge" unicode="&#x25ca;" horiz-adv-x="516" 
d="M466 265q0 -9 -10 -24q-19 -29 -97 -159q-29 -48 -45 -72q-8 -11 -23 -11q-7 0 -32 1q-28 -2 -38 -2q-8 0 -16 14l-48 76l-97 151q-10 15 -10 23q0 9 10 21q47 56 152 213q2 3 7 3q10 0 38 -3q32 2 43 2q8 0 13 -10q7 -13 50 -73q30 -45 96 -133q7 -9 7 -17zM322 258
q0 -1 -49 78q-14 23 -15 23q-3 0 -14 -20l-47 -70q-3 -4 -3 -7q0 -4 5 -12q13 -18 47 -71q3 -4 8 -18q3 -7 7 -7q1 0 16 25l42 71q3 5 3 8z" />
    <glyph glyph-name="fraction" unicode="&#x2044;" horiz-adv-x="436" 
d="M416 684q0 -3 -7 -16q-9 -16 -12 -26l-177 -529q-41 -124 -54 -124q-1 0 -10.5 5.5t-20.5 5.5h-111q-3 0 -4 4q0 3 7.5 13.5t12.5 25.5l189 556q32 93 44 93q3 0 104 -3h34q5 0 5 -5z" />
    <glyph glyph-name="fi" unicode="&#xf001;" horiz-adv-x="672" 
d="M563 595q0 -17 -12 -17h-76q-14 0 -14 19q0 5 1 17t1 18q0 5 -1 15.5t-1 15.5q0 16 13 16h76q13 0 13 -17q0 -6 -2 -17t-2 -15q0 -5 2 -17.5t2 -17.5zM600 6q0 -7 -7 -7q-12 0 -76 4l-72 -3q-15 0 -15 10q0 2 1 10.5t1 16.5v320q0 30 -27 30h-102q-7 0 -13.5 1.5
t-9.5 1.5t-4 -4.5t-1 -18.5v-287q0 -103 -78 -172q-71 -63 -162 -63q-27 0 -35 3.5t-8 10.5q0 5 6 56q-3 43 -3 51q0 9 7 9q2 0 27 -3t37 -3q31 0 36 2q14 4 14 26q0 4 -1.5 21.5t-1.5 31.5v316q0 15 -2.5 18t-13.5 3h-52q-12 0 -12 11q0 5 2 42l-2 40q0 9 10 9h53q1 0 4 -2
t5 -2q6 0 8 23q9 92 79 150q66 55 150 55q26 0 36 -3q7 -2 7 -11q0 -7 -6 -43v-62q0 -9 -7 -9q-5 0 -15 3t-21 3q-63 0 -63 -54q0 -14 2 -31t25 -17h213q64 5 71 5q9 0 9 -15v-18q-1 -12 -1 -15v-361q0 -26 4 -51t4 -28z" />
    <glyph glyph-name="fl" unicode="&#xf002;" horiz-adv-x="709" 
d="M697 22q0 -7 -6 -11q-34 -21 -113 -21q-128 0 -128 148v398q0 23 -6 30.5t-23 13.5q-31 11 -85 11q-63 0 -63 -54q0 -7 2 -30q2 -18 18 -18h79q10 0 10 -9q0 -5 -2 -38v-40q0 -15 -17 -15h-60q-7 0 -13.5 1.5t-9.5 1.5t-4 -4.5t-1 -18.5v-287q0 -103 -78 -172
q-71 -63 -162 -63q-43 0 -43 14q0 5 6 48v59q0 9 7 9q2 0 25.5 -3t35.5 -3q31 0 36 2q14 4 14 26q0 4 -1.5 21.5t-1.5 31.5v316q0 15 -2.5 18t-13.5 3h-52q-12 0 -12 10l2 43l-2 41q0 8 10 8h53q1 0 4 -2t4 -2q7 0 9 23q9 92 79 150q66 55 150 55q36 0 106 -12q23 -4 33 -4
q23 0 66.5 8.5t63.5 8.5q5 0 5 -9q0 -6 -3 -26t-3 -32v-479q0 -46 35 -46q15 0 29 6.5t16 6.5q7 0 7 -9q0 -7 -5 -53q5 -42 5 -50v-1z" />
    <glyph glyph-name="dotlessi" unicode="&#x131;" horiz-adv-x="311" 
d="M241 6q0 -7 -7 -7q-12 0 -76 4l-72 -3q-15 0 -15 10q0 2 1 10.5t1 16.5v376q0 14 -1.5 36t-1.5 28q0 19 17 19q7 0 67 -4q64 5 71 5q9 0 9 -15v-18q-1 -12 -1 -15v-364q0 -26 4 -51t4 -28z" />
    <glyph glyph-name="breve" unicode="&#x2d8;" 
d="M425 691q0 -72 -48.5 -113t-126.5 -41q-79 0 -124 38q-50 40 -50 117q0 8 12 8q6 0 39 -2l57 2q15 0 15 -10q0 -20 11 -35q14 -19 40 -19q52 0 52 54q0 10 13 10q5 0 61 -2q29 2 38 2q11 0 11 -9z" />
    <glyph glyph-name="dotaccent" unicode="&#x2d9;" 
d="M310 593q0 -20 -13 -20h-89q-15 0 -15 22q0 6 1 20.5t1 21.5q0 6 -1.5 18t-1.5 18q0 18 15 18h89q14 0 14 -20q0 -7 -2 -19.5t-2 -16.5q0 -6 2 -21t2 -21z" />
    <glyph glyph-name="ring" unicode="&#x2da;" 
d="M380 637q0 -52 -34.5 -82.5t-97.5 -30.5q-62 0 -97 30.5t-35 82.5q0 50 35 80.5t97 30.5t97 -29.5t35 -81.5zM286 637q0 43 -38 43q-39 0 -39 -43t39 -43q38 0 38 43z" />
    <glyph glyph-name="hungarumlaut" unicode="&#x2dd;" 
d="M419 694q0 -6 -5 -16l-46 -91l-18 -40q-4 -7 -12 -7h-80q-9 0 -9 5q0 2 4.5 11.5t6.5 23.5l13 91q5 32 8 32h9q7 -1 12 -1h105q12 0 12 -8zM245 694q0 -6 -5 -16l-46 -91l-18 -40q-4 -7 -12 -7h-80q-9 0 -9 5q0 2 4.5 11.5t6.5 23.5l13 91q5 32 8 32h9q7 -1 12 -1h105
q12 0 12 -8z" />
    <glyph glyph-name="ogonek" unicode="&#x2db;" 
d="M351 -167q0 -13 -14 -18q-36 -13 -102 -13q-124 0 -124 97q0 75 92 116q11 5 23 5h76q7 0 7 -5t-4 -6q-28 -10 -48 -32t-20 -44q0 -38 46 -38q41 0 58 12q4 3 6 3q4 0 4 -9v-68z" />
    <glyph glyph-name="caron" unicode="&#x2c7;" 
d="M437 697q0 -1 -20 -31l-72 -108q-11 -17 -25 -17h-134q-11 0 -14.5 5t-7.5 12l-79 118q-13 19 -13 21q0 5 12 5h96q18 0 30 -20l31 -50q11 -17 17 -17q4 0 15 17l32 49q14 21 28 21h80q24 0 24 -5z" />
    </font>
</defs>
</svg>
